<svg xmlns="http://www.w3.org/2000/svg" xmlns:xlink="http://www.w3.org/1999/xlink" id="flag-icons-ar" viewBox="0 0 50 37.5" width="50" height="37.5"><path fill="#74acdf" d="M0 0h50v37.5H0z"/><path fill="#fff" d="M0 12.5h50v12.5H0z"/><g id="ar-c" transform="translate(-64) scale(.96)"><path id="ar-a" fill="#f6b40e" stroke="#85340a" stroke-width="0.0859375" d="m31 19.633 2.227 4.844s0.039 0.094 0.102 0.07c0.063 -0.031 0.023 -0.125 0.023 -0.125l-1.852 -5m-0.055 1.891c-0.031 0.734 0.422 1.141 0.367 1.797 -0.063 0.664 0.297 1.031 0.391 1.289 0.078 0.258 -0.094 0.406 -0.023 0.445 0.078 0.039 0.234 -0.164 0.188 -0.531 -0.055 -0.359 -0.328 -0.469 -0.266 -1.273 0.063 -0.805 -0.328 -0.992 -0.234 -1.719"/><use xlink:href="#ar-a" width="100%" height="100%" transform="rotate(22.5 400 250)"/><use xlink:href="#ar-a" width="100%" height="100%" transform="rotate(45 400 250)"/><use xlink:href="#ar-a" width="100%" height="100%" transform="rotate(67.5 400 250)"/><path id="ar-b" fill="#85340a" d="M31.586 21.438c0.039 0.703 0.438 1.016 0.359 1.664 0.172 -0.508 -0.242 -0.906 -0.219 -1.656m-0.602 -1.859 1.523 3.328 -1.273 -3.43"/><use xlink:href="#ar-b" width="100%" height="100%" transform="rotate(22.5 400 250)"/><use xlink:href="#ar-b" width="100%" height="100%" transform="rotate(45 400 250)"/><use xlink:href="#ar-b" width="100%" height="100%" transform="rotate(67.5 400 250)"/></g><use xlink:href="#ar-c" width="100%" height="100%" transform="rotate(90 320 240)"/><use xlink:href="#ar-c" width="100%" height="100%" transform="rotate(180 320 240)"/><use xlink:href="#ar-c" width="100%" height="100%" transform="rotate(-90 320 240)"/><path cx="320" cy="240" r="26.7" fill="#f6b40e" stroke="#85340a" stroke-width="0.109375" d="M27.086 18.75A2.086 2.086 0 0 1 25 20.836A2.086 2.086 0 0 1 22.914 18.75A2.086 2.086 0 0 1 27.086 18.75z"/><path id="ar-h" fill="#843511" stroke-width="0.078125" d="M25.703 18.305c-0.133 0 -0.273 0.063 -0.352 0.188 0.156 0.148 0.516 0.156 0.758 -0.016a0.547 0.547 0 0 0 -0.398 -0.172zm0 0.031c0.141 0 0.273 0.063 0.289 0.125 -0.156 0.18 -0.414 0.156 -0.578 0.031 0.078 -0.109 0.188 -0.156 0.297 -0.156z"/><use xlink:href="#ar-d" width="100%" height="100%" transform="matrix(-1 0 0 1 640.2 0)"/><use xlink:href="#ar-e" width="100%" height="100%" transform="matrix(-1 0 0 1 640.2 0)"/><use xlink:href="#ar-f" width="100%" height="100%" transform="translate(18.1)"/><use xlink:href="#ar-g" width="100%" height="100%" transform="matrix(-1 0 0 1 640.2 0)"/><path fill="#85340a" d="M24.688 19.039a0.141 0.141 0 1 0 0.141 0.227 0.313 0.313 0 0 0 0.172 0.047h0.016c0.047 0 0.125 -0.008 0.18 -0.047 0.023 0.039 0.07 0.055 0.117 0.055a0.141 0.141 0 0 0 0.023 -0.281c0.039 0.016 0.063 0.047 0.063 0.094a0.094 0.094 0 0 1 -0.188 0 0.234 0.234 0 0 1 -0.203 0.133 0.234 0.234 0 0 1 -0.195 -0.133c0 0.055 -0.047 0.094 -0.102 0.094 -0.047 0 -0.094 -0.047 -0.094 -0.094s0.023 -0.078 0.063 -0.094zm0.156 0.422c-0.164 0 -0.234 0.156 -0.375 0.242 0.078 -0.031 0.141 -0.094 0.258 -0.156 0.109 -0.063 0.203 0.016 0.273 0.016 0.063 0 0.156 -0.078 0.273 -0.016 0.109 0.063 0.18 0.125 0.258 0.156 -0.148 -0.094 -0.211 -0.234 -0.375 -0.234 -0.031 0 -0.094 0.016 -0.156 0.047l-0.156 -0.055z"/><path fill="#85340a" d="M24.781 19.656c-0.063 0 -0.141 0.016 -0.266 0.047 0.289 -0.063 0.352 0.039 0.484 0.039 0.125 0 0.195 -0.102 0.477 -0.039 -0.313 -0.094 -0.383 -0.031 -0.477 -0.031 -0.063 0 -0.109 -0.023 -0.219 -0.016z"/><path fill="#85340a" d="M24.531 19.703h-0.063c0.336 0.039 0.18 0.234 0.531 0.234s0.195 -0.195 0.531 -0.234c-0.352 -0.031 -0.242 0.18 -0.531 0.18 -0.273 0 -0.188 -0.18 -0.469 -0.18z"/><path fill="#85340a" d="M25.289 20.227a0.289 0.289 0 0 0 -0.578 0 0.297 0.297 0 0 1 0.578 0z"/><path id="ar-e" fill="#85340a" stroke-width="0.078125" d="M23.703 18.305c0.367 -0.32 0.836 -0.375 1.094 -0.133a0.625 0.625 0 0 1 0.117 0.266c0.031 0.188 -0.023 0.383 -0.164 0.586l0.063 0.031c0.125 -0.242 0.172 -0.492 0.125 -0.734l-0.047 -0.18c-0.352 -0.289 -0.836 -0.313 -1.188 0.156z"/><path id="ar-d" fill="#85340a" stroke-width="0.078125" d="M24.281 18.203c0.211 0 0.258 0.047 0.352 0.133 0.094 0.078 0.148 0.063 0.156 0.078 0.023 0.016 0 0.063 -0.023 0.047 -0.039 -0.016 -0.102 -0.047 -0.195 -0.125s-0.195 -0.078 -0.289 -0.078c-0.289 0 -0.445 0.234 -0.477 0.219 -0.039 -0.016 0.156 -0.273 0.477 -0.273z"/><use xlink:href="#ar-h" width="100%" height="100%" transform="translate(-18.4)"/><path id="ar-f" cx="310.9" cy="236.3" r="1.8" fill="#85340a" stroke-width="0.078125" d="M24.43 18.461A0.141 0.141 0 0 1 24.289 18.602A0.141 0.141 0 0 1 24.148 18.461A0.141 0.141 0 0 1 24.43 18.461z"/><path id="ar-g" fill="#85340a" stroke-width="0.078125" d="M23.898 18.555c0.273 0.211 0.547 0.195 0.703 0.102 0.156 -0.102 0.156 -0.133 0.125 -0.133 -0.031 0 -0.063 0.031 -0.188 0.102 -0.133 0.063 -0.32 0.063 -0.641 -0.07z"/></svg>