<svg xmlns="http://www.w3.org/2000/svg" viewBox="0 0 50 37.5" width="50" height="37.5"><path fill="#00008B" d="M0 0h50v37.5H0z"/><path fill="#fff" d="m2.93 0 9.531 7.07L21.953 0h3.047v2.422l-9.375 6.992 9.375 6.953V18.75h-3.125l-9.375 -6.992L3.164 18.75H0v-2.344l9.336 -6.953L0 2.5V0z"/><path fill="red" d="M16.563 10.977 25 17.188v1.563l-10.586 -7.773zm-7.188 0.781 0.234 1.367 -7.5 5.625H0zM25 0v0.117l-9.727 7.344 0.078 -1.719L23.047 0zM0 0l9.336 6.875h-2.344L0 1.641z"/><path fill="#fff" d="M9.414 0v18.75h6.25V0h-6.25ZM0 6.25v6.25h25V6.25H0Z"/><path fill="red" d="M0 7.539v3.75h25v-3.75zM10.664 0v18.75h3.75V0z"/><path fill="#fff" d="m41.172 30.992 -1.602 0.203 0.172 1.602 -1.156 -1.125 -1.148 1.133 0.156 -1.602 -1.602 -0.188 1.352 -0.875 -0.852 -1.367 1.531 0.508 0.539 -1.523 0.555 1.516 1.523 -0.523 -0.836 1.375 1.359 0.867Zm-0.289 -9.156 0.211 -1.016 -0.766 -0.703 1.031 -0.117 0.43 -0.945 0.43 0.945 1.031 0.117 -0.766 0.703 0.211 1.016 -0.906 -0.516 -0.906 0.516Zm-8.133 -4.688 -1.586 0.172 0.141 1.586 -1.125 -1.133 -1.156 1.102 0.188 -1.586 -1.578 -0.211 1.352 -0.844 -0.82 -1.367 1.508 0.531L30.234 13.906l0.523 1.508 1.516 -0.492 -0.852 1.352 1.336 0.875ZM48.672 14.586l-1.633 0.211 0.18 1.633 -1.18 -1.148 -1.172 1.156 0.164 -1.641 -1.633 -0.188 1.383 -0.898 -0.867 -1.398 1.563 0.523 0.547 -1.547 0.563 1.547 1.555 -0.539 -0.859 1.406 1.391 0.883Zm-7.508 -6.523 -1.617 0.18 0.148 1.625 -1.148 -1.156 -1.18 1.125 0.188 -1.617 -1.617 -0.219 1.383 -0.859L36.484 5.742l1.539 0.539 0.57 -1.523 0.531 1.539 1.547 -0.508 -0.867 1.375 1.359 0.898ZM18.281 30.133l-3.578 0.422 0.359 3.586 -2.563 -2.531 -2.578 2.516 0.383 -3.586 -3.578 -0.453 3.039 -1.938 -1.875 -3.078 3.406 1.172 1.234 -3.391 1.211 3.398 3.414 -1.148 -1.898 3.063 3.031 1.961Z"/></svg>