<svg xmlns="http://www.w3.org/2000/svg" viewBox="0 0 50 37.5" width="50" height="37.5"><path fill="#3f9c35" d="M0.008 0h50v37.5H0.008z"/><path fill="#ed2939" d="M0.008 0h50v25H0.008z"/><path fill="#00b9e4" d="M0.008 0h50v12.5H0.008z"/><path cx="304" cy="240" r="72" fill="#fff" d="M29.375 18.75A5.625 5.625 0 0 1 23.75 24.375A5.625 5.625 0 0 1 18.125 18.75A5.625 5.625 0 0 1 29.375 18.75z"/><path cx="320" cy="240" r="60" fill="#ed2939" d="M29.688 18.75A4.688 4.688 0 0 1 25 23.438A4.688 4.688 0 0 1 20.313 18.75A4.688 4.688 0 0 1 29.688 18.75z"/><path fill="#fff" d="m30 15.625 0.602 1.68 1.609 -0.766 -0.766 1.617L33.125 18.75l-1.68 0.602 0.766 1.609 -1.609 -0.766L30 21.875l-0.602 -1.68 -1.609 0.766 0.766 -1.609L26.875 18.75l1.68 -0.602 -0.766 -1.609 1.609 0.766L30 15.625z"/></svg>