<svg xmlns="http://www.w3.org/2000/svg" viewBox="0 0 50 37.5" width="50" height="37.5"><g stroke-width="1pt"><path fill="#229e45" fill-rule="evenodd" d="M0 0h50v37.5H0z"/><path fill="#f8e509" fill-rule="evenodd" d="m25.109 34.063 23.555 -15.289L24.969 3.438 1.336 18.805 25.109 34.063z"/><path fill="#2b49a3" fill-rule="evenodd" d="M35.375 18.75c0 5.492 -4.461 9.945 -9.969 9.945A9.953 9.953 0 1 1 35.375 18.75z"/><path fill="#ffffef" fill-rule="evenodd" d="m22.133 24.711 -0.313 -0.18 -0.313 0.156 0.07 -0.352 -0.25 -0.266 0.352 -0.039 0.172 -0.313 0.148 0.328 0.344 0.063 -0.258 0.234m6.719 2.055 -0.305 -0.18 -0.313 0.156 0.063 -0.352 -0.242 -0.258 0.352 -0.039 0.164 -0.32 0.156 0.328 0.344 0.063 -0.266 0.242m-2.828 -2.344 -0.266 -0.156 -0.273 0.141 0.063 -0.305 -0.219 -0.227 0.313 -0.031 0.141 -0.281 0.125 0.289 0.305 0.055 -0.234 0.211m6.797 -0.664 -0.266 -0.156 -0.273 0.141 0.063 -0.305 -0.211 -0.219 0.305 -0.031 0.141 -0.273 0.125 0.281 0.297 0.055 -0.227 0.203m-6.82 -1.719 -0.313 -0.172 -0.313 0.156 0.063 -0.359 -0.242 -0.258 0.352 -0.039 0.164 -0.32 0.156 0.328 0.344 0.063 -0.266 0.25m-8.172 -2.734 -0.313 -0.172 -0.313 0.156 0.078 -0.359 -0.258 -0.258 0.359 -0.039 0.156 -0.32 0.156 0.328 0.344 0.063 -0.258 0.242m1.039 4.469 -0.313 -0.18 -0.313 0.156 0.07 -0.352 -0.25 -0.258 0.352 -0.047 0.164 -0.313 0.156 0.328 0.344 0.063 -0.258 0.242m10.313 -5.258 -0.281 -0.156 -0.281 0.141 0.063 -0.313 -0.219 -0.234 0.313 -0.039 0.148 -0.281 0.133 0.297 0.313 0.055 -0.234 0.211m-0.523 2.992 -0.211 -0.125 -0.227 0.109 0.047 -0.25 -0.172 -0.18 0.25 -0.031 0.117 -0.219 0.102 0.234 0.234 0.039 -0.172 0.172m-11.109 3.938 -0.211 -0.117 -0.211 0.102 0.047 -0.234 -0.164 -0.172 0.234 -0.031 0.109 -0.211 0.102 0.219 0.234 0.047 -0.18 0.156M32.734 23.422l-0.172 -0.086 -0.172 0.078 0.039 -0.18 -0.133 -0.125 0.188 -0.023 0.094 -0.156 0.078 0.156 0.195 0.039 -0.148 0.117"/><path fill="#ffffef" fill-rule="evenodd" d="m17.133 22.469 -0.211 -0.117 -0.211 0.102 0.047 -0.234 -0.164 -0.172 0.234 -0.031 0.109 -0.211 0.102 0.219 0.234 0.047 -0.18 0.156"/><path fill="#ffffef" fill-rule="evenodd" d="m17.133 22.469 -0.211 -0.117 -0.211 0.102 0.047 -0.234 -0.164 -0.172 0.234 -0.031 0.109 -0.211 0.102 0.219 0.234 0.047 -0.18 0.156m3.305 0.234 -0.203 -0.109 -0.211 0.102 0.047 -0.234 -0.164 -0.172 0.234 -0.031 0.109 -0.211 0.102 0.219 0.234 0.039 -0.18 0.164m-0.375 1.328 -0.203 -0.117 -0.211 0.109 0.047 -0.234 -0.164 -0.18 0.234 -0.031 0.109 -0.211 0.102 0.219 0.234 0.047 -0.18 0.156m6.828 -1.734 -0.203 -0.125 -0.219 0.109 0.047 -0.234 -0.156 -0.18 0.234 -0.023 0.109 -0.211 0.094 0.219 0.234 0.039 -0.172 0.164m-1.961 0.234 -0.211 -0.117 -0.211 0.109 0.047 -0.234 -0.156 -0.18 0.234 -0.023 0.109 -0.219 0.094 0.227 0.234 0.039 -0.172 0.164m-5.375 -0.453 -0.133 -0.078 -0.133 0.063 0.031 -0.148 -0.102 -0.109 0.148 -0.016 0.063 -0.133 0.063 0.141 0.148 0.023 -0.109 0.102m13.109 3.547 -0.203 -0.117 -0.211 0.109 0.047 -0.234 -0.164 -0.18 0.234 -0.031 0.109 -0.211 0.102 0.219 0.234 0.047 -0.18 0.156m-1.625 0.469 -0.172 -0.109 -0.18 0.094 0.039 -0.203 -0.133 -0.141 0.195 -0.023 0.094 -0.18 0.078 0.188 0.195 0.031 -0.148 0.141m0.813 0.18 -0.156 -0.094 -0.164 0.078 0.031 -0.18 -0.125 -0.133 0.18 -0.023 0.086 -0.156 0.078 0.156 0.18 0.039 -0.133 0.125m2.273 -1.781 -0.156 -0.078 -0.156 0.078 0.039 -0.18 -0.125 -0.133 0.18 -0.023 0.078 -0.156 0.078 0.164 0.164 0.031 -0.125 0.125m-3.031 3.266 -0.195 -0.109 -0.211 0.094 0.047 -0.219 -0.156 -0.156 0.234 -0.023 0.102 -0.195 0.094 0.203 0.234 0.039 -0.18 0.148m0.047 1.109 -0.188 -0.109 -0.188 0.102 0.047 -0.219 -0.148 -0.156 0.211 -0.031 0.094 -0.195 0.086 0.203 0.211 0.039 -0.156 0.156m-1.484 -1.805 -0.148 -0.094 -0.156 0.078 0.031 -0.172 -0.117 -0.133 0.172 -0.016 0.078 -0.156 0.078 0.156 0.172 0.031 -0.125 0.125m-1.391 0.18 -0.156 -0.094 -0.156 0.078 0.039 -0.172 -0.125 -0.133 0.18 -0.016 0.078 -0.156 0.078 0.156 0.164 0.031 -0.125 0.125m-2.375 -1.922 -0.156 -0.086 -0.156 0.078 0.039 -0.18 -0.125 -0.125 0.172 -0.023 0.078 -0.156 0.078 0.156 0.172 0.039 -0.125 0.117m0.289 4.453 -0.125 -0.07 -0.141 0.07 0.031 -0.156 -0.102 -0.109 0.148 -0.016 0.07 -0.133 0.063 0.141 0.148 0.023 -0.109 0.102m-3.609 -6.766 -0.313 -0.18 -0.313 0.156 0.07 -0.352 -0.25 -0.258 0.352 -0.047 0.172 -0.313 0.148 0.328 0.344 0.063 -0.258 0.242"/><path fill="#fff" fill-rule="evenodd" d="M34.719 22.328a9.734 9.734 0 0 0 0.453 -1.547c-5.297 -4.648 -11.195 -7.031 -18.648 -6.539a9.727 9.727 0 0 0 -0.664 1.633c8.828 -0.844 15.313 3.063 18.859 6.453z"/><path fill="#309e3a" d="m32.344 19.719 0.18 0.102a0.266 0.266 0 0 0 -0.023 0.172 0.234 0.234 0 0 0 0.109 0.133c0.055 0.039 0.109 0.063 0.156 0.055 0.047 0 0.078 -0.023 0.102 -0.055a0.102 0.102 0 0 0 0.016 -0.07 0.18 0.18 0 0 0 -0.039 -0.078c-0.016 -0.023 -0.055 -0.078 -0.117 -0.141a0.602 0.602 0 0 1 -0.141 -0.234 0.289 0.289 0 0 1 0.156 -0.344 0.297 0.297 0 0 1 0.18 -0.016 0.547 0.547 0 0 1 0.203 0.094c0.109 0.078 0.18 0.156 0.203 0.25a0.32 0.32 0 0 1 -0.047 0.258l-0.188 -0.117c0.023 -0.047 0.031 -0.094 0.016 -0.133 -0.008 -0.039 -0.039 -0.078 -0.094 -0.109a0.25 0.25 0 0 0 -0.141 -0.055 0.078 0.078 0 0 0 -0.07 0.039c-0.016 0.023 -0.016 0.047 -0.008 0.078s0.047 0.094 0.125 0.172c0.078 0.078 0.125 0.148 0.156 0.195a0.305 0.305 0 0 1 -0.023 0.328 0.32 0.32 0 0 1 -0.148 0.117 0.313 0.313 0 0 1 -0.188 0.023c-0.07 -0.016 -0.141 -0.047 -0.219 -0.102 -0.117 -0.078 -0.188 -0.164 -0.211 -0.258a0.422 0.422 0 0 1 0.047 -0.313zm-0.906 -0.594 0.195 0.102a0.266 0.266 0 0 0 -0.016 0.172 0.234 0.234 0 0 0 0.109 0.125c0.063 0.039 0.109 0.055 0.156 0.047 0.047 0 0.078 -0.023 0.102 -0.063a0.102 0.102 0 0 0 0.016 -0.063c0 -0.023 -0.016 -0.055 -0.039 -0.078a2.703 2.703 0 0 0 -0.125 -0.141c-0.086 -0.086 -0.141 -0.156 -0.156 -0.219a0.289 0.289 0 0 1 0.031 -0.242 0.281 0.281 0 0 1 0.125 -0.109 0.297 0.297 0 0 1 0.172 -0.023 0.547 0.547 0 0 1 0.203 0.078c0.117 0.078 0.188 0.156 0.211 0.242a0.32 0.32 0 0 1 -0.031 0.266l-0.195 -0.109c0.023 -0.055 0.031 -0.094 0.016 -0.133s-0.047 -0.078 -0.102 -0.109a0.25 0.25 0 0 0 -0.148 -0.047 0.078 0.078 0 0 0 -0.063 0.039c-0.016 0.023 -0.016 0.047 -0.008 0.078s0.055 0.094 0.133 0.172c0.078 0.078 0.133 0.141 0.156 0.188a0.305 0.305 0 0 1 0 0.328 0.328 0.328 0 0 1 -0.141 0.125 0.313 0.313 0 0 1 -0.188 0.023 0.625 0.625 0 0 1 -0.227 -0.086 0.469 0.469 0 0 1 -0.219 -0.25 0.422 0.422 0 0 1 0.031 -0.313zm-1.109 -0.297 0.57 -0.938 0.688 0.43 -0.094 0.156 -0.5 -0.313 -0.125 0.211 0.469 0.289 -0.102 0.156 -0.469 -0.289 -0.156 0.258 0.523 0.313 -0.094 0.156 -0.703 -0.43zm-1.617 -1.328 0.086 -0.156 0.422 0.211 -0.195 0.391c-0.063 0.016 -0.141 0.023 -0.234 0.016a0.734 0.734 0 0 1 -0.258 -0.078 0.602 0.602 0 0 1 -0.234 -0.203 0.469 0.469 0 0 1 -0.078 -0.273 0.672 0.672 0 0 1 0.078 -0.289 0.625 0.625 0 0 1 0.203 -0.234 0.484 0.484 0 0 1 0.281 -0.086c0.078 0 0.156 0.023 0.25 0.078 0.125 0.055 0.203 0.133 0.242 0.219a0.391 0.391 0 0 1 0.023 0.273l-0.211 -0.063a0.234 0.234 0 0 0 -0.016 -0.156c-0.023 -0.047 -0.063 -0.078 -0.125 -0.109a0.297 0.297 0 0 0 -0.242 -0.023c-0.078 0.023 -0.148 0.094 -0.203 0.203 -0.055 0.109 -0.078 0.211 -0.055 0.297a0.289 0.289 0 0 0 0.156 0.188c0.039 0.023 0.086 0.039 0.133 0.039a0.469 0.469 0 0 0 0.141 0l0.063 -0.125 -0.227 -0.117zm-7.047 -1.742 0.156 -1.094 0.328 0.055 0.086 0.766 0.305 -0.703 0.328 0.047 -0.156 1.078 -0.211 -0.031 0.133 -0.852 -0.344 0.82 -0.211 -0.031 -0.086 -0.883 -0.125 0.859 -0.203 -0.031zm-1.102 -0.133 0.102 -1.094 0.805 0.078 -0.016 0.188 -0.586 -0.055 -0.023 0.234 0.547 0.055 -0.023 0.188 -0.547 -0.055 -0.023 0.297 0.609 0.055 -0.016 0.188 -0.828 -0.078z"/><g stroke-opacity=".5"><path fill="#309e3a" d="M16.914 14.945c0 -0.117 0.023 -0.203 0.055 -0.281a0.523 0.523 0 0 1 0.109 -0.148 0.422 0.422 0 0 1 0.141 -0.094c0.078 -0.023 0.156 -0.039 0.234 -0.039 0.164 0 0.289 0.063 0.391 0.156a0.578 0.578 0 0 1 0.125 0.43c0 0.172 -0.055 0.313 -0.156 0.414a0.508 0.508 0 0 1 -0.391 0.133 0.516 0.516 0 0 1 -0.375 -0.156 0.57 0.57 0 0 1 -0.133 -0.414z"/><path fill="#f7ffff" d="M17.141 14.945c0 0.117 0.023 0.211 0.078 0.281 0.055 0.063 0.125 0.102 0.219 0.102a0.273 0.273 0 0 0 0.219 -0.086c0.055 -0.063 0.078 -0.156 0.086 -0.289 0 -0.125 -0.016 -0.219 -0.078 -0.281a0.273 0.273 0 0 0 -0.211 -0.102 0.281 0.281 0 0 0 -0.219 0.094c-0.063 0.063 -0.086 0.156 -0.094 0.281z"/></g><g stroke-opacity=".5"><path fill="#309e3a" d="m18.203 15.508 0.016 -1.094h0.469c0.117 0 0.195 0.016 0.25 0.039 0.055 0.016 0.094 0.055 0.125 0.102s0.047 0.109 0.047 0.18a0.297 0.297 0 0 1 -0.078 0.203 0.352 0.352 0 0 1 -0.211 0.094l0.117 0.094c0.031 0.031 0.07 0.094 0.117 0.18l0.133 0.219h-0.266l-0.156 -0.25 -0.109 -0.156a0.164 0.164 0 0 0 -0.07 -0.047 0.391 0.391 0 0 0 -0.109 -0.016h-0.047v0.453H18.203z"/><path fill="#fff" d="M18.438 14.883h0.156c0.109 0 0.18 0 0.203 -0.016 0.023 0 0.047 -0.023 0.063 -0.039s0.023 -0.055 0.023 -0.078c0 -0.047 -0.008 -0.078 -0.031 -0.094 -0.016 -0.023 -0.047 -0.039 -0.078 -0.047h-0.156l-0.18 -0.008v0.273z"/></g><g stroke-opacity=".5"><path fill="#309e3a" d="m19.453 14.469 0.406 0.023c0.086 0 0.156 0.008 0.203 0.023a0.367 0.367 0 0 1 0.156 0.109 0.469 0.469 0 0 1 0.094 0.188c0.023 0.07 0.031 0.156 0.023 0.258a0.727 0.727 0 0 1 -0.039 0.234c-0.031 0.078 -0.078 0.141 -0.133 0.188a0.391 0.391 0 0 1 -0.156 0.078c-0.047 0.016 -0.117 0.016 -0.195 0.016l-0.414 -0.023 0.055 -1.094z"/><path fill="#fff" d="m19.664 14.664 -0.039 0.727h0.297c0.039 0 0.07 -0.016 0.094 -0.039 0.023 -0.023 0.047 -0.055 0.063 -0.102 0.016 -0.047 0.031 -0.117 0.031 -0.203l-0.008 -0.195a0.25 0.25 0 0 0 -0.063 -0.109 0.211 0.211 0 0 0 -0.094 -0.055 1.016 1.016 0 0 0 -0.18 -0.023h-0.102z"/></g><g stroke-opacity=".5"><path fill="#309e3a" d="m24.813 16.422 0.258 -1.063 0.344 0.078 0.25 0.078c0.055 0.031 0.102 0.078 0.125 0.148 0.031 0.063 0.031 0.133 0.016 0.219 -0.016 0.063 -0.039 0.117 -0.078 0.156a0.305 0.305 0 0 1 -0.234 0.109c-0.055 0 -0.133 -0.016 -0.234 -0.039l-0.133 -0.039 -0.094 0.406 -0.219 -0.055z"/><path fill="#fff" d="m25.234 15.594 -0.063 0.297 0.117 0.031c0.078 0.016 0.141 0.031 0.172 0.023a0.148 0.148 0 0 0 0.125 -0.117c0 -0.039 0 -0.07 -0.016 -0.102a0.156 0.156 0 0 0 -0.078 -0.07l-0.148 -0.039 -0.102 -0.023z"/></g><g stroke-opacity=".5"><path fill="#309e3a" d="m25.828 16.727 0.367 -1.031 0.43 0.156c0.117 0.039 0.188 0.078 0.234 0.109 0.039 0.039 0.07 0.078 0.078 0.141s0.016 0.117 0 0.18c-0.031 0.078 -0.078 0.133 -0.141 0.172 -0.063 0.031 -0.141 0.039 -0.234 0.023 0.031 0.039 0.063 0.078 0.078 0.125l0.063 0.211 0.047 0.242 -0.242 -0.086 -0.078 -0.281a1.523 1.523 0 0 0 -0.055 -0.188 0.164 0.164 0 0 0 -0.047 -0.063c-0.016 -0.023 -0.047 -0.039 -0.102 -0.055l-0.039 -0.016 -0.156 0.438 -0.203 -0.078z"/><path fill="#fff" d="m26.25 16.203 0.148 0.055c0.102 0.039 0.164 0.055 0.195 0.055 0.023 0 0.047 0 0.07 -0.023 0.023 -0.016 0.039 -0.039 0.047 -0.07 0.016 -0.031 0.016 -0.063 0 -0.094a0.133 0.133 0 0 0 -0.063 -0.07l-0.156 -0.055 -0.156 -0.055 -0.094 0.258z"/></g><g stroke-opacity=".5"><path fill="#309e3a" d="M27.109 16.688a0.703 0.703 0 0 1 0.133 -0.25 0.516 0.516 0 0 1 0.141 -0.117 0.469 0.469 0 0 1 0.156 -0.055c0.078 0 0.156 0 0.242 0.031a0.508 0.508 0 0 1 0.328 0.258c0.063 0.125 0.063 0.273 0.016 0.445a0.578 0.578 0 0 1 -0.266 0.352c-0.117 0.07 -0.258 0.078 -0.406 0.031a0.516 0.516 0 0 1 -0.328 -0.258 0.57 0.57 0 0 1 -0.016 -0.438z"/><path fill="#fff" d="M27.328 16.75c-0.031 0.117 -0.039 0.219 0 0.297s0.094 0.125 0.18 0.156c0.078 0.023 0.156 0.016 0.234 -0.031 0.078 -0.039 0.125 -0.125 0.164 -0.25 0.039 -0.117 0.039 -0.211 0 -0.289a0.273 0.273 0 0 0 -0.172 -0.156 0.281 0.281 0 0 0 -0.234 0.023c-0.078 0.047 -0.133 0.125 -0.172 0.25z"/></g><g stroke-opacity=".5"><path fill="#309e3a" d="m29.242 18.211 0.5 -0.969 0.414 0.211a0.781 0.781 0 0 1 0.211 0.148c0.039 0.039 0.063 0.086 0.063 0.148s0 0.117 -0.031 0.172a0.297 0.297 0 0 1 -0.156 0.156c-0.078 0.016 -0.156 0.016 -0.242 -0.016 0.031 0.047 0.047 0.094 0.063 0.133 0.016 0.047 0.023 0.117 0.031 0.219l0.016 0.25 -0.234 -0.117 -0.031 -0.289a1.563 1.563 0 0 0 -0.023 -0.195 0.156 0.156 0 0 0 -0.039 -0.078l-0.094 -0.055 -0.039 -0.023 -0.211 0.406 -0.195 -0.102z"/><path fill="#fff" d="m29.727 17.75 0.148 0.078c0.094 0.047 0.156 0.078 0.18 0.078 0.023 0 0.055 0 0.078 -0.016 0.023 -0.008 0.039 -0.031 0.055 -0.063 0.016 -0.031 0.023 -0.063 0.016 -0.094a0.156 0.156 0 0 0 -0.055 -0.078 1.852 1.852 0 0 0 -0.141 -0.078l-0.156 -0.078 -0.125 0.25z"/></g><g stroke-opacity=".5"><path fill="#309e3a" d="M33.289 20.211a0.695 0.695 0 0 1 0.195 -0.203 0.516 0.516 0 0 1 0.172 -0.07 0.43 0.43 0 0 1 0.172 0c0.078 0.016 0.148 0.047 0.219 0.094a0.516 0.516 0 0 1 0.234 0.344c0.023 0.133 -0.016 0.281 -0.109 0.43a0.57 0.57 0 0 1 -0.352 0.258 0.508 0.508 0 0 1 -0.406 -0.086 0.516 0.516 0 0 1 -0.234 -0.344c-0.023 -0.141 0.016 -0.281 0.109 -0.422z"/><path fill="#fff" d="M33.484 20.336c-0.078 0.102 -0.102 0.195 -0.086 0.281a0.281 0.281 0 0 0 0.125 0.195c0.078 0.055 0.156 0.07 0.234 0.047 0.078 -0.023 0.156 -0.078 0.227 -0.188 0.07 -0.109 0.102 -0.203 0.086 -0.281 -0.008 -0.078 -0.055 -0.148 -0.125 -0.203s-0.156 -0.063 -0.234 -0.039c-0.078 0.016 -0.156 0.078 -0.234 0.188z"/></g><path fill="#309e3a" d="m23.578 15.977 0.18 -0.766 0.563 0.133 -0.023 0.125 -0.414 -0.094 -0.039 0.172 0.383 0.086 -0.031 0.133 -0.383 -0.094 -0.047 0.211 0.43 0.102 -0.031 0.125 -0.586 -0.133z"/></g></svg>