<svg xmlns="http://www.w3.org/2000/svg" viewBox="0 0 50 37.5" width="50" height="37.5"><path fill="#fff" d="M11.727 0h26.539v37.5H11.719z"/><path fill="#d52b1e" d="M-1.539 0h13.266v37.5H-1.539zm39.805 0h13.266v37.5H38.273zM15.703 18.125l-1.039 0.344 4.797 4.219c0.367 1.07 -0.125 1.391 -0.438 1.953l5.203 -0.656 -0.125 5.234 1.086 -0.023 -0.242 -5.203 5.211 0.625c-0.32 -0.68 -0.609 -1.039 -0.313 -2.125l4.789 -3.984 -0.836 -0.313c-0.688 -0.531 0.297 -2.547 0.438 -3.82 0 0 -2.789 0.961 -2.969 0.453l-0.719 -1.367 -2.547 2.797c-0.273 0.07 -0.391 -0.039 -0.461 -0.273l1.172 -5.844 -1.859 1.047c-0.156 0.07 -0.313 0.008 -0.406 -0.172l-1.797 -3.594 -1.844 3.734c-0.141 0.133 -0.281 0.148 -0.391 0.055L20.625 10.219l1.07 5.789c-0.086 0.234 -0.289 0.297 -0.523 0.172l-2.438 -2.758c-0.313 0.508 -0.531 1.336 -0.953 1.523 -0.422 0.18 -1.836 -0.352 -2.781 -0.547 0.328 1.156 1.328 3.094 0.703 3.727z"/></svg>