<svg xmlns="http://www.w3.org/2000/svg" xmlns:xlink="http://www.w3.org/1999/xlink" viewBox="0 0 50 37.5" width="50" height="37.5"><path fill="#171796" d="M0 0h50v37.5H0z"/><path fill="#fff" d="M0 0h50v25H0z"/><path fill="red" d="M0 0h50v12.5H0zm25 28.445c4.008 0 7.289 -3.281 7.289 -7.289V12.5H17.711v8.656c0 4.016 3.281 7.297 7.289 7.297z"/><path fill="#fff" d="M25 28.328a7.172 7.172 0 0 0 7.156 -7.148V12.641H17.852V21.172a7.172 7.172 0 0 0 7.148 7.148z"/><g fill="red"><path d="M20.867 12.906H18.125v3.023h2.75zm0 6.047h2.758v-3.023H20.859zM18.125 21.164c0 0.273 0.016 0.547 0.047 0.813h2.703v-3.023H18.125v2.211zm8.258 -2.211h-2.75v3.023h2.75zm0 6.047h2.75v-3.023h-2.75zm2.75 1.656A6.969 6.969 0 0 0 30.703 25h-1.563v1.656zM20.867 25h2.758v-3.023H20.859zm-1.57 0a6.969 6.969 0 0 0 1.57 1.656V25H19.297zm6.18 3.023c0.313 -0.023 0.602 -0.063 0.898 -0.125V25h-2.75v2.898a6.797 6.797 0 0 0 0.891 0.125c0.32 0.023 0.641 0.016 0.961 0z"/><path d="M31.828 21.977c0.031 -0.266 0.047 -0.539 0.047 -0.813v-2.211h-2.75v3.023h2.703zm-5.453 -3.023h2.75v-3.023h-2.75zm0 -6.047h-2.75v3.023h2.75zm5.5 3.023v-3.023h-2.75v3.023z"/></g><path fill="#fff" d="m32.031 12.406 1.703 -3.867 -1.297 -2.094 -2.156 0.797 -1.516 -1.734 -1.984 1.148L25 5.195l-1.773 1.453 -1.992 -1.141 -1.516 1.734 -2.156 -0.805 -1.297 2.109 1.703 3.859a17.016 17.016 0 0 1 7.031 -1.508c2.5 0 4.883 0.539 7.031 1.508z"/><path fill="#0093dd" d="m19.766 7.406 -2.141 -0.781 -1.195 1.93 0.461 1.039 1.156 2.633a17.164 17.164 0 0 1 2.703 -0.938L19.766 7.406z"/><path fill="#fff" stroke="#000" stroke-width="0.0234375" d="M19.641 9.32a1.039 1.039 0 0 1 0.125 0.484c0 0.57 -0.469 1.039 -1.047 1.039a1.047 1.047 0 0 1 -1.023 -0.844 1.047 1.047 0 0 0 0.914 0.539 1.047 1.047 0 0 0 1.031 -1.219z"/><path d="m17.781 8.906 0.078 -0.383 -0.297 -0.25 -0.008 -0.008 0.016 -0.008 0.359 -0.125 0.078 -0.375v-0.016l0.016 0.008 0.289 0.25 0.359 -0.125h0.016v0.016l-0.078 0.375 0.289 0.25 0.016 0.016h-0.023l-0.359 0.125 -0.078 0.375v0.016l-0.008 -0.008 -0.289 -0.25 -0.359 0.125h-0.023z"/><path fill="#f7db17" d="m18.25 8.406 0.273 0.234 0.336 -0.117zm0 -0.016 0.609 0.125 -0.266 -0.234zm-0.648 -0.125 0.609 0.117 -0.273 -0.234zm0.609 0.133 -0.609 -0.117 0.266 0.234zm0.031 -0.023 0.406 -0.469 -0.336 0.117zm-0.438 0.5 0.406 -0.469 -0.336 0.117zm0.414 -0.461 -0.406 0.469 0.336 -0.117zm0.438 -0.5 -0.406 0.469 0.336 -0.117zm-0.438 0.469 -0.203 -0.594 -0.07 0.352zm0.211 0.625 -0.195 -0.586 -0.07 0.352zm-0.188 -0.594 0.203 0.586 0.07 -0.352zm-0.211 -0.625 0.195 0.586 0.078 -0.352z"/><path fill="#171796" d="M23.242 6.828 21.258 5.703 19.766 7.414l0.984 3.875a17.172 17.172 0 0 1 2.82 -0.469l-0.328 -3.992z"/><path fill="red" d="M20.508 10.328a18.148 18.148 0 0 1 2.984 -0.5l-0.078 -1.008a19.188 19.188 0 0 0 -3.156 0.523l0.25 0.984zm-0.492 -1.953a20.156 20.156 0 0 1 3.313 -0.547l-0.086 -0.992a21.148 21.148 0 0 0 -3.477 0.578l0.25 0.961z"/><g transform="translate(-160) scale(.00237)"><path fill="#0093dd" d="m16570.703 2882.031 -1.797 1.016 -743.516 -608.906 -741.953 607.656 139.688 1684.375c198.672 -16.406 399.453 -25.156 602.266 -25.156 203.75 0 405.469 8.828 605 25.391l140.234 -1684.375z"/><g id="a"><path d="M15823.828 3639.453c-1.406 -0.156 -3.438 0.781 -5.391 3.516 -14.531 19.531 -28.047 36.641 -42.578 56.25 -15.234 4.766 -18.906 14.063 -13.047 27.188 -20.391 -2.031 -22.734 15.078 -23.594 33.75 -19.531 -29.609 -40.781 -37.656 -63.594 -23.984 -0.859 -17.969 -14.609 -26.406 -34.297 -30.625 -14.063 -0.781 -24.922 -5.078 -34.063 -11.328 -4.688 -3.281 -8.594 -5 -13.281 -8.281 -9.844 -6.875 -17.656 -0.391 -13.438 5.781 20.859 33.906 41.797 67.813 62.656 101.719 -1.094 6.25 0.469 11.797 6.875 15.938 3.672 10.391 7.266 20.703 10.938 31.016 -0.859 2.969 -1.641 5.859 -2.5 8.828 -17.266 -8.203 -34.609 -9.219 -51.875 -10.391 -13.281 -0.625 -22.422 -3.906 -28.203 -10.703 -4.219 -4.922 -7.109 -2.031 -7.188 6.406 -0.234 41.719 12.656 79.219 46.797 116.563 -18.047 0.313 -36.094 0.859 -54.219 1.641 -6.172 0.469 -7.422 3.047 -5.703 8.125 9.844 23.75 26.484 45.234 64.219 59.844 -16.25 8.75 -25.547 22.266 -27.891 40.625 -0.703 17.5 -5.859 29.844 -16.563 35.547 -4.688 2.5 -6.328 5.078 -1.875 8.281 19.766 14.453 44.141 15.078 69.922 8.75 -12.266 21.094 -17.656 43.203 -15.469 66.406 16.25 4.375 32.188 1.172 47.969 -4.063 -2.266 4.766 -3.438 13.672 -4.063 24.141 -0.547 8.984 -3.203 17.891 -8.125 26.797 -2.5 2.578 -5.078 6.563 0.313 7.969 26.25 7.109 50.625 4.063 71.484 -3.672 0 18.984 0.156 38.047 5.938 56.797 1.406 4.531 5.469 7.969 9.766 2.031 12.109 -16.719 25.156 -30.938 41.172 -40.391 2.422 7.031 5.859 13.125 12.188 16.797 7.5 4.297 11.484 13.281 11.953 26.797 0 2.344 -0.156 4.688 2.734 7.031 11.641 0.547 40.156 -29.688 46.016 -46.641 16.094 9.453 22.188 19.219 34.297 36.016 4.297 5.938 7.734 2.266 10 -1.953 4.844 -18.984 5.234 -37.578 5.156 -56.563 20.859 7.734 45.234 10.781 71.484 3.672 5.391 -1.484 2.813 -5.469 0.313 -7.969 -4.844 -8.906 -8.203 -19.531 -8.828 -28.516 -0.703 -10.391 -1.094 -17.656 -3.359 -22.422 15.781 5.313 31.641 8.438 47.969 4.063 2.266 -23.203 -4.141 -45.234 -16.484 -66.406 25.781 6.25 51.172 5.703 70.938 -8.75 4.453 -3.203 2.734 -5.781 -1.875 -8.281 -10.625 -5.703 -15.859 -18.047 -16.563 -35.547 -2.344 -18.359 -11.641 -31.953 -27.891 -40.625 37.734 -14.609 54.375 -36.172 64.219 -59.844 1.719 -5.156 0.469 -7.734 -5.703 -8.125 -18.047 -0.781 -37.5 -1.875 -55.547 -2.109 34.141 -37.344 47.344 -75.078 47.188 -116.797 -0.078 -8.438 -2.969 -11.406 -7.188 -6.406 -5.781 6.797 -13.984 10.703 -27.188 11.406 -17.344 1.172 -33.984 1.875 -51.25 10 -0.859 -2.969 -1.641 -5.859 -2.5 -8.828 3.594 -10.313 8.281 -20.313 11.953 -30.703 6.406 -4.141 7.969 -9.609 6.875 -15.938 20.859 -33.906 40.078 -67.813 61.016 -101.719 4.219 -6.172 -3.594 -12.656 -13.359 -5.781 -4.688 3.281 -8.594 5 -13.281 8.281 -9.141 6.25 -20.078 10.469 -34.141 11.328 -19.609 4.219 -32.578 13.047 -33.438 31.016 -22.891 -13.672 -44.063 -5.703 -63.594 23.984 -0.859 -18.672 -3.203 -35.703 -23.594 -33.75 5.859 -13.125 1.328 -22.734 -13.906 -27.5 -14.531 -19.531 -35.781 -36.719 -50.313 -56.25 -2.422 -2.734 -3.984 -3.672 -5.391 -3.516z"/><g fill="#f7db17"><path d="M16021.484 3748.281c-3.984 -2.031 -9.688 1.328 -12.656 7.422s-2.578 13.281 1.484 15.313c3.125 1.563 6.563 -0.469 9.297 -4.375l1.719 -2.813c0.156 -0.234 0.313 -0.469 0.391 -0.703 2.969 -6.094 3.828 -12.734 -0.156 -14.688zm-391.25 0c4.063 -2.031 9.688 1.328 12.656 7.422s3.047 12.891 -1.016 14.922 -8.047 -1.875 -11.016 -7.969 -4.688 -12.344 -0.703 -14.375zm354.609 70.703c-2.5 0 -4.609 2.109 -4.609 4.609s2.031 4.609 4.609 4.609 4.609 -2.031 4.609 -4.609c0 -2.5 -2.031 -4.609 -4.609 -4.609zm-315 0a4.617 4.617 0 1 0 0.016 9.234 4.617 4.617 0 0 0 -0.016 -9.234zm335.469 -23.75c-58.906 -7.109 -117.656 -10.391 -176.563 -10.391s-117.891 3.203 -177.266 8.984c-2.031 0.625 -1.641 7.031 1.094 6.719 59.063 -5.703 117.734 -8.828 176.25 -8.828 58.047 0 116.016 3.125 174.063 10.078 3.047 0.313 4.219 -6.25 2.5 -6.563z"/><path d="M15649.922 3788.672c60 -5.859 119.531 -9.141 178.828 -9.063 58.906 0 117.734 3.281 176.641 10.391l8.672 -14.375c-2.5 0.781 -4.844 0.703 -7.031 -0.391 -5.938 -2.969 -7.188 -12.578 -2.813 -21.406 4.375 -8.906 12.813 -13.672 18.75 -10.781 3.047 1.484 4.844 4.844 5.313 8.906l34.844 -57.734c-15.938 10.156 -25.625 16.719 -45.391 19.688 -21.953 3.203 -31.953 10.859 -28.75 23.984 2.969 12.188 -4.453 10.391 -15.703 4.219 -24.531 -13.359 -42.266 5.547 -50.938 27.578 -5.703 14.531 -12.422 14.141 -13.125 -1.016 -0.313 -5.469 0 -10.234 -0.547 -15.625 -1.641 -17.422 -6.953 -22.344 -16.875 -17.5 -12.578 6.094 -13.672 1.953 -10.703 -4.531 2.188 -4.688 6.719 -10 5.156 -17.266 -0.703 -5.234 -5.156 -7.188 -11.797 -7.656 -14.219 -19.063 -36.484 -37.734 -50.703 -56.797 -14.219 19.063 -29.219 37.734 -43.438 56.797 -6.719 0.391 -11.094 2.344 -11.875 7.656 -1.563 7.266 4.063 12.266 6.25 16.953 2.969 6.406 1.797 10.547 -10.703 4.453 -9.922 -4.766 -14.531 -0.234 -16.172 17.188 -0.547 5.391 -0.781 10.859 -1.016 16.328 -0.703 15.156 -7.422 15.547 -13.125 1.016 -8.672 -22.031 -27.5 -40.938 -52.109 -27.578 -11.328 6.172 -15.859 7.969 -14.219 -4.219 1.797 -13.438 -8.359 -20.781 -30.313 -23.984 -19.766 -2.891 -29.453 -9.531 -45.391 -19.688l32.734 53.281c0.938 -1.953 2.266 -3.516 4.141 -4.453 5.938 -2.969 14.375 1.875 18.75 10.781 4.375 8.828 3.125 18.516 -2.813 21.406 -0.781 0.391 -1.641 0.625 -2.5 0.781l7.813 12.734zm342.891 71.172c-0.547 0.234 -0.547 0.313 -1.875 0.859 -3.594 1.484 -6.25 5.156 -10.469 9.688 -4.453 4.688 -10 9.766 -16.484 14.688 -0.938 0.781 -1.953 1.484 -3.438 -0.469s-0.547 -2.734 0.469 -3.438c6.25 -4.844 11.641 -9.688 15.938 -14.219 2.344 -2.5 4.375 -4.922 6.016 -7.188 -7.422 -0.859 -14.844 -1.641 -22.188 -2.344 -6.172 1.875 -12.266 4.297 -17.344 7.422 -4.609 2.734 -8.359 6.016 -10.703 9.766 -0.625 1.094 -1.25 2.109 -3.438 0.859 -2.109 -1.25 -1.484 -2.344 -0.859 -3.438 2.734 -4.531 7.109 -8.359 12.344 -11.484 2.578 -1.563 5.391 -2.969 8.281 -4.219 -8.359 -0.703 -16.719 -1.406 -25.078 -1.953 -1.719 1.016 -3.281 2.266 -4.766 3.672 -1.563 1.484 -3.047 3.281 -4.375 5.234 -0.703 1.016 -1.406 2.031 -3.438 0.625s-1.406 -2.422 -0.625 -3.438c1.484 -2.266 3.203 -4.219 5 -6.016l0.703 -0.703c-6.25 -0.391 -12.578 -0.781 -18.828 -1.094 -0.156 0.156 -0.391 0.391 -0.625 0.547a26.594 26.594 0 0 0 -7.266 9.844c-0.469 1.172 -0.938 2.266 -3.203 1.406 -2.266 -0.938 -1.797 -2.031 -1.328 -3.203 0.938 -2.266 2.109 -4.297 3.516 -6.328 0.625 -0.859 1.406 -1.719 2.109 -2.578 -8.984 -0.391 -17.969 -0.703 -26.875 -0.938 -0.313 0.391 -0.703 0.625 -1.094 0.859 -1.953 1.172 -3.672 2.5 -5.156 3.984s-2.734 3.125 -3.75 4.922c-0.625 1.094 -1.25 2.188 -3.359 0.938 -2.188 -1.25 -1.563 -2.266 -0.938 -3.359 1.25 -2.188 2.734 -4.219 4.609 -6.016 0.547 -0.547 1.094 -1.016 1.641 -1.484 -9.531 -0.156 -19.063 -0.313 -28.516 -0.313 -9.375 0 -18.75 0.078 -28.125 0.234 0.625 0.547 1.172 1.016 1.719 1.563 1.797 1.797 3.281 3.828 4.609 6.016 0.625 1.094 1.25 2.109 -0.938 3.359s-2.734 0.156 -3.438 -0.938c-1.016 -1.797 -2.266 -3.438 -3.75 -4.922s-3.203 -2.813 -5.156 -3.984c-0.469 -0.234 -0.938 -0.547 -1.172 -0.938 -8.984 0.156 -17.969 0.469 -26.953 0.859 0.859 0.859 1.563 1.797 2.266 2.734 1.484 1.953 2.578 4.063 3.516 6.328 0.469 1.172 0.938 2.266 -1.328 3.203s-2.734 -0.234 -3.203 -1.406c-0.703 -1.875 -1.719 -3.594 -2.969 -5.234 -1.172 -1.641 -2.656 -3.203 -4.297 -4.609 -0.313 -0.234 -0.547 -0.469 -0.781 -0.781 -6.328 0.313 -12.656 0.625 -18.984 1.016 0.313 0.313 0.703 0.625 1.016 0.938 1.875 1.797 3.516 3.75 5 6.016 0.703 1.016 1.406 2.031 -0.625 3.438s-2.734 0.391 -3.438 -0.625c-1.406 -2.031 -2.813 -3.75 -4.375 -5.234s-3.203 -2.734 -5 -3.828c-0.078 -0.078 -0.234 -0.156 -0.391 -0.234 -8.594 0.547 -17.188 1.094 -25.781 1.797 3.359 1.406 6.641 2.969 9.531 4.766 5.234 3.125 9.688 6.953 12.344 11.484 0.625 1.094 1.25 2.109 -0.859 3.438 -2.109 1.25 -2.734 0.234 -3.438 -0.859 -2.266 -3.75 -6.094 -7.031 -10.703 -9.766 -5.625 -3.438 -12.422 -6.016 -19.219 -7.969h-0.156c-7.031 0.547 -13.984 1.172 -20.938 1.875 1.719 2.578 3.984 5.313 6.719 8.281 4.297 4.531 9.688 9.375 15.938 14.219 1.016 0.703 1.953 1.484 0.469 3.438s-2.5 1.172 -3.438 0.469c-6.484 -5 -12.109 -10 -16.484 -14.688 -2.891 -2.969 -7.734 -8.672 -10.547 -10.938 -15.313 -7.031 -27.656 -9.922 -44.922 -11.484 -11.953 -1.094 -24.844 -0.703 -35.781 -6.172 2.813 6.641 5.859 12.813 9.844 17.891 4.141 5.313 9.375 9.453 16.328 11.484 0.625 0.156 1.641 1.25 1.719 1.953 2.188 12.266 6.563 22.344 13.203 30.156 4.063 4.688 8.906 8.594 14.688 11.641 -5.859 -6.328 -10.313 -12.969 -13.438 -19.609 -5.234 -11.094 -7.031 -22.344 -6.016 -32.813 0.078 -1.25 0.234 -2.5 2.656 -2.266 2.5 0.234 2.344 1.484 2.266 2.734 -0.859 9.609 0.703 20 5.625 30.234 4.375 9.219 12.422 18.516 22.734 27.031 1.875 1.484 0 4.922 -2.266 4.297 -12.031 -3.438 -22.656 -9.609 -29.922 -18.047 -6.953 -8.125 -11.641 -18.516 -14.063 -31.016 -7.344 -2.5 -12.891 -7.031 -17.344 -12.813 -3.672 -4.688 -6.641 -10.234 -9.219 -16.016 2.188 33.438 14.219 62.578 35.625 88.828 4.766 5.859 12.891 14.219 19.922 16.875 7.188 2.734 7.422 7.813 -1.563 7.891 -2.656 0.078 -5.391 0.078 -8.203 0.078 6.563 2.422 12.813 5.156 18.203 8.203 9.922 5.703 16.953 12.656 17.5 21.328 0.078 1.25 0.156 2.5 -2.266 2.656 -2.5 0.156 -2.578 -1.094 -2.656 -2.266 -0.469 -6.719 -6.406 -12.5 -15 -17.422 -8.828 -5.078 -20.234 -9.141 -31.406 -12.5 -12.031 0 -24.375 -0.078 -35.859 0.234 3.047 2.188 6.25 4.453 10.234 6.563 6.406 3.438 14.688 6.719 26.797 9.531 6.953 1.641 12.969 4.063 18.203 7.109 5.547 3.281 10.156 7.266 13.828 11.719 0.781 0.938 1.563 1.953 -0.391 3.516s-2.656 0.625 -3.516 -0.391c-3.281 -4.063 -7.422 -7.656 -12.422 -10.547 -4.766 -2.813 -10.391 -5 -16.875 -6.563 -12.578 -2.969 -21.25 -6.328 -27.969 -10 -5.859 -3.125 -10.234 -6.406 -14.375 -9.609 14.063 30.703 35.156 44.766 65.234 53.828 1.797 0.547 3.359 1.016 4.766 1.484 0.234 0.078 0.469 0.078 0.703 0.156 6.719 1.641 13.672 3.125 20.781 4.297 7.188 1.172 12.969 2.188 20.391 2.891 1.25 0.078 2.5 0.234 2.266 2.656 -0.234 2.5 -1.484 2.344 -2.656 2.266 -7.734 -0.703 -13.594 -1.719 -20.781 -2.969 -4.531 -0.781 -8.984 -1.641 -13.359 -2.578 -2.031 0.469 -5 0.703 -8.359 0.938 -18.125 1.094 -32.813 17.578 -33.984 38.594 0 0.391 0 0.859 -0.078 1.25 6.875 -6.25 13.984 -12.266 21.328 -16.563 9.141 -5.313 18.672 -8.047 28.438 -5.391 1.172 0.313 2.422 0.625 1.719 3.047 -0.625 2.422 -1.797 2.109 -3.047 1.719 -8.281 -2.188 -16.563 0.234 -24.688 4.922 -8.438 4.922 -16.641 12.344 -24.609 19.766 -1.875 11.484 -6.406 22.266 -16.016 29.453 4.766 2.656 8.125 5.078 12.734 3.516 6.719 -3.047 13.438 -6.094 20.391 -8.438 7.109 -2.422 14.375 -4.063 22.031 -4.453 1.25 -0.078 2.5 -0.078 2.578 2.422s-1.094 2.5 -2.422 2.578c-7.109 0.313 -13.984 1.875 -20.625 4.141 -5.859 2.031 -11.641 4.531 -17.344 7.109 17.266 3.672 35.938 -0.078 52.109 -6.172 4.688 -1.719 8.203 -3.281 10.391 -3.203 3.984 -2.344 8.75 -4.141 13.438 -6.172 5.156 -2.188 10.313 -3.984 14.219 -4.453 1.25 -0.156 2.5 -0.313 2.734 2.188 0.313 2.5 -0.938 2.578 -2.188 2.734 -8.75 1.016 -9.922 1.641 -17.344 6.172 0 1.641 -5.156 4.453 -9.844 7.5 -2.813 1.875 -5.469 4.063 -6.797 5.234 -7.422 6.719 -11.25 14.141 -14.688 22.422 -2.266 5.469 -4.063 11.328 -5.313 17.5 4.297 -8.438 9.453 -16.484 15.703 -23.672 7.344 -8.438 16.25 -15.703 26.953 -20.703 1.094 -0.547 2.266 -1.016 3.281 1.172 1.016 2.266 -0.078 2.734 -1.172 3.281 -10.078 4.688 -18.438 11.484 -25.313 19.531 -7.031 8.047 -12.578 17.344 -17.109 26.953 -2.422 5 -0.625 0.078 -3.281 6.719 8.594 -9.531 16.563 -17.5 25.234 -23.984 10.313 -7.813 22.109 -12.266 32.656 -10.391 1.172 0.234 2.422 0.469 2.031 2.891s-1.641 2.188 -2.891 2.031c-9.063 -1.641 -19.531 2.5 -28.828 9.453 -9.453 7.188 -19.063 17.422 -28.594 28.203 14.375 2.031 28.594 -2.031 42.344 -6.641 7.109 -2.344 14.297 -10.547 18.672 -11.875 1.484 -1.875 2.969 -3.594 4.453 -5.234 2.578 -2.891 5.234 -5.547 7.969 -7.813 0.938 -0.781 1.875 -1.563 3.516 0.313s0.625 2.656 -0.313 3.516c-2.578 2.188 -5.078 4.688 -7.5 7.344 -2.5 2.734 -4.844 5.703 -7.188 8.828 -0.469 0.625 -1.016 1.328 -1.875 1.25 -4.688 5.469 -11.797 12.656 -13.438 18.75 -4.453 16.406 -1.953 28.906 -9.531 45 5.547 -2.969 10 -6.328 13.672 -10.469 4.141 -4.688 7.344 -10.547 10 -17.969 2.891 -8.125 7.422 -15.234 13.047 -21.094 5.859 -6.016 12.891 -10.625 20.391 -13.438 1.172 -0.391 2.344 -0.859 3.203 1.484s-0.313 2.734 -1.484 3.203c-6.797 2.5 -13.203 6.719 -18.594 12.266 -5.156 5.313 -9.297 11.797 -11.953 19.297 -2.891 7.969 -6.328 14.297 -11.016 19.531 -3.438 3.906 -7.422 7.109 -12.188 9.922 4.063 -0.234 6.094 -0.781 9.453 -0.547 6.172 -0.469 16.484 -5.156 21.797 -9.297 5.156 -3.984 9.063 -9.375 12.031 -16.094 0.469 -1.172 1.016 -2.266 3.281 -1.25s1.797 2.109 1.25 3.281c-3.281 7.5 -7.734 13.594 -13.516 18.047 -4.375 3.359 -9.453 5.859 -15.313 7.266 12.578 -0.391 24.297 -3.281 36.484 -7.813 5.078 -1.875 6.797 -13.125 9.922 -16.25 2.5 -4.531 5.156 -8.75 8.203 -12.344 3.672 -4.375 7.891 -7.891 12.813 -9.922 1.172 -0.469 2.266 -0.938 3.203 1.406 0.938 2.266 -0.234 2.734 -1.328 3.203 -4.063 1.641 -7.656 4.688 -10.859 8.438 -2.813 3.281 -5.313 7.266 -7.656 11.484 0.781 5.703 -3.984 17.813 -4.141 23.828 -0.547 16.016 -0.156 31.953 4.141 47.813 4.141 -5.547 8.359 -10.469 12.656 -15 0 -0.391 0 -0.781 0.078 -1.172 1.406 -8.281 2.578 -17.109 3.125 -25.938 0.547 -8.75 0.547 -17.422 -0.469 -25.703 -0.156 -1.25 -0.313 -2.5 2.109 -2.734 2.5 -0.313 2.656 0.938 2.734 2.188 1.094 8.672 1.094 17.656 0.547 26.563 -0.469 7.031 -1.25 14.063 -2.344 21.016 4.219 -3.984 4.141 -3.984 6.016 -8.047 2.891 -6.25 4.609 -12.422 5.234 -18.516 0.703 -6.25 0.391 -12.266 -1.016 -17.969 -0.313 -1.172 -0.547 -2.422 1.875 -2.969s2.734 0.625 2.969 1.875c1.484 6.25 1.953 12.891 1.094 19.688 -0.625 5.078 -1.875 10.313 -3.828 15.547 4.375 -3.281 8.906 -6.406 13.906 -9.531 -0.313 -5.859 -0.391 -11.953 -0.234 -17.734 0.156 -5.313 0.547 -10.469 1.406 -14.844 0.313 -1.563 0.547 -3.125 3.672 -2.578s2.891 2.109 2.578 3.75c-0.703 3.906 -1.094 8.672 -1.25 13.828 -0.156 6.094 0 12.656 0.313 18.984 0.391 6.406 3.828 14.453 9.766 17.969 8.047 4.844 12.344 12.734 14.531 21.406 1.25 -11.328 1.328 -21.875 0.234 -31.25 -1.328 -11.172 -4.297 -20.859 -8.906 -28.75 -0.625 -1.094 -1.25 -2.109 0.938 -3.438 2.109 -1.25 2.734 -0.156 3.359 0.938 4.922 8.594 8.125 18.828 9.531 30.703 1.328 11.406 1.016 24.219 -1.016 38.125 7.969 -6.406 29.766 -20.156 27.5 -46.406 -0.547 -2.109 -1.25 -4.063 -2.188 -5.859 -0.547 -1.094 -1.094 -2.188 1.094 -3.281s2.734 0 3.281 1.094c1.328 2.578 2.344 5.391 3.047 8.594 0.391 1.875 0.625 3.828 0.859 5.938 1.016 -0.547 3.516 -3.359 3.984 -3.047 1.875 1.25 4.531 2.969 6.25 4.219 -1.641 -4.688 -2.734 -9.375 -3.281 -13.906 -0.781 -6.797 -0.391 -13.438 1.094 -19.688 0.313 -1.172 0.547 -2.422 2.969 -1.875s2.109 1.797 1.875 2.969c-1.406 5.703 -1.719 11.797 -1.016 17.969 0.703 6.016 2.422 12.266 5.234 18.516 0.313 0.625 0.625 1.25 0.391 1.953 1.875 1.641 3.672 3.281 5.469 5.078 -1.016 -6.563 -1.719 -13.281 -2.188 -19.922 -0.625 -8.984 -0.547 -17.969 0.547 -26.641 0.156 -1.25 0.313 -2.5 2.734 -2.188s2.266 1.563 2.109 2.734c-1.016 8.281 -1.016 16.953 -0.469 25.703 0.547 8.828 1.719 17.578 3.125 25.938 0.078 0.156 0.078 0.391 0.078 0.547 4.219 4.609 7.422 9.375 11.875 15.313 4.297 -15.859 5.703 -31.797 5.156 -47.813 -0.156 -5.938 -5.391 -17.734 -5.078 -23.594 -2.344 -4.297 -4.922 -8.359 -7.813 -11.797 -3.203 -3.828 -6.797 -6.797 -10.859 -8.438 -1.172 -0.469 -2.266 -0.938 -1.406 -3.203 0.938 -2.266 2.109 -1.875 3.203 -1.406 4.844 2.031 9.141 5.547 12.813 9.922 2.969 3.516 5.625 7.656 8.047 12.031 4.453 0.547 6.094 13.984 11.172 16.563 12.031 4.453 23.281 7.344 35.391 7.813 -5.859 -1.484 -10.938 -3.906 -15.234 -7.266 -5.781 -4.453 -10.234 -10.547 -13.516 -18.047 -0.469 -1.172 -1.016 -2.266 1.25 -3.281s2.734 0.156 3.281 1.25c2.969 6.719 6.875 12.188 12.031 16.094 6.641 5.156 22.578 9.688 31.25 9.922 -4.766 -2.891 -8.828 -6.094 -12.266 -10 -4.609 -5.234 -8.125 -11.563 -11.016 -19.531 -2.656 -7.422 -6.797 -13.984 -11.953 -19.297a50.156 50.156 0 0 0 -18.594 -12.266c-1.172 -0.469 -2.266 -0.859 -1.484 -3.203 0.859 -2.266 2.031 -1.875 3.203 -1.484 7.5 2.813 14.531 7.344 20.391 13.438 5.625 5.781 10.156 12.969 13.047 21.094 2.656 7.422 5.859 13.203 10 17.969 3.672 4.219 8.203 7.656 13.828 10.547 -7.656 -16.172 -5.156 -28.672 -9.531 -45.078 -2.734 -10.078 -18.125 -21.641 -15.078 -25 3.516 -3.984 10.391 6.875 19.375 9.922 13.672 4.609 27.891 8.672 42.188 6.641 -9.531 -10.781 -19.063 -21.016 -28.594 -28.203 -9.297 -7.031 -18.516 -10.938 -27.5 -9.375 -1.25 0.234 -2.422 0.469 -2.891 -2.031 -0.391 -2.422 0.781 -2.656 2.031 -2.891 10.547 -1.875 21.016 2.5 31.328 10.313 8.672 6.563 15.703 13.672 24.297 23.281 -1.406 -3.672 0 -1.094 -2.344 -6.016 -4.609 -9.609 -10.156 -18.828 -17.188 -26.953 -6.953 -7.969 -15.313 -14.766 -25.313 -19.531 -1.094 -0.547 -2.188 -1.016 -1.172 -3.281 1.016 -2.188 2.188 -1.719 3.281 -1.172 10.703 5.078 19.609 12.266 26.953 20.703 6.328 7.266 11.484 15.469 15.859 23.984 -1.172 -6.328 -3.047 -12.266 -5.313 -17.734 -3.438 -8.281 -7.266 -15.703 -14.688 -22.422 -4.844 -4.375 -16.328 -10.938 -16.25 -13.984 -2.266 -1.172 -2.578 -0.859 -4.922 -1.875 -4.766 -2.031 -9.453 -3.594 -12.813 -4.063 -1.25 -0.156 -2.5 -0.313 -2.188 -2.734 0.313 -2.5 1.484 -2.344 2.734 -2.188 3.906 0.469 8.984 2.188 14.219 4.375 2.578 1.094 5.156 3.359 7.656 4.688 4.141 0.313 10.859 3.672 16.25 5.781 16.094 6.094 34.844 9.844 52.031 6.172 -5.703 -2.578 -11.484 -5.078 -17.422 -7.109 -6.641 -2.266 -13.438 -3.828 -20.625 -4.141 -1.25 -0.078 -2.5 -0.078 -2.422 -2.578s1.328 -2.422 2.578 -2.422c7.656 0.313 14.922 2.031 22.031 4.453 6.953 2.344 13.672 5.391 20.391 8.438 4.609 2.109 7.891 -0.547 12.734 -3.516 -9.609 -7.188 -14.141 -17.969 -16.016 -29.375l-0.156 -0.156c-7.969 -7.422 -16.172 -14.844 -24.609 -19.766 -8.125 -4.688 -16.406 -7.109 -24.688 -4.922 -1.172 0.313 -2.422 0.625 -3.047 -1.719 -0.625 -2.422 0.547 -2.734 1.719 -3.047 9.766 -2.578 19.297 0.078 28.438 5.391 7.344 4.297 14.531 10.313 21.406 16.641 0 -0.469 -0.078 -0.859 -0.078 -1.328 -1.172 -21.094 -15.859 -37.5 -33.984 -38.594 -6.094 -0.391 -14.766 1.641 -14.531 -2.5 0.313 -4.609 7.578 -3.438 18.281 -6.719 30.078 -9.063 51.172 -23.125 65.313 -53.906 -4.219 3.203 -8.594 6.484 -14.531 9.688 -6.719 3.672 -15.469 7.109 -27.969 10 -6.406 1.484 -12.031 3.75 -16.875 6.563 -5 2.969 -9.141 6.563 -12.422 10.547 -0.781 0.938 -1.563 1.953 -3.516 0.391s-1.094 -2.5 -0.391 -3.516c3.672 -4.453 8.281 -8.438 13.828 -11.719 5.234 -3.047 11.328 -5.469 18.203 -7.109 12.109 -2.813 20.391 -6.094 26.797 -9.531 3.984 -2.109 7.188 -4.297 10.234 -6.563 -11.563 -0.313 -23.828 -0.234 -35.859 -0.234 -11.172 3.438 -22.578 7.5 -31.406 12.5 -8.594 4.922 -14.531 10.625 -15 17.422 -0.078 1.25 -0.156 2.5 -2.656 2.266 -2.5 -0.156 -2.422 -1.406 -2.266 -2.656 0.625 -8.672 7.578 -15.625 17.5 -21.328 5.391 -3.047 11.641 -5.781 18.203 -8.203 -2.734 0 -5.469 0 -8.125 -0.078 -9.063 -0.156 -8.75 -5.156 -1.563 -7.891 7.031 -2.656 14.844 -11.016 19.609 -16.875 21.172 -26.094 32.188 -55.781 35.625 -88.281 -2.578 5.625 -5.391 10.938 -8.984 15.469 -4.453 5.703 -10 10.234 -17.344 12.813 -2.422 12.5 -7.109 22.891 -14.063 31.016 -7.188 8.438 -16.875 14.453 -28.828 17.969 -2.266 0.625 -4.063 -2.734 -2.266 -4.297 10.313 -8.516 17.266 -17.656 21.719 -26.875 4.844 -10.234 6.484 -20.625 5.625 -30.234 -0.078 -1.25 -0.234 -2.5 2.266 -2.734 2.422 -0.234 2.578 1.016 2.656 2.266 0.938 10.469 -0.781 21.719 -6.094 32.813 -3.125 6.641 -7.578 13.281 -13.438 19.609 5.703 -3.047 10.625 -6.953 14.609 -11.641 6.641 -7.813 11.016 -17.891 13.281 -30.156 0.078 -0.625 1.094 -1.719 1.719 -1.953 6.953 -2.109 12.109 -6.172 16.328 -11.484 3.984 -5.078 7.031 -11.172 9.844 -17.813 -10.938 5.391 -23.75 5 -35.703 6.094 -16.641 1.484 -28.828 5.313 -43.281 11.875z"/><path d="M15988.203 3846.172c-53.125 -6.875 -106.172 -8.828 -159.453 -8.906 -53.438 0 -106.953 3.125 -160.781 8.75 -1.563 0.469 -1.172 2.578 -1.094 3.594 0.156 2.188 2.891 2.734 9.453 2.109 50.234 -4.688 100.391 -7.266 150.938 -7.266 52.656 0 105.547 1.641 159.219 7.969 2.578 0.703 6.016 -6.641 1.719 -6.328z"/><path fill-rule="evenodd" d="M15669.531 3840.625c53.359 -5.547 106.406 -8.594 159.219 -8.594 52.734 0 105.391 3.125 158.203 9.922l2.422 -9.922c-1.328 0.703 -2.891 1.172 -4.531 1.172a9.609 9.609 0 1 1 8.828 -13.359l4.688 -13.281c-56.563 -6.563 -112.969 -9.531 -169.609 -9.531 -56.953 0 -113.984 2.969 -171.328 8.359l4.531 12.813c1.719 -2.5 4.609 -4.219 7.891 -4.219a9.609 9.609 0 1 1 0 19.219c-0.938 0 -1.953 -0.156 -2.813 -0.469l2.578 7.344 -0.156 0.547zm239.609 -32.5a9.609 9.609 0 1 0 0 19.219 9.609 9.609 0 1 0 0 -19.219zm0 5a4.617 4.617 0 0 0 0 9.219c2.5 0 4.609 -2.109 4.609 -4.609s-2.031 -4.609 -4.609 -4.609zm-84.531 -7.109a9.609 9.609 0 1 0 9.609 9.609c0 -5.313 -4.297 -9.609 -9.609 -9.609zm0 5a4.617 4.617 0 1 0 0.016 9.234 4.617 4.617 0 0 0 -0.016 -9.234zm-83.125 -3.125a9.609 9.609 0 1 0 -0.016 19.203 9.609 9.609 0 0 0 0.016 -19.203zm0 5c-2.578 0 -4.609 2.031 -4.609 4.609s2.031 4.609 4.609 4.609a4.617 4.617 0 0 0 0 -9.219z"/></g><path d="M15828.203 3747.969c-1.094 -5.313 -3.828 -10.078 -7.813 -13.672 -3.984 -3.672 -9.063 -6.094 -14.609 -6.875 -2.578 -0.313 -3.047 -4.531 -0.547 -5.313 4.688 -1.563 8.906 -5.234 12.266 -10.391 3.516 -5.391 6.172 -12.266 7.422 -20 0.391 -2.656 5 -2.734 5.391 -0.078 1.172 6.563 3.984 11.953 7.578 16.25 4.297 5.156 9.766 8.75 15.078 10.781 2.422 0.938 1.953 4.922 -0.625 5.313 -4.609 0.703 -8.203 3.281 -11.016 6.797 -3.906 4.844 -6.328 11.328 -7.813 17.266 -0.625 2.578 -4.844 2.422 -5.391 -0.156zm2.578 -9.219c1.563 -4.063 3.672 -8.047 6.328 -11.406 2.188 -2.656 4.688 -5 7.734 -6.563 -3.984 -2.344 -7.813 -5.469 -11.172 -9.375 -2.188 -2.656 -4.141 -5.703 -5.703 -9.063 -1.484 4.609 -3.516 8.75 -5.859 12.344 -2.422 3.672 -5.234 6.719 -8.438 9.063 3.906 1.484 7.422 3.672 10.469 6.406 2.656 2.422 4.922 5.313 6.641 8.594zm62.422 399.609 -40.234 16.094c-1.328 0.547 -2.734 1.094 -3.75 -1.641 -1.094 -2.656 0.313 -3.203 1.641 -3.75l40.234 -16.094c1.328 -0.547 2.734 -1.094 3.75 1.641 1.094 2.656 -0.313 3.203 -1.641 3.75zm4.609 -25.469 -47.188 25.625c-1.25 0.703 -2.578 1.406 -3.984 -1.172s-0.078 -3.281 1.172 -3.984l47.188 -25.625c1.25 -0.703 2.578 -1.406 3.984 1.172s0.078 3.281 -1.172 3.984zm-142.656 -5.078 47.188 25.625c1.25 0.703 2.578 1.406 1.172 3.984s-2.656 1.875 -3.984 1.172l-47.188 -25.625c-1.25 -0.703 -2.578 -1.406 -1.172 -3.984s2.656 -1.875 3.984 -1.172zm3.984 25.156 40.234 16.094c1.406 0.547 2.734 1.094 1.641 3.75 -1.094 2.734 -2.422 2.188 -3.828 1.641l-40.234 -16.094c-1.328 -0.547 -2.656 -1.094 -1.641 -3.75 1.094 -2.734 2.422 -2.188 3.75 -1.641zm17.5 33.906c10.703 2.578 20.391 3.75 27.969 2.422 6.875 -1.25 12.109 -4.688 14.922 -11.406v-38.516c-8.359 -0.078 -16.563 -1.172 -23.672 -3.203 -8.516 -2.422 -13.281 -7.656 -15.703 -13.906 -3.203 -8.359 -2.109 -18.359 -0.313 -25.703 0.391 -1.406 0.703 -2.813 3.516 -2.109s2.5 2.109 2.109 3.516c-1.563 6.406 -2.578 15.156 0.078 22.188 1.797 4.688 5.391 8.594 11.875 10.391 7.109 1.953 15.469 2.969 23.984 2.969 8.359 0 16.719 -1.016 23.75 -3.125 6.406 -1.875 11.563 -5.391 15 -9.609s5.078 -9.141 4.453 -13.75c-0.391 -2.813 -1.875 -4.844 -3.828 -6.25 -2.656 -1.875 -6.406 -2.734 -10 -2.891 -3.672 -0.156 -7.344 0.547 -11.094 1.25 -1.953 0.391 -3.906 0.703 -6.016 1.016 -1.484 0.156 -2.891 0.391 -3.281 -2.5s1.094 -3.125 2.5 -3.281c1.797 -0.234 3.75 -0.625 5.703 -0.938 4.063 -0.781 8.203 -1.563 12.422 -1.406 4.688 0.156 9.453 1.406 13.125 3.984 3.281 2.266 5.625 5.625 6.25 10.234 0.859 6.25 -1.25 12.734 -5.703 18.203 -4.141 5.078 -10.234 9.297 -17.891 11.484 -6.484 1.875 -13.906 2.969 -21.406 3.281v37.734c0.234 0.391 0.234 0.859 0.156 1.25 2.891 6.406 7.969 9.766 14.688 11.016 7.578 1.406 17.266 0.156 27.969 -2.422 1.406 -0.391 2.813 -0.703 3.516 2.109 0.625 2.891 -0.703 3.203 -2.188 3.516 -11.406 2.734 -21.797 3.984 -30.313 2.5 -7.188 -1.328 -12.891 -4.531 -16.797 -10.313 -3.828 5.781 -9.688 8.984 -16.797 10.313 -8.516 1.563 -18.906 0.313 -30.313 -2.5 -1.406 -0.313 -2.891 -0.625 -2.188 -3.516 0.625 -2.813 2.109 -2.5 3.516 -2.109zm27.813 16.406 31.406 -0.703c1.484 0 2.969 -0.078 2.969 2.891 0.078 2.969 -1.406 2.969 -2.891 2.969l-31.406 0.703c-1.484 0 -2.891 0.078 -2.969 -2.891s1.406 -2.969 2.891 -2.969zm46.328 -240.781c11.797 -9.766 22.891 -17.734 33.047 -23.203 10.391 -5.625 19.844 -8.672 28.047 -8.281 1.484 0.078 2.891 0.078 2.813 3.047 -0.078 2.891 -1.563 2.891 -3.047 2.813 -7.188 -0.313 -15.625 2.5 -25.156 7.578 -9.766 5.234 -20.547 12.969 -32.031 22.578 -1.094 0.938 -2.266 1.875 -4.141 -0.391s-0.703 -3.203 0.391 -4.141zm-47.266 4.375c-11.016 -10.156 -23.281 -18.75 -34.766 -24.531 -10.859 -5.547 -20.938 -8.438 -28.359 -7.813 -1.484 0.156 -2.891 0.313 -3.125 -2.656 -0.313 -2.891 1.172 -3.047 2.656 -3.125 8.594 -0.781 19.688 2.422 31.563 8.359 11.875 6.016 24.609 14.922 36.016 25.391 1.094 1.016 2.188 1.953 0.156 4.141 -1.953 2.109 -3.047 1.172 -4.141 0.156zm-16.641 78.438c2.891 -6.484 6.484 -12.109 10.625 -17.109 4.141 -4.922 8.75 -9.297 13.594 -13.281 1.094 -0.938 2.266 -1.875 4.063 0.391 1.875 2.266 0.703 3.203 -0.391 4.141 -4.609 3.75 -8.906 7.891 -12.813 12.5 -3.828 4.609 -7.109 9.766 -9.766 15.703 -0.625 1.328 -1.172 2.656 -3.828 1.484s-2.109 -2.5 -1.484 -3.828zm28.984 -135.469c3.828 5.156 6.875 10.859 8.906 17.422 2.031 6.406 3.125 13.672 3.047 21.797 0.391 6.25 0.469 12.891 -0.547 19.453 -1.016 6.719 -3.281 13.281 -7.578 19.219 -3.359 4.688 -7.891 7.578 -12.891 8.828 -4.141 1.016 -8.516 0.781 -12.813 -0.547 2.266 7.813 3.984 16.25 0.469 24.063 -0.625 1.406 -2.578 2.109 -3.984 1.406 -3.359 -1.719 -6.719 -3.359 -10 -4.844s-6.563 -2.813 -9.922 -3.984l-0.078 -0.078c-7.422 -2.891 -13.516 -5.703 -18.438 -8.75 -5.078 -3.047 -8.984 -6.25 -11.719 -9.688l0.078 0.156c-3.438 -3.828 -5.625 -8.281 -6.875 -13.281 -1.094 -4.297 -1.563 -8.906 -1.719 -13.594 -5.625 -3.047 -10.781 -6.094 -15.156 -9.063 -5 -3.359 -9.219 -6.797 -12.578 -10.234 -1.016 -1.094 -2.031 -2.109 0.078 -4.141s3.125 -0.938 4.141 0.078c3.047 3.125 6.953 6.25 11.719 9.453 4.688 3.125 10 6.328 15.938 9.453 9.688 1.016 19.297 3.984 28.906 8.516 8.281 3.906 16.484 8.984 24.766 15 1.016 0.547 1.484 1.25 2.109 1.563 0.625 0.469 1.25 1.016 1.953 1.484 3.984 1.719 8.125 2.188 11.875 1.25 3.672 -0.859 7.031 -3.047 9.531 -6.563 3.75 -5.156 5.625 -10.859 6.563 -16.719 0.938 -6.016 0.859 -12.266 0.469 -18.281v-0.156c0.078 -7.578 -0.938 -14.297 -2.734 -20.156 -1.875 -5.938 -4.531 -11.094 -7.969 -15.703 -0.859 -1.172 -1.719 -2.344 0.547 -4.063s3.203 -0.547 4.063 0.547zm-29.297 81.797c-8.125 -6.016 -16.172 -11.016 -24.297 -14.844 -8.203 -3.828 -16.406 -6.484 -24.531 -7.656 0.156 3.75 0.625 7.266 1.406 10.547 1.016 4.063 2.734 7.734 5.547 10.781l0.078 0.078c2.344 2.891 5.703 5.625 10.156 8.359 4.688 2.813 10.469 5.547 17.578 8.281l-0.078 -0.078c3.516 1.25 6.953 2.656 10.391 4.219 2.422 1.094 4.766 2.188 7.266 3.438 1.484 -6.484 -0.781 -13.984 -2.891 -20.859 -0.156 -0.625 -0.391 -1.172 -0.703 -2.266zm60.625 -78.359c-3.438 4.609 -6.172 9.766 -7.969 15.703 -1.875 5.938 -2.813 12.578 -2.734 20.156v0.156c-0.391 6.016 -0.469 12.344 0.469 18.281 0.938 5.859 2.891 11.563 6.563 16.719 2.5 3.516 5.859 5.625 9.531 6.563 3.75 0.938 7.891 0.469 11.875 -1.25l1.953 -1.484c0.469 -0.313 1.016 -0.938 2.109 -1.563 8.203 -6.016 16.484 -11.172 24.766 -15 9.609 -4.531 19.219 -7.422 28.906 -8.516 5.859 -3.125 11.25 -6.25 15.938 -9.453s8.672 -6.328 11.641 -9.453c1.016 -1.016 2.031 -2.109 4.141 -0.078s1.094 3.047 0 4.141c-3.359 3.438 -7.578 6.875 -12.578 10.234 -4.453 2.969 -9.531 6.016 -15.156 9.063 -0.156 4.766 -0.625 9.297 -1.719 13.594 -1.25 4.922 -3.438 9.453 -6.875 13.281l0.078 -0.156c-2.734 3.438 -6.641 6.641 -11.719 9.688 -4.922 2.969 -11.016 5.859 -18.516 8.75l-0.078 0.078c-3.359 1.172 -6.641 2.5 -9.922 3.984 -3.359 1.484 -6.641 3.125 -10 4.844 -1.406 0.703 -3.359 0 -3.984 -1.406 -3.516 -7.813 -1.797 -16.25 0.469 -24.063 -4.297 1.406 -8.672 1.563 -12.813 0.547 -5 -1.172 -9.531 -4.141 -12.891 -8.828 -4.297 -5.938 -6.563 -12.5 -7.578 -19.219 -1.016 -6.641 -0.938 -13.203 -0.547 -19.453 -0.078 -8.125 1.016 -15.313 3.047 -21.797 2.031 -6.563 5.078 -12.344 8.906 -17.422 0.859 -1.172 1.719 -2.344 4.063 -0.547 2.344 1.719 1.484 2.891 0.547 4.063zm73.438 55.859c-8.203 1.172 -16.328 3.828 -24.531 7.656 -8.125 3.828 -16.172 8.828 -24.297 14.844 -0.313 1.016 -0.469 1.641 -0.625 2.266 -2.109 6.875 -4.375 14.375 -2.891 20.859 2.422 -1.172 4.844 -2.344 7.266 -3.438 3.438 -1.563 6.797 -2.969 10.391 -4.219l-0.078 0.078c7.109 -2.734 12.891 -5.469 17.578 -8.281 4.531 -2.656 7.813 -5.469 10.234 -8.359l0.078 -0.078c2.734 -3.047 4.453 -6.719 5.547 -10.781 0.859 -3.281 1.25 -6.797 1.484 -10.547z"/><path fill-rule="evenodd" d="M15895.234 3953.281a16.906 16.906 0 0 0 0 33.828 16.922 16.922 0 0 0 0 -33.828zm0 5.391c-6.328 0 -11.484 5.156 -11.484 11.484s5.156 11.484 11.484 11.484 11.484 -5.156 11.484 -11.484 -5.156 -11.484 -11.484 -11.484zm0 4.688a6.797 6.797 0 1 0 0.008 13.602 6.797 6.797 0 0 0 -0.008 -13.602zm-132.578 -9.688c9.297 0 16.953 7.578 16.953 16.875s-7.578 16.953 -16.953 16.953a16.922 16.922 0 0 1 0 -33.828zm0 5.391c6.328 0 11.484 5.156 11.484 11.484s-5.156 11.484 -11.484 11.484 -11.484 -5.156 -11.484 -11.484 5.156 -11.484 11.484 -11.484zm0 4.688a6.797 6.797 0 1 1 -0.008 13.602 6.797 6.797 0 0 1 0.008 -13.602z"/></g><use xlink:href="#a" width="100%" height="100%" transform="rotate(-2.2 -55532.8 156275.8)"/><use xlink:href="#a" width="100%" height="100%" transform="rotate(2.2 459865.8 156275.8)"/></g><path fill="#171796" d="m30.25 7.414 -1.508 -1.719 -1.969 1.133 -0.336 3.992a17.164 17.164 0 0 1 2.828 0.469L30.25 7.422z"/><path d="M27.164 7.656c0.063 -0.016 0.133 -0.016 0.203 0.023 0.023 0.008 0.047 0.023 0.063 0.047 0.031 -0.023 0.055 -0.047 0.094 -0.063a0.313 0.313 0 0 1 0.141 -0.078c0.07 -0.039 0.141 -0.063 0.211 -0.07h0.219c0.063 0 0.125 0.016 0.18 0.047l0.156 0.078c0.063 0.031 0.117 0.063 0.172 0.078a0.711 0.711 0 0 0 0.352 0.039c0.031 -0.016 0.055 0.008 0.016 0.031 -0.258 0.156 -0.461 0.016 -0.633 -0.047a1.266 1.266 0 0 1 0.164 0.133c0.063 0.063 0.141 0.125 0.273 0.188a0.656 0.656 0 0 0 0.391 0.055l0.031 0.008 -0.008 0.039a0.375 0.375 0 0 1 -0.203 0.055 0.781 0.781 0 0 1 -0.406 -0.102c-0.109 -0.055 -0.18 -0.125 -0.258 -0.188a0.586 0.586 0 0 0 -0.234 -0.109 0.469 0.469 0 0 0 -0.227 0c0.023 0.008 0.039 0.016 0.047 0.031 0.039 0.023 0.078 0.031 0.156 0.039 0.031 0 0.016 0.023 -0.039 0.055a0.156 0.156 0 0 1 -0.125 0.063c-0.078 0.047 -0.102 0.016 -0.133 -0.016 0 0.023 0 0.039 -0.016 0.063a0.047 0.047 0 0 1 0 0.031l0.016 0.055c0 0.016 0 0.023 0.016 0.031 0.016 0.016 0.023 0.031 0.023 0.055 0 0.016 0.008 0.023 0.023 0.031l0.047 0.047c0.047 0.016 0.063 0.055 0.078 0.094 0.031 0.016 0.047 0.039 0.055 0.07 0.016 0 0.031 0.016 0.047 0.031l0.203 0.008c0.063 0.008 0.109 0.047 0.156 0.094h0.094a0.313 0.313 0 0 1 0.102 -0.023h0.18c0.039 0.016 0.07 0.031 0.094 0.063 0.039 0.039 0.094 0.031 0.141 0.016a0.211 0.211 0 0 1 0.188 0 0.18 0.18 0 0 1 0.078 -0.016c0.031 -0.023 0.055 -0.031 0.078 -0.031 0.047 0 0.078 0 0.07 0.063 0 0.016 -0.016 0.031 -0.023 0.031 -0.023 0.047 -0.055 0.055 -0.102 0.055 -0.008 0.031 -0.023 0.055 -0.039 0.063 0.023 0.07 0 0.102 -0.055 0.094 0 0.023 -0.023 0.031 -0.047 0.031a0.109 0.109 0 0 1 -0.078 0.039l0.031 0.047c0.031 0.055 -0.016 0.078 -0.063 0.078v0.094c0.055 0.031 0.063 0.063 0.016 0.094 0.031 0.055 0.023 0.102 -0.039 0.125 0 0.031 0 0.063 -0.023 0.078 -0.016 0.016 -0.039 0.023 -0.023 0.047 0.023 0.039 0.016 0.086 -0.016 0.094l-0.016 0.008 -0.016 0.016a0.75 0.75 0 0 0 -0.117 0.078c-0.008 0 -0.016 0.008 -0.016 0a0.75 0.75 0 0 1 -0.141 0.188c0 0.039 -0.031 0.078 -0.078 0.086a0.031 0.031 0 0 1 -0.023 0.031c0.023 0.023 0.039 0.047 0.016 0.078a0.234 0.234 0 0 1 -0.102 0.063c-0.078 0.023 -0.133 0.016 -0.156 -0.016 -0.031 -0.023 -0.023 -0.047 0 -0.055 -0.055 0 -0.063 -0.016 -0.063 -0.055 0 -0.016 0.008 -0.016 0.023 -0.008 0.031 0 0.055 -0.016 0.078 -0.023l0.039 -0.047c0 -0.055 0.039 -0.078 0.086 -0.102 0.039 -0.016 0.078 -0.047 0.109 -0.094l0.07 -0.117a0.094 0.094 0 0 1 -0.023 -0.055 0.117 0.117 0 0 1 -0.039 -0.047c-0.039 0 -0.055 -0.016 -0.055 -0.039a0.086 0.086 0 0 1 -0.023 0c-0.023 0.008 -0.039 0.023 -0.055 0.016a0.539 0.539 0 0 1 -0.086 0.078c-0.016 0.023 -0.031 0.039 -0.055 0.039 -0.078 0.008 -0.117 0.094 -0.156 0.133 -0.016 0.008 -0.023 0.031 -0.031 0.055 0 0.047 -0.008 0.078 -0.031 0.078h-0.031a0.094 0.094 0 0 0 -0.031 0c0.023 0.023 0.023 0.047 0 0.07 -0.008 0.023 -0.031 0.031 -0.063 0.031a0.281 0.281 0 0 1 -0.125 -0.016c-0.031 -0.016 -0.039 -0.039 -0.039 -0.055 -0.023 -0.016 -0.031 -0.023 -0.023 -0.039 0 -0.016 0.016 -0.023 0.031 -0.016l0.047 -0.016a0.406 0.406 0 0 1 0.141 -0.109 0.234 0.234 0 0 1 0.055 -0.055c0 -0.039 0.039 -0.078 0.078 -0.109l0.008 -0.047v-0.023c-0.016 -0.023 -0.023 -0.055 -0.008 -0.078a0.102 0.102 0 0 1 0 -0.047c-0.086 0.047 -0.117 0.031 -0.125 -0.008 -0.031 0.023 -0.063 0.039 -0.078 0 -0.031 0.008 -0.063 0.023 -0.094 0.008l-0.063 0.016 -0.031 0.055c0 0.039 -0.016 0.078 -0.039 0.117a0.727 0.727 0 0 1 -0.055 0.117 0.078 0.078 0 0 1 -0.008 0.039c0 0.047 -0.016 0.07 -0.039 0.078a0.188 0.188 0 0 1 -0.031 0.063v0.016c0.008 0.023 0.008 0.055 -0.016 0.078l-0.078 0.047h-0.078c-0.031 -0.023 -0.031 -0.031 -0.023 -0.047a0.047 0.047 0 0 1 -0.039 0l-0.031 -0.023c-0.008 -0.016 -0.008 -0.031 0.008 -0.039l0.07 -0.047c0 -0.016 0.016 -0.023 0.031 -0.031 0.016 -0.031 0.031 -0.047 0.047 -0.055l0.055 -0.117c0.008 -0.008 0.016 -0.023 0.008 -0.031l0.008 -0.023s0.016 -0.008 0 -0.016a0.109 0.109 0 0 1 0.016 -0.094c0.023 -0.031 0.047 -0.109 0.023 -0.156v-0.063h-0.023c-0.016 -0.016 -0.031 0 -0.047 0.016l-0.031 0.047c-0.008 0.063 -0.039 0.117 -0.078 0.125v0.094c0 0.031 0 0.055 -0.016 0.055s-0.031 0.016 -0.039 0.039a0.078 0.078 0 0 0 -0.008 0.023c0.023 0.023 0.016 0.055 -0.008 0.078 -0.047 0.047 -0.109 0.039 -0.172 0.023 -0.047 -0.023 -0.063 -0.039 -0.055 -0.063 -0.063 0 -0.055 -0.055 0 -0.07 0.063 -0.016 0.109 -0.055 0.148 -0.109 0 -0.063 0.016 -0.102 0.055 -0.109 0 -0.039 0.016 -0.078 0.031 -0.109 0.016 -0.031 0.023 -0.063 0.016 -0.102 -0.031 -0.023 -0.031 -0.047 0 -0.078 0.008 0 0.008 0 0 -0.016 -0.023 0 -0.023 -0.023 -0.023 -0.039s0 -0.016 -0.016 -0.016c-0.047 -0.008 -0.039 -0.031 -0.016 -0.055 0.008 0 0.016 -0.023 0 -0.031l-0.008 -0.031c-0.031 -0.023 -0.016 -0.047 0 -0.07l-0.031 -0.063c-0.055 0 -0.078 -0.031 -0.047 -0.07a0.266 0.266 0 0 1 0.055 -0.047c0.008 -0.023 0.023 -0.047 0.016 -0.063 -0.016 -0.047 0.039 -0.078 0.078 -0.109a0.07 0.07 0 0 1 -0.008 -0.031c-0.023 -0.023 -0.016 -0.047 0.008 -0.063a0.078 0.078 0 0 1 -0.008 -0.039c-0.063 0.016 -0.063 -0.023 -0.031 -0.078 -0.039 -0.023 -0.031 -0.063 0.039 -0.117a0.078 0.078 0 0 1 0 -0.031 0.156 0.156 0 0 0 -0.078 0.023c-0.023 0.023 -0.047 0.016 -0.07 0.008a0.117 0.117 0 0 0 -0.031 -0.031 0.047 0.047 0 0 1 -0.016 -0.047c-0.078 0 -0.086 -0.055 -0.047 -0.078 0.023 -0.023 0.047 -0.047 0.055 -0.07 0.016 -0.047 0.055 -0.078 0.102 -0.117v-0.039a0.125 0.125 0 0 0 -0.055 -0.023 0.094 0.094 0 0 0 -0.047 -0.055c-0.008 0 -0.016 -0.016 0 -0.031 -0.047 -0.031 -0.039 -0.055 -0.023 -0.078z"/><g fill="#f7db17"><path d="M28.477 9.531a0.109 0.109 0 0 1 -0.016 0 0.656 0.656 0 0 1 -0.063 0.055c-0.016 -0.023 -0.039 0 -0.016 0.008l-0.016 0.016c0 0.023 -0.016 0.031 -0.039 0.031h-0.008a0.234 0.234 0 0 1 0 -0.023 0.273 0.273 0 0 1 0 -0.031 0.305 0.305 0 0 0 -0.008 0.031 0.219 0.219 0 0 0 0 0.031c-0.063 0.023 -0.102 0.086 -0.148 0.133l-0.031 0.063c0 0.016 0 0.07 -0.023 0.07h-0.016c0 -0.008 -0.016 -0.008 -0.031 0h-0.078c-0.016 0.016 0.031 0.016 0.055 0.023 0.008 0.008 0.016 0.023 0.008 0.039 -0.016 0.055 -0.141 0.039 -0.18 0.016 -0.016 -0.008 -0.016 -0.023 -0.016 -0.039h0.023c0.016 0 0.031 0 0.039 -0.016 0 0 0.008 0 0 -0.008 0 -0.008 0 -0.008 0 0a0.102 0.102 0 0 1 -0.039 0 0.203 0.203 0 0 1 -0.039 0h-0.016c0 -0.008 0.016 0 0.016 0l0.055 -0.023a0.414 0.414 0 0 1 0.148 -0.109l0.063 -0.055c0 -0.055 0.031 -0.078 0.063 -0.117l0.023 -0.055v-0.023c-0.016 -0.031 -0.023 -0.055 -0.008 -0.078a0.117 0.117 0 0 1 0 -0.063 0.023 0.023 0 0 0 0 -0.008 0.484 0.484 0 0 1 0.063 -0.047v0.063a0.102 0.102 0 0 0 -0.016 0.023 0.039 0.039 0 0 0 0 0.016v0.008a0.031 0.031 0 0 1 0 -0.023l0.023 -0.016 0.055 -0.031 0.055 -0.047v0.078l-0.047 0.055v0.008h0.008a0.18 0.18 0 0 1 0.039 -0.055 0.25 0.25 0 0 1 0.078 -0.047v0.078a0.117 0.117 0 0 0 0.039 0.07z"/><path d="m27.266 8.828 0.016 -0.016 0.031 -0.047a0.313 0.313 0 0 1 0.039 -0.047 0.313 0.313 0 0 0 -0.031 0.055 0.453 0.453 0 0 0 -0.031 0.039v0.016c0.008 0.023 0.008 0.039 0.023 0.055l0.023 -0.031a0.125 0.125 0 0 1 0.031 -0.031 0.141 0.141 0 0 0 0.039 -0.047h0.008l-0.016 0.031a0.156 0.156 0 0 1 -0.023 0.023l-0.031 0.023a0.102 0.102 0 0 0 -0.016 0.031v0.023c-0.016 0.023 -0.039 0.039 0 0.055a0.047 0.047 0 0 0 0.008 0.039l-0.008 0.055c-0.023 0.016 0 0.016 0.008 0.016l0.031 -0.031a0.336 0.336 0 0 1 0.023 -0.031l0.031 -0.039 0.008 -0.039h0.008a0.109 0.109 0 0 1 -0.008 0.047 0.156 0.156 0 0 1 -0.039 0.039 0.297 0.297 0 0 0 -0.016 0.031 0.203 0.203 0 0 0 -0.023 0.031c0.016 0.008 0.016 0.031 0.016 0.055h0.008l0.016 -0.016 0.016 -0.031h0.008l-0.016 0.031 -0.016 0.023c0.016 0.008 0.016 0.023 0 0.039 -0.031 0.023 -0.023 0.031 0 0.055v0.094l0.008 0.023h-0.008v-0.023c-0.031 0.055 -0.047 0.086 -0.055 0.141 -0.047 0.008 -0.039 0.063 -0.047 0.102a0.305 0.305 0 0 1 -0.148 0.117c-0.008 0 -0.039 0.008 -0.039 0.023 0 0.008 0.016 0.023 0.031 0.016 0.031 -0.039 0.055 -0.016 0.016 0.016v0.023c0.039 0.031 0.125 0.039 0.172 0.016 0.023 -0.023 0.039 -0.039 0.016 -0.07 0 -0.039 0.016 -0.078 0.063 -0.094v-0.031l0.008 -0.102 0.016 -0.008c0.016 0 0.047 -0.055 0.055 -0.102v-0.031c0.008 -0.016 0.016 -0.016 0.023 0 0 -0.016 0 -0.023 0.016 -0.031 0.016 -0.023 0.039 -0.047 0.063 -0.031a0.234 0.234 0 0 1 -0.008 -0.063 0.211 0.211 0 0 1 0 -0.078l0.016 -0.016 0.023 -0.055 0.023 -0.055h0.008l-0.023 0.055 -0.023 0.063v0.008a0.195 0.195 0 0 0 -0.008 0.078l0.016 0.07 0.016 0.031v0.047c0.031 0.047 0 0.133 -0.023 0.172a0.078 0.078 0 0 0 -0.008 0.063c0.016 0.016 0 0.031 -0.008 0.047v0.008c0 0.016 0 0.031 -0.016 0.039l-0.055 0.125c-0.031 0.008 -0.039 0.023 -0.047 0.055 -0.023 0.008 -0.023 0.016 -0.031 0.031a0.211 0.211 0 0 1 -0.07 0.047c-0.023 0.008 0 0.016 0.016 0.031 0.016 0.008 0.031 -0.016 0.047 -0.031 0.016 -0.023 0.023 -0.016 0.016 0a0.156 0.156 0 0 0 -0.016 0.055l0.055 0.023c0.031 0 0.07 -0.031 0.094 -0.047 0.023 -0.016 0.016 -0.039 0.008 -0.063a0.156 0.156 0 0 1 -0.039 0 0.266 0.266 0 0 1 -0.039 -0.023 0.219 0.219 0 0 0 0.078 0.016v-0.023a0.211 0.211 0 0 0 0.039 -0.063c0.031 -0.016 0.031 -0.031 0.031 -0.07l0.008 -0.039a0.781 0.781 0 0 0 0.055 -0.125c0.031 -0.031 0.039 -0.07 0.039 -0.109 0 -0.016 0.008 -0.023 0.023 -0.023a0.297 0.297 0 0 0 0.023 -0.039l0.008 -0.031a0.063 0.063 0 0 1 0.016 -0.016 0.078 0.078 0 0 0 0 -0.039 0.086 0.086 0 0 0 -0.008 -0.031 0.039 0.039 0 0 1 -0.008 -0.016v-0.016h0.008c0.008 0 0 0 0 0v0.008a0.039 0.039 0 0 0 0 0.016c0.016 0.016 0.016 0.023 0.016 0.039a0.078 0.078 0 0 1 0 0.039 0.055 0.055 0 0 0 -0.016 0.016 0.133 0.133 0 0 0 0 0.023l0.047 -0.008 0.031 -0.039 0.016 -0.047c0.008 0 0 0 0 0a0.156 0.156 0 0 1 -0.008 0.055l-0.023 0.023c0.031 0.016 0.055 0 0.078 0V9.297l0.031 -0.055c0.008 0 0.008 0 0 0l-0.016 0.063v0.078c0.008 0.031 0.016 0.039 0.039 0.023l0.031 -0.016v-0.008a1.422 1.422 0 0 1 0.141 -0.125c0.008 0.008 0 0.008 0 0.008a0.508 0.508 0 0 0 -0.063 0.055l-0.063 0.055v0.023c0 0.023 0.008 0.039 0.047 0.023l0.047 -0.016a0.102 0.102 0 0 1 0.023 -0.016 0.625 0.625 0 0 1 0.039 -0.023l0.039 -0.023a0.234 0.234 0 0 1 0.008 -0.047l0.055 -0.102a0.18 0.18 0 0 0 0.086 -0.086h0.008l-0.031 0.055a0.195 0.195 0 0 1 -0.055 0.039l-0.055 0.094a0.211 0.211 0 0 0 -0.008 0.039v0.008a0.219 0.219 0 0 0 0 0.063c0.016 0 0.031 0 0.055 -0.023l0.055 -0.055a0.133 0.133 0 0 1 0.016 -0.039 0.078 0.078 0 0 1 0.031 -0.031h0.008v0.008a0.07 0.07 0 0 0 -0.031 0.023 0.133 0.133 0 0 0 -0.016 0.039v0.086l0.078 -0.039v0.078c0 0.023 0.016 0.047 0.031 0.063a0.219 0.219 0 0 1 0.039 -0.047l0.023 -0.023 0.016 -0.016 0.023 -0.016 -0.016 0.023 -0.016 0.016 -0.023 0.016v0.039h0.047c0 0.039 0 0.047 0.039 0.047a0.25 0.25 0 0 1 0 -0.039l0.008 -0.039h0.008a0.148 0.148 0 0 0 -0.008 0.039 0.242 0.242 0 0 0 0 0.039c0.016 0.023 0.023 0.031 0.055 0.047l0.016 -0.039a0.109 0.109 0 0 0 0 -0.031h0.008v0.039l-0.023 0.039v0.039a0.234 0.234 0 0 1 0.016 -0.023l0.023 -0.031c0.008 0 0.008 0 0 0 0 0.016 0 0.023 -0.016 0.031a0.313 0.313 0 0 0 -0.016 0.031l0.016 0.016c-0.047 0.078 -0.102 0.195 -0.195 0.234 -0.047 0.016 -0.07 0.039 -0.078 0.094a0.078 0.078 0 0 0 -0.039 0.047l-0.094 0.023c0 0.023 0 0.031 0.023 0.031l0.055 -0.023c0.008 0 0 0.039 -0.039 0.063v0.008c0.031 0.047 0.109 0.031 0.148 0.016 0.031 0 0.078 -0.039 0.094 -0.07 0.008 -0.016 0 -0.031 -0.016 -0.047 -0.063 0.008 -0.047 -0.047 0 -0.023 0.016 0 0.023 0 0.023 -0.023 0.047 -0.016 0.07 -0.039 0.078 -0.078 0.047 -0.055 0.094 -0.109 0.125 -0.164 0.008 -0.016 0.016 -0.031 0.008 -0.039a0.078 0.078 0 0 0 0.016 -0.039l0.008 -0.031h0.008v0.039a0.352 0.352 0 0 1 -0.016 0.023c0 0.008 0 0.016 0.016 0.016l0.117 -0.078c0 -0.023 0.016 -0.031 0.031 -0.031l0.016 -0.008c0.008 -0.031 0 -0.047 -0.016 -0.063 -0.008 -0.031 0.008 -0.039 0.031 -0.055 0.016 -0.016 0.016 -0.055 0.016 -0.078v-0.016a0.203 0.203 0 0 0 0 -0.023l0.008 0.023v0.008c0.023 -0.008 0.047 -0.023 0.055 -0.047 0 -0.023 -0.008 -0.047 -0.023 -0.063a0.75 0.75 0 0 1 -0.047 0.016 0.797 0.797 0 0 0 0.055 -0.031 0.102 0.102 0 0 0 0.023 -0.016c0.016 -0.023 -0.023 -0.039 -0.039 -0.047l-0.055 -0.055v-0.008l0.055 0.047v-0.086l-0.016 -0.031a0.086 0.086 0 0 1 -0.039 -0.031 0.078 0.078 0 0 1 -0.008 -0.039l0.016 0.031 0.031 0.031h0.078c0.023 -0.023 -0.016 -0.055 -0.023 -0.07l-0.008 -0.039h0.008a0.078 0.078 0 0 0 -0.016 -0.016 0.047 0.047 0 0 0 -0.008 0v-0.016a0.055 0.055 0 0 1 0.016 0.008l0.016 0.016a0.07 0.07 0 0 0 0.008 0c0.023 0 0.039 -0.016 0.055 -0.039a0.281 0.281 0 0 0 -0.023 -0.031 0.781 0.781 0 0 0 -0.039 -0.023v-0.008h0.008a0.313 0.313 0 0 1 0.063 0.063c0.031 0 0.031 0 0.047 -0.023a0.117 0.117 0 0 0 -0.016 -0.031 0.195 0.195 0 0 0 -0.023 -0.031c0 -0.008 0 0 0 0 0.016 0 0.023 0.016 0.031 0.023l0.016 0.039 0.031 -0.008c0.023 -0.016 0 -0.063 0 -0.078a0.219 0.219 0 0 0 -0.008 0l-0.016 -0.016c0 -0.008 0 0 0 0h0.016l0.016 0.008 0.031 -0.047c0 -0.031 0 -0.016 0.039 -0.023 0.031 0 0.047 0 0.07 -0.047 0.008 0 0.016 0 0.016 -0.023s0 -0.031 -0.023 -0.031c-0.039 0 -0.063 0 -0.078 0.023v0.023c0 0.008 0 0 0 0l-0.016 -0.016c-0.031 0 -0.055 0 -0.086 0.016h-0.016l0.016 0.023 0.008 0.031a0.078 0.078 0 0 0 -0.016 -0.031 0.141 0.141 0 0 0 -0.023 -0.031 0.203 0.203 0 0 0 -0.078 -0.016l0.016 0.008 0.016 0.016v0.008a0.602 0.602 0 0 1 -0.016 -0.016 0.508 0.508 0 0 1 -0.016 -0.016 0.211 0.211 0 0 0 -0.07 0.016l-0.047 0.016 0.031 0.039 0.016 0.047a0.164 0.164 0 0 0 -0.023 -0.047 0.148 0.148 0 0 0 -0.031 -0.031 0.141 0.141 0 0 1 -0.039 0l0.016 0.023 -0.023 -0.031a0.109 0.109 0 0 1 -0.039 -0.016 0.648 0.648 0 0 1 0.016 0.117 0.609 0.609 0 0 0 -0.016 -0.07 0.367 0.367 0 0 0 -0.008 -0.055 0.133 0.133 0 0 1 -0.016 -0.016 0.164 0.164 0 0 0 -0.047 -0.031 0.078 0.078 0 0 1 -0.016 0.055c-0.008 0 0 0 0 0a0.063 0.063 0 0 0 0.008 -0.063 0.242 0.242 0 0 0 -0.078 -0.016 0.414 0.414 0 0 1 0.039 0.063l0.023 0.039v0.039a0.156 0.156 0 0 0 -0.008 -0.039 0.055 0.055 0 0 0 -0.023 -0.031 0.438 0.438 0 0 0 -0.023 -0.039 0.359 0.359 0 0 0 -0.023 -0.031h-0.031a0.047 0.047 0 0 1 0 0.023 0.039 0.039 0 0 0 0 -0.016 0.055 0.055 0 0 0 -0.016 -0.008h-0.063a0.391 0.391 0 0 1 0.078 0.18 0.375 0.375 0 0 0 -0.031 -0.094 0.398 0.398 0 0 0 -0.055 -0.078h-0.047a0.133 0.133 0 0 1 0.031 0.031c0 0.008 0 0.008 0 0a0.125 0.125 0 0 0 -0.023 -0.008 0.188 0.188 0 0 0 -0.023 -0.016 0.391 0.391 0 0 0 -0.023 0l-0.008 0.008a0.367 0.367 0 0 1 0.078 0.086c0 0.008 0 0 0 0a0.297 0.297 0 0 0 -0.047 -0.047 0.367 0.367 0 0 0 -0.047 -0.031h-0.047a0.391 0.391 0 0 1 0.039 0.133h-0.008a0.273 0.273 0 0 0 -0.016 -0.063 0.484 0.484 0 0 0 -0.023 -0.07 0.625 0.625 0 0 1 -0.031 0 0.711 0.711 0 0 1 0.023 0.125v0.008a0.727 0.727 0 0 0 -0.016 -0.078 0.727 0.727 0 0 0 -0.023 -0.063 0.305 0.305 0 0 0 -0.102 -0.078 0.133 0.133 0 0 1 0.031 0.086v0.008a0.125 0.125 0 0 0 -0.016 -0.055 0.133 0.133 0 0 0 -0.031 -0.047 0.156 0.156 0 0 0 -0.023 0 1.219 1.219 0 0 0 -0.078 0c0.016 0.008 0.031 0.031 0.031 0.047 0 -0.016 -0.023 -0.039 -0.047 -0.055h-0.047l0.023 0.023 0.016 0.039 0.016 0.047 0.031 0.031s0.008 0 0 0c0 0.008 0 0.008 0 0a0.086 0.086 0 0 1 -0.039 -0.023 0.117 0.117 0 0 1 -0.016 -0.055 0.102 0.102 0 0 0 -0.016 -0.031 0.211 0.211 0 0 0 -0.023 -0.031h-0.055l0.016 0.063 0.008 0.078h-0.008a0.555 0.555 0 0 0 0 -0.078 0.352 0.352 0 0 0 -0.023 -0.063 0.078 0.078 0 0 0 -0.047 -0.039 0.047 0.047 0 0 1 0 0.023h-0.008a0.039 0.039 0 0 0 0 -0.023c-0.016 -0.039 -0.023 -0.055 -0.047 -0.063v0.031l-0.016 0.031h-0.008l0.008 -0.039v-0.031c0 -0.047 -0.016 -0.078 -0.063 -0.094v0.016l-0.008 0.039h-0.008v-0.039a0.148 0.148 0 0 0 0 -0.023l-0.039 -0.039a0.18 0.18 0 0 1 0 0.055 0.234 0.234 0 0 1 -0.031 0.063h-0.008a0.234 0.234 0 0 0 0.023 -0.063 0.172 0.172 0 0 0 0.008 -0.063 0.078 0.078 0 0 1 -0.016 -0.023v0.016h-0.008v-0.016l0.008 -0.008v-0.008a0.055 0.055 0 0 0 -0.023 -0.039 0.117 0.117 0 0 1 -0.016 0.039h-0.008c-0.008 0 0 0 0 0l0.008 -0.023 0.008 -0.023a0.078 0.078 0 0 1 -0.008 -0.016 0.063 0.063 0 0 1 -0.008 0.016 0.094 0.094 0 0 1 -0.016 0.016c-0.008 -0.008 0 -0.008 0 -0.008l0.008 -0.016a0.055 0.055 0 0 0 0.008 -0.016v-0.016c0 -0.023 0 -0.031 -0.016 -0.055a0.07 0.07 0 0 0 -0.023 0 0.219 0.219 0 0 0 -0.039 0.031v-0.008a0.25 0.25 0 0 1 0.031 -0.023 0.07 0.07 0 0 1 0.031 -0.008 0.031 0.031 0 0 0 0 -0.016l-0.078 0.023a0.125 0.125 0 0 1 -0.07 -0.016h0.063c0.023 0 0.055 0 0.086 -0.016l0.016 -0.047a0.133 0.133 0 0 1 -0.039 0l0.047 -0.008v-0.016c0 -0.016 0.023 -0.016 0.031 0 0.016 0 0.023 0.016 0.031 0.023 0.023 0.016 0.047 0 0.07 -0.016h-0.016v-0.008h0.023c0.047 0 0.078 0 0.109 -0.039a0.547 0.547 0 0 1 -0.078 0c-0.016 0 -0.031 0 -0.047 -0.016l0.055 0.008h0.078l0.039 -0.023a0.422 0.422 0 0 1 -0.156 -0.047 0.109 0.109 0 0 0 -0.047 -0.023c-0.039 0 -0.078 0 -0.109 0.023l-0.023 -0.023 -0.031 -0.016h-0.047s-0.008 0 0 0h0.094a0.352 0.352 0 0 1 0.133 -0.023 0.445 0.445 0 0 1 0.133 -0.016v-0.016c0.023 -0.023 0.031 -0.047 0.023 -0.07 -0.008 -0.016 -0.031 -0.039 -0.063 -0.055h-0.102a0.313 0.313 0 0 0 -0.063 0.008l0.047 0.031 0.031 0.078v0.008h-0.016a0.156 0.156 0 0 0 -0.031 -0.078c-0.008 -0.016 -0.047 -0.023 -0.055 -0.031l-0.102 0.016 -0.055 0.031c0.023 -0.008 0.047 0 0.063 0 0.023 0.016 0.039 0.031 0.047 0.063v0.008h-0.016a0.078 0.078 0 0 0 -0.039 -0.055c-0.031 -0.016 -0.094 0 -0.125 0.023a0.328 0.328 0 0 0 -0.047 0.047h-0.016v-0.016l0.055 -0.047 0.055 -0.031a0.156 0.156 0 0 1 0.078 -0.039l0.102 -0.016a0.078 0.078 0 0 0 -0.039 -0.039 0.109 0.109 0 0 0 -0.063 0c-0.039 0.008 -0.078 0.031 -0.117 0.055h0.039l0.008 0.016h-0.039a0.109 0.109 0 0 0 -0.031 0l-0.117 0.094c-0.039 0 -0.063 0 -0.078 0.016l-0.008 0.047 -0.016 0.055c-0.039 0.039 -0.078 0.07 -0.102 0.117a0.109 0.109 0 0 1 -0.023 0.039 0.039 0.039 0 0 1 0.023 0.008v-0.016l0.016 -0.031h0.008a0.094 0.094 0 0 0 -0.008 0.031v0.039h-0.016a0.023 0.023 0 0 0 -0.008 -0.016 0.039 0.039 0 0 0 -0.023 0l-0.023 0.016 -0.016 0.023c0 0.023 0.016 0.023 0.039 0.023 0.047 0 0.008 0.031 0.031 0.055l0.039 0.031h0.039c0 -0.031 0 -0.047 0.016 -0.047a0.063 0.063 0 0 1 0.016 -0.031 0.063 0.063 0 0 0 0 0.016 0.063 0.063 0 0 0 -0.008 0.016v0.031a0.188 0.188 0 0 1 0.078 -0.016c0.055 -0.063 0.078 -0.047 0.031 0l-0.008 0.016a0.109 0.109 0 0 0 -0.016 0.047c-0.016 0.008 -0.078 0.063 -0.055 0.078 0.016 0 0.031 0 0.023 0.016 -0.008 0.016 -0.031 0.047 -0.023 0.07h0.023a0.484 0.484 0 0 0 0.055 -0.047 0.297 0.297 0 0 0 0.039 -0.063h0.008a0.703 0.703 0 0 1 0.023 -0.063c0 -0.016 0.008 -0.039 0.023 -0.055l0.023 0.023a0.031 0.031 0 0 0 0.016 0 0.031 0.031 0 0 0 0.023 0l0.016 -0.023h0.008a0.094 0.094 0 0 1 -0.023 0.031 0.039 0.039 0 0 1 -0.023 0 0.039 0.039 0 0 1 -0.016 0 0.086 0.086 0 0 1 -0.023 -0.023 0.938 0.938 0 0 0 -0.039 0.109v0.008a0.438 0.438 0 0 1 -0.094 0.109l0.016 0.039 0.078 -0.078 0.063 -0.078a0.469 0.469 0 0 1 -0.023 0.047v0.086h-0.008v-0.07l-0.023 0.023a0.906 0.906 0 0 1 -0.078 0.078c-0.023 0.023 -0.047 0.023 -0.016 0.055l0.023 -0.023 0.031 -0.023h0.008v0.008l-0.031 0.023 -0.031 0.023a0.047 0.047 0 0 0 0.008 0.023 0.039 0.039 0 0 1 0.008 0l0.063 -0.047c0.008 0 0 0.008 0 0.008l-0.055 0.047a0.055 0.055 0 0 1 -0.008 0c-0.023 0.023 -0.094 0.063 -0.078 0.094l0.047 -0.016 0.047 -0.039c0.008 0 0 0 0 0.008a0.195 0.195 0 0 1 -0.047 0.039v0.016a0.281 0.281 0 0 1 -0.055 0.008c0.008 0.031 0 0.055 -0.023 0.078 0 0.008 -0.078 0.07 -0.047 0.078a0.078 0.078 0 0 0 0.023 0.016z"/><path d="M27.297 7.82a0.172 0.172 0 0 0 -0.047 -0.023 0.109 0.109 0 0 0 -0.039 -0.039c-0.016 -0.016 -0.016 -0.008 -0.008 -0.023l0.016 -0.008a0.07 0.07 0 0 1 0.023 0 0.031 0.031 0 0 1 0.016 0.016h0.008c0.008 0 0 0 0 0a0.039 0.039 0 0 0 -0.016 -0.016 0.078 0.078 0 0 0 -0.031 -0.008 0.055 0.055 0 0 0 -0.031 0l-0.016 -0.039 0.031 0.008 0.016 0.008a0.055 0.055 0 0 0 -0.016 -0.016 0.156 0.156 0 0 0 -0.016 0 0.227 0.227 0 0 1 0.164 0.016c0.031 0.008 0.047 0.023 0.063 0.047l-0.016 0.016c-0.039 0 -0.063 0 -0.078 0.016 -0.016 0.008 -0.016 0.031 -0.016 0.047z"/></g><path d="m28.516 9.516 -0.031 0.016c0 -0.023 0.016 -0.031 0.023 -0.047v0.016l0.008 0.016zm0.156 0.328a0.18 0.18 0 0 1 -0.031 0.031 0.313 0.313 0 0 1 -0.039 0.031v-0.008l0.031 -0.031 0.031 -0.031zm0.102 -0.125 -0.016 0.023h-0.008l0.016 -0.023zm-0.055 0a0.086 0.086 0 0 1 -0.016 0.023 0.078 0.078 0 0 1 -0.039 0.031v-0.008a0.078 0.078 0 0 0 0.031 -0.023 0.078 0.078 0 0 0 0.008 -0.031h0.008zm0.094 -0.125a0.078 0.078 0 0 0 -0.008 0.016 0.086 0.086 0 0 0 -0.008 0.016h-0.008a0.086 0.086 0 0 1 0.023 -0.039zm0.078 0v0.039l-0.023 0.039c-0.008 0 0 0 0 0l0.008 -0.039 0.016 -0.039zm-0.031 -0.469c0.023 0.039 0.031 0.078 0.031 0.117a0.57 0.57 0 0 1 0.008 -0.047 0.109 0.109 0 0 0 0.023 -0.086c0 -0.008 0.008 0 0.008 0v0.047a0.133 0.133 0 0 1 -0.023 0.047l-0.016 0.078h-0.008v-0.008c0 -0.047 0 -0.094 -0.031 -0.141v-0.008zm-0.063 0.078v0.023h-0.008v-0.031h0.008zm-0.016 0.109a0.484 0.484 0 0 1 0.016 0.109 0.078 0.078 0 0 1 0.008 -0.008l0.023 -0.023h0.008a0.078 0.078 0 0 0 -0.023 0.023 0.055 0.055 0 0 0 -0.016 0.031 0.391 0.391 0 0 0 -0.008 -0.07 0.461 0.461 0 0 0 -0.016 -0.063zm0.078 0.039a0.281 0.281 0 0 1 0.008 0.094v-0.047a0.281 0.281 0 0 0 -0.008 -0.047zm0.078 -0.016v0.047a0.117 0.117 0 0 1 0 0.039 0.094 0.094 0 0 0 0 0.047l0.008 0.047a0.195 0.195 0 0 1 -0.023 -0.047 0.102 0.102 0 0 1 0 -0.047 0.109 0.109 0 0 0 0.016 -0.039 0.18 0.18 0 0 0 0 -0.047zm0.039 -0.117 -0.008 0.023v0.016h-0.008v-0.047h0.008zm-0.039 -0.203v0.016c0.008 0 0.008 0 0 0 0 0.008 0 0 0 0v-0.016s-0.008 0 0 0c0 -0.008 0 0 0 0zm0.016 -0.156v0.063a0.063 0.063 0 0 0 -0.016 0.023 0.109 0.109 0 0 0 0 0.047h-0.008a0.109 0.109 0 0 1 0 -0.047 0.07 0.07 0 0 1 0.023 -0.031v-0.055zm-0.156 -0.055c0.031 0.016 0.047 0.031 0.063 0.055 0.016 0.016 0.023 0.039 0.023 0.07l-0.047 -0.016v0.141c-0.016 0.039 -0.039 0.063 -0.078 0.078a0.297 0.297 0 0 0 0 -0.141h0.008a0.281 0.281 0 0 1 0 0.125 0.117 0.117 0 0 0 0.055 -0.063 0.289 0.289 0 0 0 0.008 -0.148l0.047 0.016c0 -0.023 -0.008 -0.039 -0.023 -0.063a0.195 0.195 0 0 0 -0.055 -0.047v-0.008zm0.406 -0.078v0.016h-0.008v-0.016s0 -0.008 0 0h0.008zm-0.094 0 0.023 0.008a0.063 0.063 0 0 1 0.008 0.016v0.008a0.063 0.063 0 0 0 -0.016 -0.016 0.047 0.047 0 0 0 -0.016 -0.016zm-0.141 0.039 0.023 0.039v0.047c-0.008 0 -0.008 0 0 0l-0.008 -0.047a0.078 0.078 0 0 0 -0.023 -0.039h0.008zm-0.469 0.039v0.031l-0.008 0.008v-0.039zm0.078 -0.047 0.016 0.031v0.008h-0.008v-0.008l-0.008 -0.023zm0.188 0.125v0.008a0.086 0.086 0 0 1 0 0.016 0.063 0.063 0 0 0 0 -0.016 0.047 0.047 0 0 0 -0.008 0v-0.008zm0.063 -0.141v0.016a0.016 0.016 0 0 1 0 0.016 0.008 0.008 0 0 0 0 -0.016c-0.008 -0.008 -0.008 -0.008 0 -0.008zm-0.43 0.023a0.078 0.078 0 0 0 0.016 0.055c0.016 0.008 0.016 0.023 0.023 0.031v0.031h-0.008v-0.031a0.07 0.07 0 0 0 -0.016 -0.023 0.078 0.078 0 0 1 -0.016 -0.031 0.086 0.086 0 0 1 -0.008 -0.031zm0.172 0.117 0.016 0.055v0.055c0 0.023 0 0.047 0.016 0.063l0.047 0.055a0.227 0.227 0 0 1 -0.008 -0.078l0.023 -0.078c0.016 0 0.016 -0.016 0.023 -0.023v-0.031h0.008v0.031a0.117 0.117 0 0 1 -0.023 0.039 0.125 0.125 0 0 0 -0.023 0.07c0 0.023 0 0.047 0.016 0.078h-0.008c-0.031 -0.016 -0.047 -0.039 -0.063 -0.063a0.102 0.102 0 0 1 -0.016 -0.063v-0.055a0.141 0.141 0 0 0 -0.016 -0.047c0 -0.008 0.008 0 0.008 0zm-0.07 0.109c0 0.016 0 0.039 -0.016 0.055a0.266 0.266 0 0 1 -0.031 0.047h0.023a0.172 0.172 0 0 0 0.055 -0.047l0.023 -0.023c0.008 0 0 0 0 0a0.281 0.281 0 0 1 -0.016 0.031 0.195 0.195 0 0 1 -0.023 0.016 1.914 1.914 0 0 1 0 0.031v-0.016a0.117 0.117 0 0 0 -0.008 -0.008 0.172 0.172 0 0 1 -0.031 0.016l-0.031 0.016v-0.008l0.031 -0.055 0.016 -0.055h0.008zm-0.078 0v0.008h-0.008c-0.008 0 0 0 0 0v-0.016z"/><path d="M28.359 8.883c0.016 0.023 0.016 0.047 0.016 0.078a0.148 0.148 0 0 1 -0.031 0.063 0.148 0.148 0 0 0 -0.039 0.047 0.203 0.203 0 0 0 -0.016 0.047l0.016 -0.023 0.039 -0.023a0.359 0.359 0 0 0 0.086 -0.07h0.008c0.008 0 0 0 0 0a0.313 0.313 0 0 1 -0.094 0.078 0.078 0.078 0 0 0 -0.031 0.023 0.18 0.18 0 0 0 -0.031 0.039c0 -0.031 0 -0.055 0.016 -0.078l0.039 -0.047 0.031 -0.063c0 -0.023 0 -0.047 -0.016 -0.07h0.008zm0.18 0.273 0.008 0.031 0.008 0.008c0.016 0.023 0.023 0.039 0.023 0.063l-0.008 0.078h-0.008a0.141 0.141 0 0 0 -0.031 -0.078 0.266 0.266 0 0 0 -0.063 -0.047v-0.008c0.031 0.016 0.055 0.031 0.07 0.055l0.023 0.047a0.266 0.266 0 0 0 0 -0.047 0.102 0.102 0 0 0 -0.008 -0.055l-0.008 -0.016c-0.016 -0.016 -0.023 -0.023 -0.016 -0.031zm0.078 0 0.008 0.016c0 0.008 0 0 0 0h-0.008l-0.016 -0.016h0.008zm0.078 0.023 -0.016 0.055 -0.016 0.055 0.016 -0.055 0.016 -0.055zm0.055 0.313v0.008a0.023 0.023 0 0 1 0 -0.016zm-0.055 -0.094v0.023l-0.016 0.031v-0.031l0.008 -0.031h0.008zm-0.078 0h0.008v0.008h-0.008v-0.008zm-0.086 -0.047a0.57 0.57 0 0 1 -0.008 0.016v0.016h-0.008a0.391 0.391 0 0 1 0 -0.016 0.391 0.391 0 0 1 0 -0.016h0.008c0.008 0 0 0 0 0zm-0.133 0.141a0.055 0.055 0 0 0 -0.008 0.016 0.102 0.102 0 0 0 0 0.016s-0.008 0.008 -0.016 0v-0.016a0.063 0.063 0 0 1 0.016 -0.023h0.008zm-0.375 0.359a0.055 0.055 0 0 1 0 0.016 0.086 0.086 0 0 1 -0.016 0.008c-0.008 0 -0.008 0 0 0a0.063 0.063 0 0 0 0.008 -0.023h0.008zm0.063 -0.031a0.023 0.023 0 0 1 -0.008 0.016 0.047 0.047 0 0 1 -0.016 0 0.031 0.031 0 0 0 0.008 -0.008 0.023 0.023 0 0 0 0 -0.008h0.016zm0.078 -0.047a0.039 0.039 0 0 1 0 0.008 0.039 0.039 0 0 1 -0.016 0.008 0.031 0.031 0 0 0 0 -0.016h0.016zm0.117 -0.297 -0.008 0.031a0.109 0.109 0 0 0 0 0.031h-0.008a0.109 0.109 0 0 1 0 -0.031v-0.039h0.008zm0.078 -0.805a0.07 0.07 0 0 1 -0.008 0.023 0.109 0.109 0 0 1 -0.016 0.023h-0.008l0.016 -0.023a0.063 0.063 0 0 0 0 -0.023l0.008 -0.008zm-0.078 -0.078a0.148 0.148 0 0 1 0.008 0.078 0.141 0.141 0 0 0 0 -0.039 0.117 0.117 0 0 0 -0.016 -0.031c0 -0.008 0 0 0 0zm-0.109 0.133a0.117 0.117 0 0 1 -0.031 -0.031 0.055 0.055 0 0 1 -0.008 -0.031l0.016 0.031 0.023 0.031zm0.117 0.203v0.016h-0.008v-0.016zm-0.156 -0.156 0.047 0.078 0.008 0.063c0.016 0 0.023 -0.008 0.031 -0.023v-0.07a0.148 0.148 0 0 0 0.023 -0.047 0.273 0.273 0 0 0 0.008 -0.039h0.008l0.031 0.063 0.023 0.07h-0.008a0.227 0.227 0 0 0 -0.023 -0.07 0.305 0.305 0 0 0 -0.023 -0.047 0.227 0.227 0 0 1 0 0.031 0.156 0.156 0 0 1 -0.023 0.039l-0.008 0.078 -0.031 0.023v0.031h-0.008c0 -0.031 0 -0.063 -0.016 -0.094a0.156 0.156 0 0 0 -0.039 -0.078zm0.094 0.391v0.023l-0.008 0.031h-0.008v-0.063h0.008c0.008 0 0.008 0 0 0zm-0.172 0.07v0.023l-0.008 -0.023c0 -0.008 0.008 0 0.008 0zm0.148 -0.195a0.18 0.18 0 0 1 -0.016 0.047l-0.023 0.039a0.086 0.086 0 0 0 -0.023 0.047 0.141 0.141 0 0 0 0 0.055c0 0.008 0 0 0 0a0.148 0.148 0 0 1 -0.008 -0.055c0 -0.016 0.008 -0.039 0.023 -0.055a0.164 0.164 0 0 0 0.023 -0.039 0.164 0.164 0 0 0 0.016 -0.047c0.008 0 0 0 0 0zm-0.039 -0.063v0.047a0.172 0.172 0 0 1 -0.039 0.047 0.141 0.141 0 0 0 -0.031 0.039l-0.016 0.039h-0.008l0.016 -0.047 0.039 -0.039a0.156 0.156 0 0 0 0.023 -0.039 0.078 0.078 0 0 0 0.008 -0.047h0.008zm-0.188 0.094c0 0.031 0 0.055 -0.016 0.078 -0.008 0.023 -0.023 0.047 -0.047 0.063h-0.008v-0.008c0.023 -0.016 0.039 -0.039 0.047 -0.063 0.016 -0.016 0.016 -0.047 0.016 -0.078zm-0.234 0.133v0.016l0.008 0.008v0.008h-0.008l-0.008 -0.016v-0.016s-0.008 0 0 0zm-0.102 0a0.211 0.211 0 0 0 0 0.055l0.031 0.047 0.008 0.039v0.031l0.031 -0.039a0.109 0.109 0 0 0 0.016 -0.047 0.125 0.125 0 0 1 0 0.047l-0.039 0.047h-0.008a0.258 0.258 0 0 0 0 -0.039 0.141 0.141 0 0 0 -0.016 -0.031 0.156 0.156 0 0 1 -0.023 -0.055 0.211 0.211 0 0 1 -0.008 -0.055zm0.016 0.328a0.203 0.203 0 0 1 0.008 -0.063h0.008a0.195 0.195 0 0 0 -0.008 0.063h-0.008zm-0.016 0.086v-0.031s0 -0.008 0.008 0v0.031zm-0.063 0.156 0.016 -0.023 0.016 -0.023h0.008a0.313 0.313 0 0 1 -0.016 0.031l-0.016 0.016c-0.008 0 -0.008 0 0 0zm-0.086 -0.516v0.016h-0.008v-0.016zm-0.156 0.352a0.227 0.227 0 0 0 0 -0.008v-0.016h0.008v0.023zm0.391 -0.625 -0.023 0.078c0 0.023 0.008 0.047 0.023 0.055 0.023 0.016 0.031 0.031 0.039 0.055v-0.031c0.008 -0.008 0.008 -0.023 0 -0.031h0.008a0.211 0.211 0 0 1 0 0.078h-0.008a0.469 0.469 0 0 1 0 -0.016l-0.039 -0.047c-0.023 -0.016 -0.031 -0.031 -0.031 -0.063l0.016 -0.078h0.008zm-0.031 -0.102a0.195 0.195 0 0 1 0 0.063 0.313 0.313 0 0 1 -0.023 0.055 0.188 0.188 0 0 0 -0.016 0.078c0 0.031 0.008 0.055 0.023 0.078v0.008a0.195 0.195 0 0 1 -0.016 -0.164 0.297 0.297 0 0 0 0.016 -0.055c0 -0.023 0.008 -0.039 0 -0.063h0.008c0.008 0 0 0 0 0zm-0.18 0.258a0.063 0.063 0 0 0 0 0.031l0.008 0.039c0 0.008 0 0 0 0a0.117 0.117 0 0 1 -0.023 -0.039 0.07 0.07 0 0 1 0.008 -0.039h0.008zm-0.078 -0.031v0.023a0.07 0.07 0 0 1 0 0.023 0.031 0.031 0 0 0 -0.008 0.023l0.008 0.016v0.008a0.063 0.063 0 0 1 -0.016 -0.023 0.039 0.039 0 0 1 0 -0.031 0.063 0.063 0 0 0 0.008 -0.016v-0.023h0.008zm0.453 -0.672a0.18 0.18 0 0 0 0.023 0.117 0.203 0.203 0 0 1 -0.031 -0.055 0.18 0.18 0 0 1 0 -0.063h0.008zm-0.055 0.055a0.313 0.313 0 0 1 0.039 0.133h-0.008a0.297 0.297 0 0 0 -0.039 -0.125v-0.008zm-0.281 0.008c-0.031 0.039 -0.039 0.078 -0.047 0.102l0.016 0.07 0.016 0.063a0.203 0.203 0 0 1 -0.016 0.063c-0.008 0 0 0 0 0v-0.063a0.18 0.18 0 0 0 0 -0.063 0.133 0.133 0 0 1 -0.023 -0.078c0 -0.023 0.016 -0.055 0.047 -0.094 0.008 0 0 0 0 0zm0.258 -0.109v0.039l-0.031 0.031a0.063 0.063 0 0 0 -0.023 0.031v0.055c0 0.008 0 0 0 0a0.148 0.148 0 0 1 0 -0.055 0.078 0.078 0 0 1 0.023 -0.039 0.078 0.078 0 0 0 0.023 -0.031 0.047 0.047 0 0 0 0 -0.031h0.008zm-0.273 0.023v0.055c0 0.016 -0.016 0.031 -0.031 0.047a0.094 0.094 0 0 0 -0.031 0.047 0.227 0.227 0 0 0 -0.008 0.055h-0.008a0.234 0.234 0 0 1 0.008 -0.063c0 -0.016 0.016 -0.031 0.031 -0.047l0.031 -0.047a0.078 0.078 0 0 0 0 -0.047zm0.156 0.008a0.063 0.063 0 0 0 0 0.016 0.039 0.039 0 0 0 0.008 0.023 0.047 0.047 0 0 1 -0.016 -0.016 0.063 0.063 0 0 1 0 -0.023h0.008zm0 -0.039a0.063 0.063 0 0 0 -0.039 0.031l-0.016 0.055 0.016 0.039v0.055a0.188 0.188 0 0 0 0 -0.055l-0.023 -0.031a0.156 0.156 0 0 0 -0.039 0.094c0 0.039 0.008 0.078 0.039 0.117h-0.008a0.211 0.211 0 0 1 -0.039 -0.117c0 -0.039 0.016 -0.07 0.047 -0.102 0 -0.023 0 -0.047 0.016 -0.063a0.078 0.078 0 0 1 0.039 -0.031zm-0.055 -0.063v0.008c0 0.023 0 0.047 -0.016 0.055a0.063 0.063 0 0 0 -0.016 0.023 0.125 0.125 0 0 0 -0.008 0.031h-0.008a0.133 0.133 0 0 1 0 -0.031 0.078 0.078 0 0 1 0.023 -0.031c0.016 -0.008 0.016 -0.031 0.016 -0.047a0.211 0.211 0 0 0 0 -0.008h0.008zm0.445 0.469 0.008 0.039v0.031a0.109 0.109 0 0 0 0 -0.031 0.148 0.148 0 0 0 -0.016 -0.031h0.008zm0 0.156v0.047l-0.016 0.047 -0.023 0.047 0.016 -0.047a0.164 0.164 0 0 0 0.016 -0.047 0.125 0.125 0 0 0 0 -0.055h0.008zm-0.094 -0.141a0.195 0.195 0 0 1 0.055 0.195h-0.008a0.188 0.188 0 0 0 -0.047 -0.188v-0.008c0 -0.008 0 0 0 0zm0 0.156a0.414 0.414 0 0 1 -0.078 0.109 0.195 0.195 0 0 0 -0.039 0.078 0.109 0.109 0 0 0 -0.008 -0.047 0.148 0.148 0 0 0 -0.016 -0.031 0.109 0.109 0 0 1 -0.023 -0.07l0.023 -0.063 0.023 -0.047a0.188 0.188 0 0 0 0 -0.047h0.008c0.008 0 0 0 0 0a0.203 0.203 0 0 1 -0.023 0.102 0.078 0.078 0 0 0 -0.023 0.055c0 0.023 0 0.047 0.016 0.063a0.156 0.156 0 0 1 0.023 0.063 0.203 0.203 0 0 1 0.039 -0.063 0.391 0.391 0 0 0 0.039 -0.047l0.023 -0.055h0.008zm-0.25 -0.078a0.219 0.219 0 0 0 0.031 0.109v0.008h-0.008a0.18 0.18 0 0 1 -0.023 -0.055 0.234 0.234 0 0 1 0 -0.055zm-0.133 0.078v0.023h-0.008v-0.023zm0.047 -0.125 -0.008 0.039a0.109 0.109 0 0 1 -0.023 0.039c-0.008 0 0 0 0 0l0.016 -0.039a0.109 0.109 0 0 0 0 -0.039h0.008zm-0.125 0.242a0.258 0.258 0 0 1 -0.023 -0.133c0 -0.039 0.023 -0.063 0.047 -0.078l0.031 -0.055c0.008 -0.016 0.016 -0.039 0.008 -0.078s0.008 0 0.008 0v0.078l-0.047 0.055a0.148 0.148 0 0 0 -0.039 0.078c0 0.039 0 0.078 0.023 0.133h-0.008zm-0.078 -0.086a0.055 0.055 0 0 0 0 0.023l0.008 0.031a0.078 0.078 0 0 1 -0.016 -0.031 0.063 0.063 0 0 1 0 -0.031h0.008zm0.359 -0.25c0.008 0.016 0.023 0.039 0.023 0.063 0 0.023 0 0.047 -0.016 0.07h-0.008c-0.008 0 0 0 0 0l0.016 -0.07a0.117 0.117 0 0 0 -0.023 -0.063zm0.109 -0.086a0.188 0.188 0 0 1 0 0.133 0.141 0.141 0 0 0 -0.016 -0.063 0.117 0.117 0 0 0 -0.039 -0.039c0 -0.008 0 -0.008 0.008 0a0.125 0.125 0 0 1 0.047 0.078v-0.047a0.18 0.18 0 0 0 -0.008 -0.063zm0.063 -0.094 0.031 0.063v0.078a0.156 0.156 0 0 0 0 0.039 0.078 0.078 0 0 0 0.016 0.031 0.078 0.078 0 0 1 -0.016 -0.031 0.18 0.18 0 0 1 0 -0.039 0.273 0.273 0 0 0 -0.008 -0.078 0.117 0.117 0 0 0 -0.031 -0.055c0 -0.008 0 0 0.008 0zm-0.172 -0.016a0.078 0.078 0 0 0 -0.023 0.039v0.055a0.156 0.156 0 0 1 0 -0.055c0 -0.016 0 -0.031 0.016 -0.039 0.008 0 0.008 0 0 0zm-0.344 0.234a0.156 0.156 0 0 1 -0.023 0.078 0.195 0.195 0 0 1 -0.063 0.055c-0.008 0 0 0 0 0l0.055 -0.055c0.016 -0.023 0.023 -0.047 0.023 -0.078l0.008 -0.008zm0 -0.125v0.039a0.172 0.172 0 0 1 -0.023 0.039l0.008 -0.039v-0.039h0.008zm0.227 -0.016v0.078h-0.008v-0.078zm0.055 -0.102c-0.016 0.023 -0.023 0.039 -0.023 0.063l0.016 0.055 0.023 0.094c0 0.031 -0.016 0.055 -0.031 0.086l0.023 -0.086a0.148 0.148 0 0 0 -0.023 -0.094l-0.016 -0.055c0 -0.023 0 -0.047 0.023 -0.063 0.008 0 0 0 0 0zm-0.359 -0.633a0.156 0.156 0 0 1 0.078 -0.039c0.031 0 0.063 0 0.094 0.023h0.063c-0.031 0.039 -0.063 0.055 -0.086 0.055a0.078 0.078 0 0 1 -0.07 -0.016c0 -0.008 0 -0.008 0 0a0.078 0.078 0 0 0 0.07 0c0.016 0 0.047 -0.008 0.078 -0.039a0.148 0.148 0 0 0 -0.078 -0.008 0.156 0.156 0 0 0 -0.078 0.031c-0.008 0 0 0 0 -0.008z"/><path d="M27.469 7.891a0.023 0.023 0 0 1 0.023 0.023 0.023 0.023 0 0 1 -0.023 0.016 0.023 0.023 0 0 1 -0.016 -0.016 0.023 0.023 0 0 1 0.016 -0.023zm0.141 0.125a0.172 0.172 0 0 0 0.063 -0.055c0.008 0 0 0 0 0.008a0.18 0.18 0 0 1 -0.016 0.023l-0.039 0.031c-0.008 -0.008 0 -0.008 0 -0.008zm0.289 -0.125a0.039 0.039 0 0 1 0.023 0 0.063 0.063 0 0 1 0.023 0.016 0.055 0.055 0 0 0 -0.023 0 0.039 0.039 0 0 0 -0.016 0l-0.008 -0.008zm-0.156 0.008a0.063 0.063 0 0 1 0.023 -0.031l0.055 -0.008v0.008a0.078 0.078 0 0 0 -0.055 0 0.055 0.055 0 0 0 -0.023 0.039c-0.008 0 -0.008 0 0 0zm0.016 0.031a0.031 0.031 0 0 1 0 -0.023 0.047 0.047 0 0 1 0.023 -0.008h0.008a0.039 0.039 0 0 0 -0.023 0.016 0.023 0.023 0 0 0 0 0.016h-0.008zm-0.281 0.086 -0.008 0.023a0.063 0.063 0 0 0 0 0.023l-0.008 0.008a0.078 0.078 0 0 1 0 -0.031c0 -0.008 0 -0.016 0.016 -0.023zm0.078 0.039v0.016zm-0.047 -0.086a0.078 0.078 0 0 0 0.023 0h0.023a0.109 0.109 0 0 1 -0.023 0.008 0.078 0.078 0 0 1 -0.023 0s-0.008 0 0 -0.008zm0.047 -0.156a0.023 0.023 0 0 0 -0.016 0.008 0.031 0.031 0 0 0 -0.008 0.016h-0.008a0.039 0.039 0 0 1 0.016 -0.023 0.031 0.031 0 0 1 0.016 0h0.008zm-0.078 0.016a0.063 0.063 0 0 0 -0.016 0 0.023 0.023 0 0 0 0 0.016h-0.008c-0.008 0 0 0 0 0a0.031 0.031 0 0 1 0 -0.016 0.07 0.07 0 0 1 0.023 -0.008zm-0.055 0a0.063 0.063 0 0 0 -0.008 0.008 0.055 0.055 0 0 0 -0.008 0.016h-0.008a0.055 0.055 0 0 1 0.008 -0.016 0.07 0.07 0 0 1 0.016 -0.016v0.008zm-0.063 0.055a0.133 0.133 0 0 0 -0.031 0.031v-0.008a0.156 0.156 0 0 1 0.031 -0.031zm0 0.07v0.008l-0.016 0.016c-0.008 0 -0.008 0 0 0v-0.016l0.016 -0.016c0.008 0 0.008 0 0 0zm-0.055 0.016v0.023l-0.008 0.008c-0.008 0 0 0 0 0v-0.031zm0.078 0.109v0.047h-0.008v-0.047h0.008zm-0.047 -0.031v0.023h-0.008v-0.023h0.008zm-0.047 -0.352a0.055 0.055 0 0 1 0.039 0.031v0.008h-0.008a0.055 0.055 0 0 0 -0.016 -0.023 0.055 0.055 0 0 0 -0.016 -0.008v-0.008zm0.406 0.523a0.125 0.125 0 0 1 0 0.109h-0.008a0.125 0.125 0 0 0 0 -0.102v-0.008zm-0.133 0.156c0 -0.023 0.016 -0.039 0.023 -0.055l0.031 -0.047c0.016 -0.016 0.023 -0.031 0.023 -0.055a0.141 0.141 0 0 0 0 -0.055h0.008a0.156 0.156 0 0 1 -0.023 0.117 0.492 0.492 0 0 0 -0.031 0.039l-0.023 0.055h-0.008zm-0.172 -0.047a0.055 0.055 0 0 1 0.016 -0.023 0.07 0.07 0 0 1 0.023 -0.008 0.063 0.063 0 0 0 -0.016 0.016 0.047 0.047 0 0 0 -0.016 0.016zm-0.031 -0.016 0.023 -0.023 0.023 -0.016v0.008a0.078 0.078 0 0 0 -0.023 0.016 0.156 0.156 0 0 0 -0.016 0.023c-0.008 0 -0.008 0 0 0zm0.18 -0.172h0.016a0.063 0.063 0 0 0 0.023 0v0.008a0.063 0.063 0 0 1 -0.047 0c0 -0.008 0 -0.008 0 0zm-0.094 -0.008 0.008 -0.008c0.008 0 0.008 0 0 0v0.008c-0.008 0 0 0 0 0zm1.891 0.547a0.086 0.086 0 0 1 0.016 0.023h-0.008a0.063 0.063 0 0 0 0 -0.008 0.063 0.063 0 0 0 -0.016 -0.016c0 -0.008 0 0 0 0zm-2.094 0.977 0.023 0.023a0.078 0.078 0 0 0 0.039 0v0.008a0.078 0.078 0 0 1 -0.039 0 0.133 0.133 0 0 1 -0.031 -0.023c0 -0.008 0 -0.008 0 0z"/><g fill="red"><path d="M28.82 7.781a0.641 0.641 0 0 0 0.133 0c-0.047 0.023 -0.094 0.047 -0.156 0.055a0.063 0.063 0 0 0 0.023 -0.031 0.031 0.031 0 0 0 0 -0.023zm-0.109 -0.008h0.094v0.031s0 0.016 -0.016 0.023c0 0 -0.008 0 0 0.008a0.438 0.438 0 0 1 -0.102 0 0.078 0.078 0 0 0 0.023 -0.039 0.047 0.047 0 0 0 0 -0.031zm-0.82 -0.234c0.055 -0.016 0.102 -0.016 0.156 -0.016a0.078 0.078 0 0 1 0.039 0.031c0.008 0.016 0.016 0.039 0.008 0.063l0.008 0.008h0.008l-0.008 -0.078a0.078 0.078 0 0 0 -0.023 -0.016h0.016a0.391 0.391 0 0 1 0.164 0.047c0.016 0.016 0.023 0.023 0.016 0.039l-0.023 0.039v0.016h0.016l0.023 -0.055a0.055 0.055 0 0 0 0 -0.023l0.133 0.063a0.039 0.039 0 0 1 0 0.039 0.078 0.078 0 0 1 -0.039 0.023v0.008l0.008 0.008c0.023 0 0.039 -0.016 0.047 -0.031a0.047 0.047 0 0 0 0 -0.031l0.094 0.047v0.023c0 0.016 -0.008 0.023 -0.023 0.031 0 0 -0.008 0 0 0.008 0 0.008 0 0 0 0 0.023 0 0.039 -0.016 0.047 -0.031a0.039 0.039 0 0 0 0 -0.023l0.031 0.008a0.633 0.633 0 0 0 0.102 0.031 0.039 0.039 0 0 1 0.008 0.031 0.055 0.055 0 0 1 -0.016 0.023v0.016c-0.109 -0.008 -0.211 -0.07 -0.32 -0.109l-0.039 -0.016 -0.125 -0.047 -0.008 -0.008a0.664 0.664 0 0 0 -0.117 -0.031 0.477 0.477 0 0 0 -0.125 0h-0.008l-0.008 -0.063a0.102 0.102 0 0 0 -0.039 -0.031z"/><path d="M27.703 7.578a0.68 0.68 0 0 1 0.156 -0.039c0.031 0.008 0.047 0.023 0.055 0.039v0.047a0.328 0.328 0 0 0 -0.133 0.016 0.094 0.094 0 0 0 -0.055 -0.047 0.094 0.094 0 0 0 -0.023 -0.008zm0.578 0.305a0.734 0.734 0 0 0 -0.039 -0.031 0.547 0.547 0 0 0 -0.234 -0.063c0.023 -0.031 0.031 -0.063 0.023 -0.086a0.133 0.133 0 0 0 -0.055 -0.063h0.078a0.625 0.625 0 0 1 0.156 0.047c0 0.023 0.008 0.047 0 0.063 0 0.023 -0.016 0.039 -0.039 0.055 0 0 -0.008 0 0 0.008 0 0.008 0 0.008 0 0 0.031 -0.008 0.047 -0.031 0.055 -0.055v-0.063l0.078 0.047 0.078 0.063c0 0.031 0 0.047 -0.023 0.063h-0.07v0.016z"/><path d="m28.438 8 -0.141 -0.109c0.031 0 0.055 0 0.078 -0.016 0.008 -0.008 0.023 -0.031 0.023 -0.063l0.086 0.078 0.047 0.039v0.031a0.039 0.039 0 0 1 0 0.016 0.047 0.047 0 0 1 -0.031 0.016h-0.055z"/><path d="M28.609 8.109a0.922 0.922 0 0 1 -0.156 -0.102h0.055a0.063 0.063 0 0 0 0.031 -0.016l0.008 -0.031a0.078 0.078 0 0 0 0 -0.016 0.82 0.82 0 0 0 0.164 0.109c0 0.023 0 0.031 -0.023 0.039a0.234 0.234 0 0 1 -0.078 0.008z"/><path d="M28.781 8.18a0.93 0.93 0 0 1 -0.156 -0.063c0.031 0 0.055 0 0.078 -0.016 0.016 0 0.023 -0.016 0.023 -0.039a0.844 0.844 0 0 0 0.102 0.047v0.031l-0.039 0.031s-0.008 0 0 0z"/><path d="M29.156 8.141s0.031 -0.008 0.016 0c-0.109 0.078 -0.242 0.078 -0.375 0.039 0.023 -0.008 0.039 -0.016 0.047 -0.031a0.047 0.047 0 0 0 0 -0.039l0.133 0.031a0.031 0.031 0 0 1 -0.008 0.023l-0.039 0.023s-0.008 0 0 0.008c0 0.008 0 0 0 0 0.023 0 0.039 -0.016 0.047 -0.023a0.047 0.047 0 0 0 0.016 -0.031 0.703 0.703 0 0 0 0.156 0zm-0.758 1.875 -0.016 0.031 -0.094 0.023c0 0.023 0 0.031 0.023 0.031l0.055 -0.023c0.008 0 0 0.039 -0.039 0.063v0.008c0.031 0.047 0.109 0.031 0.148 0.023a0.234 0.234 0 0 0 0.102 -0.078l-0.023 -0.047c-0.031 0.008 -0.047 0 -0.039 -0.016a0.305 0.305 0 0 0 -0.117 -0.016zm-1.18 -0.375c-0.023 0.023 -0.055 0.039 -0.078 0.047 -0.016 0 -0.047 0.008 -0.047 0.023 0 0.008 0.016 0.023 0.031 0.016 0.031 -0.039 0.055 -0.016 0.016 0.016v0.023c0.039 0.031 0.125 0.039 0.172 0.016 0.023 -0.016 0.047 -0.039 0.016 -0.07a0.133 0.133 0 0 1 0 -0.016h-0.047l-0.031 -0.023 -0.031 -0.031zm0.781 0.273h-0.008c-0.016 0.016 0.023 0.016 0.047 0.023 0.016 0.008 0.016 0.023 0.016 0.039 -0.023 0.055 -0.148 0.039 -0.188 0.016 -0.016 -0.008 -0.016 -0.023 -0.016 -0.039h0.023c0.016 0 0.031 0 0.047 -0.016v-0.016h-0.016a0.102 0.102 0 0 1 -0.031 0.016 0.203 0.203 0 0 1 -0.039 0l-0.016 -0.016h0.016l0.055 -0.016 0.008 -0.008c0.039 0 0.078 0 0.102 0.016zm-0.563 -0.031 -0.016 0.023a0.211 0.211 0 0 1 -0.07 0.047c-0.016 0.008 0 0.016 0.016 0.031 0.016 0.008 0.039 -0.016 0.047 -0.031 0.016 -0.023 0.023 -0.016 0.016 0l-0.016 0.055 0.055 0.023c0.031 0 0.078 -0.031 0.094 -0.047 0.023 -0.016 0.016 -0.039 0.008 -0.063a0.156 0.156 0 0 1 -0.039 0 0.266 0.266 0 0 1 -0.039 -0.023l-0.055 -0.016zm0.219 -2.063h0.023l0.047 0.008a0.352 0.352 0 0 1 0.133 -0.023 0.445 0.445 0 0 1 0.133 -0.016v-0.016c0.023 -0.023 0.031 -0.047 0.023 -0.07 -0.008 -0.016 -0.031 -0.039 -0.063 -0.055h-0.102a0.313 0.313 0 0 0 -0.063 0.008l0.047 0.031 0.031 0.078c-0.016 0.008 -0.016 0 -0.016 0 0 -0.031 -0.016 -0.047 -0.023 -0.07l-0.063 -0.031a0.703 0.703 0 0 0 -0.102 0.016c-0.023 0 -0.039 0.016 -0.055 0.023l0.063 0.008c0.023 0.008 0.039 0.031 0.047 0.063 -0.008 0.008 -0.008 0 -0.008 0a0.078 0.078 0 0 0 -0.039 -0.047c-0.031 -0.016 -0.102 0 -0.133 0.016a0.328 0.328 0 0 0 -0.047 0.047l0.156 0.031zm-0.18 -0.031v-0.008l0.055 -0.047 0.055 -0.031a0.156 0.156 0 0 1 0.078 -0.039l0.102 -0.016a0.078 0.078 0 0 0 -0.039 -0.039l-0.063 -0.008 -0.117 0.063h0.039l0.008 0.016h-0.031a0.109 0.109 0 0 0 -0.031 0h-0.008l-0.102 0.078c0.023 0.008 0.047 0.016 0.055 0.031z"/></g><path fill="#0093dd" d="m31.953 12.227 1.625 -3.672 -1.195 -1.93 -2.133 0.781 -0.992 3.891a17.141 17.141 0 0 1 2.695 0.93z"/><path fill="#fff" d="M29.891 8.828a19.664 19.664 0 0 1 3.094 1.07l-0.625 1.422a18.125 18.125 0 0 0 -2.852 -0.992z"/><path fill="red" d="m32.453 11.094 0.422 -0.953a19.422 19.422 0 0 0 -3.047 -1.055l-0.25 0.969a18.43 18.43 0 0 1 2.891 1l-0.008 0.031z"/><path d="M30.125 9.828c0.023 -0.023 0.055 -0.016 0.086 -0.008 0.023 -0.016 0.055 -0.016 0.078 -0.016l0.047 -0.016c0.016 0 0.016 -0.016 0 -0.023a0.047 0.047 0 0 1 0 -0.023c-0.055 -0.031 -0.078 -0.078 -0.094 -0.117 -0.023 0 -0.039 -0.016 -0.039 -0.023h-0.039c-0.063 0 -0.078 -0.023 -0.102 -0.039a0.078 0.078 0 0 1 -0.047 -0.031l-0.023 -0.023c-0.016 -0.023 -0.008 -0.055 0.016 -0.055h0.055a0.156 0.156 0 0 1 0.07 -0.008c0.023 0 0.039 -0.023 0.07 -0.047v-0.031s0 -0.016 0.016 -0.008a0.078 0.078 0 0 1 0.063 0.039c0.039 0 0.078 0.023 0.094 0.055 0.055 0 0.086 0.023 0.094 0.039 0 0.016 -0.016 0.031 -0.039 0.047v0.016l0.031 0.031 0.078 0.055c0.078 -0.008 0.203 0.047 0.375 0.156a1.453 1.453 0 0 1 0.32 0.094h0.07c0.188 -0.031 0.367 0 0.531 0.117 0.063 0.008 0.117 0.031 0.172 0.055 0.039 0.016 0.078 0.023 0.125 0.023a0.625 0.625 0 0 1 0.203 0.055c0.078 0.016 0.148 0.047 0.188 0.094 0.031 0.039 0.023 0.078 -0.016 0.094 -0.023 0.047 -0.07 0.047 -0.141 0.023 -0.047 0.008 -0.102 -0.031 -0.156 -0.07 -0.063 -0.016 -0.125 -0.063 -0.188 -0.102l-0.102 -0.047h-0.063v0.016c0.016 0.016 0.031 0.031 0.031 0.063v0.078c0 0.031 0.023 0.047 0.055 0.07l0.078 0.031c0.016 0 0.023 0.008 0.023 0.023l0.031 0.133 0.031 0.023c0.047 0.039 0.016 0.078 -0.023 0.078a0.242 0.242 0 0 1 -0.102 0.063c-0.031 0.016 -0.047 0 -0.055 -0.016a0.039 0.039 0 0 1 -0.031 -0.016c-0.039 -0.031 -0.008 -0.078 0.078 -0.055l0.016 -0.016a0.117 0.117 0 0 1 0 -0.07l-0.023 -0.016a0.219 0.219 0 0 1 -0.078 -0.047c-0.047 -0.039 -0.117 -0.078 -0.188 -0.109 -0.055 0 -0.094 -0.031 -0.141 -0.055h-0.063c-0.016 0 -0.031 0 -0.039 0.016 -0.016 0.023 -0.039 0.016 -0.063 0.016h-0.125c-0.031 0 -0.055 0 -0.078 0.023 -0.016 0.016 -0.031 0.016 -0.055 0a0.078 0.078 0 0 1 -0.023 -0.016c-0.023 0 -0.039 0 -0.039 -0.016 -0.039 -0.008 -0.047 -0.016 -0.047 -0.031 -0.047 -0.008 -0.023 -0.047 0 -0.047l0.109 0.008c0.031 0.008 0.078 0 0.094 -0.016l0.039 -0.039a0.313 0.313 0 0 1 -0.141 -0.039c-0.086 -0.055 -0.156 -0.07 -0.219 -0.023 -0.016 0.016 -0.023 0.016 -0.047 0.008a0.078 0.078 0 0 0 -0.039 0c-0.039 0.008 -0.07 0 -0.102 -0.008a0.313 0.313 0 0 1 -0.141 0c-0.047 0.023 -0.078 0.031 -0.094 0.016a0.672 0.672 0 0 1 -0.047 -0.031c-0.031 -0.008 -0.039 -0.016 -0.039 -0.023 -0.031 0 -0.039 -0.016 -0.039 -0.031 -0.016 -0.016 0 -0.023 0 -0.031 0.031 -0.016 0.055 -0.016 0.078 0 0.023 0 0.039 0.016 0.047 0.023h0.047c0.008 -0.016 0.039 -0.016 0.078 -0.016l0.055 -0.016v-0.016c-0.031 0 -0.047 -0.031 -0.07 -0.055a0.234 0.234 0 0 1 -0.117 -0.039c-0.031 0 -0.055 -0.008 -0.078 -0.023h-0.055a0.195 0.195 0 0 1 -0.109 0h-0.063a0.078 0.078 0 0 1 -0.078 0.016 0.117 0.117 0 0 0 -0.063 -0.039c-0.023 -0.008 -0.031 -0.016 -0.031 -0.031 -0.031 -0.016 -0.023 -0.031 0 -0.039 0.023 -0.008 0.039 -0.016 0.078 0l0.039 0.016z"/><path fill="#fff" d="M31.344 10.195s0 -0.016 -0.023 0c-0.063 0 -0.125 0 -0.172 -0.031 -0.055 -0.031 -0.102 -0.063 -0.156 -0.063l0.055 -0.031h0.117c0.055 0 0.109 0.016 0.156 0.031 0.031 0.016 0.063 0.039 0.078 0.063a0.266 0.266 0 0 1 0.063 0.055 0.195 0.195 0 0 1 -0.055 0 0.227 0.227 0 0 1 -0.063 -0.023z"/><path d="M31.484 7.398v0.016l0.07 0.383 -0.289 0.25 -0.016 0.008 0.016 0.008 0.367 0.125 0.078 0.383v0.016l0.016 -0.008 0.289 -0.258 0.359 0.125h0.023v-0.008l-0.078 -0.383 0.289 -0.25 0.016 -0.016h-0.023l-0.359 -0.125 -0.078 -0.383V7.266l-0.016 0.008 -0.289 0.258 -0.367 -0.125z"/><path fill="#f7db17" d="m31.297 8.047 0.273 -0.234 0.344 0.109zm0.664 -0.133 0.266 -0.234 0.344 0.117zm0.609 -0.102 -0.266 0.234 -0.344 -0.117zm-0.656 0.125 -0.273 0.234 -0.336 -0.117zm-0.391 -0.5 0.336 0.109 0.063 0.359zm0.43 0.5 0.344 0.117 0.07 0.352zm0.398 0.477 -0.336 -0.117 -0.07 -0.352zm-0.438 -0.5 -0.336 -0.117 -0.07 -0.352zm0.234 -0.602 0.078 0.359 -0.273 0.234zm-0.211 0.633 0.063 0.359 -0.266 0.234zm-0.219 0.586 -0.07 -0.352 0.273 -0.234zm0.219 -0.625 -0.07 -0.359 0.273 -0.234z"/></svg>