<svg xmlns="http://www.w3.org/2000/svg" xmlns:xlink="http://www.w3.org/1999/xlink" viewBox="0 0 50 37.5" width="50" height="37.5"><path fill="#fff" d="M0 0h50v37.5H0z"/><path id="a" fill="#435125" d="M24.047 31.141a0.063 0.063 0 0 1 -0.016 -0.016h-0.008l-0.102 -0.109 -0.297 -0.352 -0.383 -0.492 -0.047 -0.07 -0.484 -0.148 -0.359 -0.164 0.188 -0.211 0.656 0.273 0.484 0.102 0.898 0.664 -0.258 0.227a2.906 2.906 0 0 0 -0.258 0.273l0.055 -0.039 0.063 0.047 -0.125 0.016zm-3.328 -1a2.477 2.477 0 0 1 -1.25 -0.352s0.055 -0.102 0.18 -0.188c0.125 -0.094 0.344 -0.195 0.703 -0.203 0.422 0 0.938 0.148 1.523 0.422a2.25 2.25 0 0 1 -1.156 0.313zm-1.836 -0.406c-0.078 0 -0.156 -0.031 -0.203 -0.078a0.406 0.406 0 0 1 -0.086 -0.188 0.914 0.914 0 0 1 -0.023 -0.266 0.273 0.273 0 0 1 0.102 -0.016c0.156 0 0.281 0.133 0.336 0.266 0.031 0.078 0.039 0.141 0.016 0.195 -0.016 0.047 -0.078 0.078 -0.141 0.078zm3.227 -0.375c-1.086 -0.156 -1.547 -0.547 -1.742 -0.852 -0.203 -0.32 -0.156 -0.625 -0.156 -0.625s0.063 -0.016 0.156 -0.016c0.297 0 1.031 0.148 1.742 1.484zm-2.227 -0.219c-0.461 0 -0.813 -0.078 -1.047 -0.234a0.648 0.648 0 0 1 -0.234 -0.258 0.422 0.422 0 0 1 -0.031 -0.125 1.422 1.422 0 0 1 0.563 -0.109 2.109 2.109 0 0 1 1.477 0.68c-0.266 0.031 -0.508 0.047 -0.727 0.047zm-2.242 -0.078c-0.484 0 -1.156 -0.156 -1.578 -0.57 0 0 0.461 -0.117 0.969 -0.133h0.094c0.461 0 0.813 0.086 1.047 0.266 0.078 0.063 0.125 0.117 0.133 0.172 0.008 0.047 -0.016 0.094 -0.063 0.133 -0.109 0.078 -0.297 0.125 -0.563 0.125h-0.039zm-1.586 -0.82a0.203 0.203 0 0 1 -0.156 -0.078 0.367 0.367 0 0 1 -0.063 -0.156c-0.023 -0.109 -0.016 -0.219 -0.016 -0.227a0.188 0.188 0 0 1 0.078 -0.016c0.07 0 0.125 0.039 0.156 0.078a0.438 0.438 0 0 1 0.109 0.156c0.016 0.07 0.023 0.125 0 0.172 0 0.031 -0.047 0.078 -0.102 0.078zm3.664 -0.078c-0.078 0 -0.156 -0.031 -0.203 -0.078a0.406 0.406 0 0 1 -0.086 -0.188 0.914 0.914 0 0 1 -0.023 -0.266 0.273 0.273 0 0 1 0.102 -0.016c0.156 0 0.289 0.133 0.336 0.266 0.031 0.078 0.039 0.141 0.023 0.195 -0.023 0.047 -0.078 0.078 -0.156 0.078zm-1.781 -0.078c-0.984 -0.031 -1.5 -0.313 -1.75 -0.547a1.141 1.141 0 0 1 -0.266 -0.336c-0.039 -0.078 -0.055 -0.141 -0.055 -0.156s0.094 -0.031 0.234 -0.031h0.031c0.328 0 1.008 0.141 1.797 1.07zm1.063 -0.094a2.406 2.406 0 0 1 -1.477 -0.727 1.516 1.516 0 0 1 -0.32 -0.547s0.094 -0.023 0.234 -0.031a1.109 1.109 0 0 1 0.078 0c0.391 0.008 1.117 0.188 1.484 1.305zm-4.063 -0.391a3.281 3.281 0 0 1 -0.742 -0.078c-0.414 -0.109 -0.594 -0.266 -0.672 -0.383a0.391 0.391 0 0 1 -0.063 -0.156 0.266 0.266 0 0 1 0 -0.063s0.273 -0.078 0.656 -0.086a2.734 2.734 0 0 1 0.578 0.047 1.695 1.695 0 0 1 1 0.633s-0.313 0.094 -0.758 0.094zm1.836 -0.656a0.266 0.266 0 0 1 -0.195 -0.078 0.406 0.406 0 0 1 -0.086 -0.188c-0.031 -0.125 -0.023 -0.25 -0.023 -0.266a0.273 0.273 0 0 1 0.094 -0.023h0.008c0.156 0 0.281 0.141 0.336 0.273 0.031 0.078 0.031 0.141 0.016 0.188 -0.023 0.055 -0.078 0.086 -0.148 0.086zm-1.375 -0.195a3.016 3.016 0 0 1 -0.75 -0.328c-0.344 -0.211 -0.773 -0.586 -0.82 -1.172l0.078 -0.008h0.023c0.102 0 0.313 0.023 0.57 0.219 0.328 0.25 0.625 0.688 0.898 1.289zm0.898 -0.031a2.438 2.438 0 0 1 -0.594 -0.383 3.789 3.789 0 0 1 -1.039 -1.453s0.07 -0.039 0.18 -0.047a0.258 0.258 0 0 1 0.016 0h0.031c0.156 0 0.383 0.07 0.633 0.344 0.297 0.313 0.555 0.828 0.781 1.539zm-2.336 -0.07c-0.305 0 -0.406 -0.156 -0.438 -0.234a0.469 0.469 0 0 1 -0.031 -0.234 0.664 0.664 0 0 1 0.156 -0.016 0.625 0.625 0 0 1 0.508 0.234c0.016 0.031 0.063 0.109 0.023 0.18 -0.031 0.047 -0.102 0.078 -0.219 0.078zm-0.664 -0.844a3.992 3.992 0 0 1 -0.703 -0.055c-0.266 -0.047 -0.414 -0.273 -0.5 -0.461 -0.078 -0.195 -0.109 -0.391 -0.109 -0.391 0.828 0.023 1.227 0.266 1.406 0.469a0.734 0.734 0 0 1 0.203 0.43s-0.125 0.016 -0.297 0.016zm0.859 -0.859a3.336 3.336 0 0 1 -0.188 -0.266c-0.102 -0.156 -0.188 -0.313 -0.188 -0.438 0 -0.133 -0.031 -0.391 -0.047 -0.547l-0.047 -0.352c0.023 0 0.516 0.188 0.516 0.656s-0.047 0.938 -0.047 0.938v0.008zm-0.641 -0.047h-0.016a3.414 3.414 0 0 1 -1.422 -0.844c-0.133 -0.156 -0.219 -0.406 -0.242 -0.734 -0.016 -0.234 0 -0.43 0 -0.453a0.258 0.258 0 0 1 0.086 -0.008c0.109 0 0.234 0.047 0.391 0.156a3.094 3.094 0 0 1 0.406 0.344c0.25 0.25 0.445 0.5 0.445 0.5 0.023 0.031 0.156 0.289 0.273 0.539a1.719 1.719 0 0 1 0.125 0.359c0.008 0.047 0.016 0.078 0 0.109a0.055 0.055 0 0 1 -0.023 0.031 0.07 0.07 0 0 1 -0.031 0z"/><use xlink:href="#a" width="100%" height="100%" transform="matrix(-1 0 0 1 593.7 0)"/><path fill="#d47600" d="m40.547 5.969 -0.141 0.055 -0.063 0.023 -0.172 -0.008 -0.172 0.078 -0.297 0.203 -0.008 0.008 -0.117 0.031 -0.102 -0.047 -0.055 0.031 -0.023 0.117 -0.055 0.086 -0.07 0.047 -0.234 0.023 -0.195 0.109 -0.266 -0.078 -0.117 0.055 -0.258 0.234 -0.133 0.055h-0.039l-0.18 -0.008 -0.07 0.023 -0.109 0.102 -0.203 0.016 -0.07 0.047 -0.102 0.203L37.188 7.5l-0.063 0.008 -0.063 -0.023 -0.055 0.008 -0.023 0.133 -0.047 0.055 -0.141 0.047 -0.109 0.094 -0.102 0.047h-0.156l-0.133 0.078 -0.242 0.016 -0.102 0.094 -0.023 0.023 -0.047 0.023 -0.078 0.047 -0.016 0.016 -0.094 -0.016 -0.109 0.039 -0.047 -0.063 -0.078 0.039 -0.094 0.008 -0.125 -0.055 -0.102 -0.047 -0.07 0.016 -0.023 0.117v0.016l-0.078 0.094 -0.133 0.086 -0.016 0.023 -0.156 0.203 -0.297 0.313 -0.25 0.125 -0.258 0.078 -0.18 0.148 -0.469 0.234 -0.758 0.375 -0.156 0.047 -0.219 0.031 -0.391 0.148 -0.344 0.102 -0.023 0.008 -0.063 0.023 -0.492 0.148 -0.227 -0.031 -0.133 0.055 -0.352 -0.039h-0.242l-0.156 0.031 -0.289 0.141 -0.492 0.234 -0.156 0.156 -0.25 0.125 -0.297 0.094v-0.125l-0.102 0.031 -0.078 0.023 -0.234 0.031h-0.133l-0.086 -0.023h-0.016l-0.484 0.164 -0.547 0.055 -0.273 0.086H26.016l-0.125 0.039 -0.25 0.031 -0.094 -0.023 -0.016 -0.008 -0.734 0.031 -0.336 -0.039 -0.156 0.039 -0.273 -0.094 -0.391 -0.047 -0.094 -0.023 -0.203 -0.063 -0.094 0.055 -0.078 0.008 -0.156 -0.063h-0.063l-0.141 0.047 -0.078 -0.016 -0.078 -0.063 -0.164 -0.023 -0.109 -0.086 -0.586 0.078 -0.156 -0.047 -0.539 -0.156h-0.078l-0.109 0.078 -0.156 0.063 -0.148 0.031 -0.188 0.008 -0.219 -0.055 -0.219 -0.109 -0.086 -0.023 -0.188 0.023h-0.055l-0.344 -0.18 -0.438 -0.273 -0.297 -0.148 -0.117 -0.016 -0.016 0.055 0.055 0.172 0.023 0.18v0.156l-0.008 0.102 0.023 0.086 0.109 0.125 0.047 0.117 0.031 0.328v0.336l-0.055 0.531 -0.016 0.078 -0.063 0.281 -0.055 0.258 -0.227 0.68 -0.055 0.078 -0.156 0.102 -0.336 0.234 -0.25 0.141 -0.078 0.031 -0.203 0.016H17.109l-0.156 -0.086 -0.156 -0.039 -0.203 -0.148 -0.219 -0.047 -0.25 -0.141 -0.063 -0.078 -0.133 -0.016 -0.188 -0.055 -0.07 -0.023 -0.047 -0.008 -0.234 -0.008 -0.227 -0.102 -0.117 -0.031h-0.156l-0.164 0.078 -0.086 0.031 -0.109 -0.039h-0.078l-0.078 0.133 -0.016 0.023 -0.063 0.031h-0.133l-0.063 0.023 -0.086 0.039 -0.078 0.031 -0.039 0.016h-0.023l-0.039 0.016h-0.047l-0.094 -0.047 -0.047 -0.023 -0.078 -0.016 -0.039 0.023 -0.008 0.148 -0.039 0.086 -0.125 0.109 -0.125 0.109 -0.078 0.125 -0.234 0.523 -0.148 0.211 -0.039 0.055 -0.156 0.164 -0.133 0.102 -0.305 0.234 -0.289 0.117 -0.25 0.047h-0.125l-0.234 -0.031 -0.203 -0.063 -0.234 -0.141 -0.242 -0.203 -0.367 -0.352 -0.047 -0.031 -0.016 -0.008 -0.109 -0.078h-0.086l-0.031 0.063 -0.023 0.078 -0.016 0.07 -0.039 0.391v0.023l0.023 0.164 0.281 0.391 0.078 0.203 0.016 0.023 0.055 0.094 0.047 0.078 0.102 0.281 -0.07 0.156 0.031 0.109 -0.078 0.063 -0.016 0.094 0.242 0.313 0.055 0.133 -0.055 0.188 -0.102 0.109 -0.023 0.023 0.016 0.078 0.109 0.109 0.195 0.172 0.102 0.25 0.078 0.078 0.094 -0.023 0.047 0.039h0.078l0.078 0.078 0.047 0.016 0.078 0.039 0.063 0.078 0.008 0.25 0.117 0.297v0.195l0.078 0.117 0.016 0.094 -0.039 0.258 0.094 0.078 0.094 -0.016 0.063 0.008 0.102 0.086 0.125 0.188 0.125 -0.016 0.078 0.031 0.367 0.336 0.078 0.047 0.07 0.031 0.078 0.078 0.109 -0.078h0.016l0.125 -0.016 0.055 0.039 0.109 0.07h0.133l0.313 0.094 0.125 0.031 0.266 0.164 0.117 0.07 0.063 0.055 0.094 0.078 0.172 0.078 0.156 0.031 0.078 0.016 0.07 0.023 0.328 0.133 0.18 0.039 0.156 0.063 0.125 0.039h0.094l0.125 -0.102h0.117l0.102 0.016 0.102 -0.016 0.156 -0.094 0.023 -0.047 0.109 -0.047 0.375 -0.047 0.109 0.031 0.281 -0.117 0.188 0.047 0.156 -0.055 0.367 0.078 0.094 0.07 0.109 0.117h0.133l-0.055 0.086 0.156 0.172 0.148 0.211 0.008 0.031 0.102 0.305 0.078 0.109 0.055 0.148v0.094l-0.078 0.07 -0.016 0.031v0.016l0.016 0.039 0.031 -0.016 0.055 -0.031 0.078 -0.016 0.125 0.016 0.086 0.008 0.133 -0.063 0.094 -0.047 0.141 0.063h0.156l0.07 0.023 0.188 0.086 0.094 0.008 0.031 -0.023 0.023 -0.047 -0.008 -0.063 -0.078 -0.086 -0.156 -0.188 -0.063 -0.094 -0.047 -0.133 -0.016 -0.172 -0.016 -0.117 0.023 -0.156 0.039 -0.055 0.031 -0.125 0.008 -0.031 0.094 -0.117 0.234 -0.156 0.25 -0.219 0.195 -0.133 0.203 -0.086v-0.023l0.031 0.008 0.516 -0.18 0.234 -0.039 1.563 0.109 0.055 -0.016 0.055 -0.148 0.023 -0.023 0.023 -0.016 0.172 -0.078 0.078 -0.016 0.219 0.055 0.094 0.023 0.148 -0.078h0.102l0.211 -0.117h0.133l0.055 -0.016 0.258 -0.188 0.242 -0.07 0.063 -0.031 0.023 -0.016 0.258 -0.133 0.156 -0.125 0.141 -0.078 0.156 -0.031 0.391 -0.031 0.086 -0.133 0.172 -0.023 0.102 -0.117 0.117 -0.047 0.086 -0.125 0.078 -0.102 0.094 -0.055 0.32 -0.023 0.375 0.047 0.055 -0.031 0.078 -0.305 0.094 -0.055 0.234 -0.352v-0.125l0.008 -0.109 0.039 -0.156 -0.023 -0.266 0.031 -0.281 0.148 -0.352 0.133 -0.141 0.211 -0.148 0.109 -0.047 0.156 -0.023h0.016l0.039 -0.016h0.719l0.18 -0.008 0.445 0.078h0.031l0.148 0.055 0.172 0.133 0.188 0.18 0.031 0.031 0.117 0.055 0.039 0.016 0.094 -0.016 0.141 -0.078 0.109 -0.078 0.141 -0.078v-0.016l0.086 -0.117 0.031 -0.055 0.281 -0.109 0.328 -0.016 0.039 -0.023h0.016l0.086 -0.109h0.078l0.203 0.078 0.133 -0.031 0.109 0.039 0.086 -0.008 0.156 -0.023 0.18 0.125 0.102 0.016 0.352 0.203h0.031l0.016 0.008 0.039 -0.016 0.063 -0.016h0.008l0.008 0.008 0.047 0.055 0.055 0.008 0.063 -0.078 -0.023 -0.047 -0.008 -0.016 -0.133 -0.023 -0.109 -0.195 0.109 -0.117 -0.172 -0.203 -0.031 -0.039v-0.008l-0.063 -0.094 -0.297 -0.453 -0.391 -0.313 -0.133 -0.102 -0.047 -0.039 -0.211 -0.211 -0.148 -0.195 -0.016 -0.039 -0.031 -0.07 -0.086 -0.188 -0.156 -0.117 -0.125 -0.141 -0.266 -0.359 -0.039 -0.055 -0.063 -0.039h-0.133l-0.008 -0.016h-0.008v-0.008l0.063 -0.063 0.078 -0.016 0.023 -0.07 -0.133 -0.383v-0.016l-0.008 -0.117 0.102 -0.555 0.016 -0.07 0.188 -0.367 0.109 -0.094 0.125 -0.242 0.109 -0.156 0.102 -0.102 0.016 -0.008 0.18 -0.109 0.156 -0.023 0.148 -0.023 0.258 0.078h0.234l0.055 -0.008 0.109 -0.016 0.18 -0.055 0.086 -0.055 0.047 -0.063 0.094 -0.313 0.031 -0.102 0.055 -0.109 0.336 -0.383 0.25 -0.234 0.563 -0.406 0.273 -0.164 0.141 -0.086 1.258 -0.563 0.328 -0.328 0.172 -0.172 0.297 -0.203 0.352 -0.148 0.313 -0.234 0.063 -0.086 0.078 -0.273 0.078 -0.016 0.055 -0.133 0.023 -0.039 0.242 -0.172 0.031 -0.016 0.961 -0.484 0.141 0.023 0.078 -0.117 0.273 -0.047h0.055l0.07 -0.039 0.055 -0.102v-0.023l0.008 -0.266 0.063 -0.07 0.031 -0.172 0.031 -0.047 0.031 -0.039 0.078 -0.055 -0.016 -0.031z"/></svg>