<svg xmlns="http://www.w3.org/2000/svg" viewBox="0 0 50 37.5" width="50" height="37.5"><path fill="#012169" d="M0 0h50v37.5H0z"/><path fill="#FFF" d="m5.859 0 19.063 14.141L43.906 0h6.094v4.844L31.25 18.828l18.75 13.906v4.766h-6.25L25 23.516 6.328 37.5H0v-4.688l18.672 -13.906L0 5V0h5.859z"/><path fill="#C8102E" d="m33.125 21.953 16.875 12.422v3.125L28.828 21.953h4.297zm-14.375 1.563 0.469 2.734L4.219 37.5H0l18.75 -13.984zM50 0v0.234L30.547 14.922l0.156 -3.438L46.094 0h3.906zM0 0l18.672 13.75h-4.688L0 3.281V0z"/><path fill="#FFF" d="M18.828 0v37.5h12.5V0H18.828zM0 12.5v12.5h50V12.5H0z"/><path fill="#C8102E" d="M0 15.078v7.5h50v-7.5H0zM21.328 0v37.5h7.5V0h-7.5z"/></svg>