<svg xmlns="http://www.w3.org/2000/svg" viewBox="0 0 50 37.5" width="50" height="37.5"><path fill="#0d5eaf" fill-rule="evenodd" d="M0 0h50v4.164H0z"/><path fill="#fff" fill-rule="evenodd" d="M0 4.164h50v4.172H0z"/><path fill="#0d5eaf" fill-rule="evenodd" d="M0 8.336h50V12.5H0z"/><path fill="#fff" fill-rule="evenodd" d="M0 12.5h50v4.164H0z"/><path fill="#0d5eaf" d="M0 0h20.836v20.836H0z"/><path fill="#0d5eaf" fill-rule="evenodd" d="M0 16.664h50v4.172H0z"/><path fill="#fff" fill-rule="evenodd" d="M0 20.836h50V25H0z"/><path fill="#0d5eaf" fill-rule="evenodd" d="M0 25h50v4.164H0z"/><path fill="#fff" fill-rule="evenodd" d="M0 29.164h50v4.172H0z"/><g fill="#fff" fill-rule="evenodd" stroke-width="1.3"><path d="M8.336 0H12.5v20.836h-4.164z"/><path d="M0 8.336h20.836V12.5H0z"/></g><path fill="#0d5eaf" d="M0 33.336h50V37.5H0z"/></svg>