<svg xmlns="http://www.w3.org/2000/svg" viewBox="0 0 50 37.5" width="50" height="37.5"><g fill-rule="evenodd" stroke-width="1pt"><path fill="#ce0000" d="M25 0h25v37.5H25z"/><path fill="#fff" d="M0 0h25v37.5H0z"/></g><g transform="translate(-12.4 -30.8) scale(1.5986)"><path fill="#f1eeee" fill-rule="evenodd" d="M8.188 8.438c0 0.07 -0.07 0.117 -0.156 0.117 -0.094 0 -0.156 -0.047 -0.156 -0.109 0 -0.063 0.063 -0.117 0.156 -0.117 0.086 0 0.156 0.055 0.156 0.117z"/><path fill="#c00" fill-rule="evenodd" d="M3.18 7.891v2.906H6.094c0 0.484 0.484 0.969 0.969 0.969v2.906h2.914v-2.906c0.484 0 0.969 -0.484 0.969 -0.969h2.906V7.891H10.938c0 -0.484 -0.484 -0.969 -0.969 -0.969V4.016H7.063v2.906c-0.492 0 -0.977 0.484 -0.977 0.969H3.18z"/><path fill="#ffe600" fill-rule="evenodd" d="M3.281 7.984V10.703h2.906c0 0.484 0.484 0.969 0.969 0.969v2.906h2.711v-2.898c0.484 0 0.969 -0.484 0.969 -0.969H13.75v-2.719h-2.906c0 -0.484 -0.484 -0.969 -0.969 -0.969V4.109H7.156v2.906c-0.484 0 -0.969 0.484 -0.969 0.969H3.281z"/><path fill="#707070" fill-rule="evenodd" d="M3.375 8.086v2.516h2.906c0 0.484 0.484 0.969 0.969 0.969v2.906h2.523v-2.906c0.484 0 0.969 -0.484 0.969 -0.969h2.906v-2.516h-2.906c0 -0.484 -0.484 -0.969 -0.969 -0.969V4.211H7.25V7.109c-0.484 0 -0.969 0.484 -0.969 0.969H3.375z"/><path fill="#a0a0a0" fill-rule="evenodd" d="M3.477 8.18v2.328h2.906c0 0.484 0.484 0.969 0.969 0.969V14.375h2.32v-2.906c0.484 0 0.969 -0.484 0.969 -0.969h2.906v-2.328h-2.906c0 -0.484 -0.484 -0.969 -0.969 -0.969V4.305H7.352v2.906c-0.484 0 -0.969 0.484 -0.969 0.969H3.469z"/><g fill-rule="evenodd"><path fill="#d0d0d0" d="M7.375 6.969c0.164 0.172 0.031 0.586 -0.313 0.93s-0.75 0.469 -0.922 0.313c-0.172 -0.18 -0.031 -0.594 0.313 -0.938s0.75 -0.469 0.922 -0.305z"/><path fill="gray" d="M7.164 7.172c0.172 0.172 0.125 0.492 -0.102 0.727s-0.547 0.273 -0.719 0.102c-0.172 -0.172 -0.125 -0.492 0.102 -0.719s0.547 -0.273 0.719 -0.109z"/><path fill="#d0d0d0" d="m6.313 7.688 0.063 -0.063 0.273 0.133 -0.133 -0.273 0.07 -0.07 0.273 0.547 -0.547 -0.273zm0.406 -0.406 0.078 -0.078 0.406 0.422 -0.07 0.063z"/></g><g fill-rule="evenodd"><path fill="#d0d0d0" d="M10.883 8.203c-0.172 0.172 -0.586 0.031 -0.922 -0.313s-0.484 -0.75 -0.313 -0.922c0.172 -0.172 0.586 -0.031 0.93 0.313s0.469 0.75 0.313 0.922z"/><path fill="gray" d="M10.68 8c-0.172 0.172 -0.492 0.125 -0.719 -0.102s-0.273 -0.547 -0.109 -0.719c0.172 -0.172 0.5 -0.125 0.727 0.102s0.273 0.547 0.102 0.719z"/><path fill="#d0d0d0" d="m10.164 7.141 0.07 0.07 -0.141 0.273 0.273 -0.141 0.078 0.078 -0.555 0.266 0.273 -0.547zm0.414 0.414 0.063 0.063 -0.406 0.414 -0.07 -0.07z"/></g><g fill-rule="evenodd"><path fill="#d0d0d0" d="M9.648 11.719c-0.172 -0.172 -0.031 -0.586 0.313 -0.93s0.75 -0.477 0.922 -0.313c0.172 0.172 0.031 0.586 -0.313 0.93s-0.75 0.477 -0.922 0.313z"/><path fill="gray" d="M9.859 11.508c-0.172 -0.172 -0.125 -0.492 0.102 -0.719s0.547 -0.273 0.719 -0.102c0.172 0.172 0.125 0.492 -0.102 0.719s-0.547 0.273 -0.727 0.102z"/><path fill="#d0d0d0" d="m10.711 10.992 -0.07 0.078 -0.273 -0.141 0.141 0.273 -0.07 0.063 -0.273 -0.547 0.547 0.273zM10.313 11.406l-0.078 0.07 -0.406 -0.414 0.07 -0.07z"/></g><g fill-rule="evenodd"><path fill="#d0d0d0" d="M6.141 10.484c0.172 -0.172 0.586 -0.031 0.922 0.305s0.477 0.758 0.313 0.922c-0.172 0.172 -0.586 0.039 -0.93 -0.305s-0.469 -0.758 -0.313 -0.922z"/><path fill="gray" d="M6.344 10.688c0.172 -0.172 0.492 -0.125 0.719 0.102s0.273 0.547 0.102 0.719c-0.164 0.172 -0.492 0.125 -0.719 -0.102s-0.273 -0.547 -0.102 -0.719z"/><path fill="#d0d0d0" d="m6.859 11.547 -0.07 -0.078 0.141 -0.266 -0.273 0.133 -0.078 -0.07 0.555 -0.273 -0.273 0.547zm-0.414 -0.414 -0.063 -0.07 0.406 -0.406 0.07 0.063z"/></g><path fill="none" stroke="#707070" stroke-width="0.078125" d="M21.039 32.391c0 3.203 -2.664 5.813 -5.953 5.813S9.141 35.602 9.141 32.391s2.664 -5.813 5.953 -5.813 5.953 2.602 5.953 5.813z" transform="matrix(.34191 0 0 .35003 43 -25.5)"/><path fill="none" stroke="#707070" stroke-width="0.078125" d="M21.039 32.391c0 3.203 -2.664 5.813 -5.953 5.813S9.141 35.602 9.141 32.391s2.664 -5.813 5.953 -5.813 5.953 2.602 5.953 5.813z" transform="matrix(.2605 0 0 .26669 58.6 9)"/><path fill="#d0d0d0" fill-rule="evenodd" d="M7.836 10.992a0.094 0.094 0 1 1 -0.195 0 0.094 0.094 0 0 1 0.195 0zm1.547 0a0.094 0.094 0 1 1 -0.195 0 0.094 0.094 0 0 1 0.195 0zm-0.938 0v0.102h-0.125c-0.133 0 -0.133 0.102 0 0.102h0.125v0.094c0 0.109 0.117 0.117 0.125 0.008v-0.109h0.133c0.133 0 0.133 -0.094 0 -0.094h-0.125v-0.102c0 -0.102 -0.133 -0.102 -0.133 0z"/><path fill="#d0d0d0" fill-rule="evenodd" stroke="#707070" stroke-width="0.0078125" d="M8.031 9.555v0.063s-0.031 0.039 -0.227 0.055c-0.195 0.016 -0.227 0 -0.227 0 0.008 0.055 0.047 0.148 0.031 0.258 0.008 0.133 -0.031 0.25 -0.031 0.25 0 0.008 -0.023 0.016 -0.063 0.008 0.031 -0.031 0.031 -0.109 0.031 -0.234 0 -0.109 -0.117 -0.289 -0.094 -0.336 0.023 -0.047 0.578 -0.063 0.578 -0.063zm0.766 -0.203 0.508 -0.008s0.078 0.156 0.07 0.234c0 0.078 -0.031 0.156 -0.063 0.117 -0.039 -0.039 0.016 -0.031 0.023 -0.117 0 -0.094 -0.063 -0.18 -0.063 -0.18s-0.141 0.055 -0.344 0.047c-0.203 -0.016 -0.109 -0.094 -0.133 -0.094z"/><path fill="#d0d0d0" fill-rule="evenodd" stroke="#707070" stroke-width="0.0078125" d="M8.859 9.5c0.188 -0.008 0.313 0.016 0.313 0.016s0.078 0.156 0.078 0.234c-0.008 0.078 -0.031 0.156 -0.07 0.117 -0.031 -0.031 0.016 -0.023 0.023 -0.117 0 -0.086 -0.063 -0.18 -0.063 -0.18s-0.133 0.055 -0.336 0.047c-0.203 -0.016 -0.141 -0.023 -0.164 -0.031 -0.023 0 -0.031 0.063 -0.336 0.07 -0.313 0 -0.469 -0.07 -0.469 -0.07s-0.031 0.047 -0.219 0.063h-0.234c0.008 0.047 0.047 0.141 0.039 0.258 0 0.125 -0.039 0.25 -0.039 0.25h-0.055c0.031 -0.023 0.023 -0.109 0.031 -0.227 0 -0.117 -0.125 -0.289 -0.102 -0.344 0.031 -0.047 0.172 0 0.195 -0.023 0.023 -0.031 -0.125 -0.211 -0.094 -0.375 0.023 -0.164 0.188 -0.117 0.383 -0.117 0.195 0.008 0.625 0.063 0.734 0 0.109 -0.055 0.063 -0.266 0.156 -0.398a0.32 0.32 0 0 1 0.258 -0.117c0.07 0 0.156 0.234 0.156 0.289l-0.023 0.031h-0.031v0.023c-0.078 0.008 -0.086 -0.063 -0.133 -0.109 -0.016 0.078 0.063 0.344 0.063 0.516 0 0.141 -0.055 0.203 -0.063 0.195z"/><path fill="#d0d0d0" fill-rule="evenodd" stroke="#707070" stroke-width="0.0078125" d="M8.242 9.25c0 0.055 -0.242 0.188 -0.266 0.234 -0.016 0.055 0.063 0.078 0.039 0.109 -0.023 0.031 -0.047 0.016 -0.055 0.023l-0.094 -0.195s0.234 -0.109 0.227 -0.156c-0.008 -0.047 -0.172 -0.078 -0.203 -0.188s-0.016 -0.336 -0.039 -0.383c-0.023 -0.047 -0.313 -0.094 -0.313 -0.156 0 -0.078 0.297 -0.266 0.328 -0.297 0.031 -0.031 0.063 0.031 0.031 0.055 -0.031 0.031 -0.258 0.211 -0.258 0.234 0 0.031 0.188 0.063 0.25 0.063 0.07 0 0.102 -0.031 0.102 -0.063 0 -0.023 -0.07 -0.023 -0.07 -0.078s0.039 -0.094 0.102 -0.094c0.031 0 0.094 0.039 0.094 0.086s-0.055 0.055 -0.063 0.086c-0.008 0.039 0.063 0.063 0.125 0.063s0.281 0.164 0.313 0.195c0.039 0.023 0.07 0.023 0.039 0.055 -0.031 0.031 -0.016 0.063 -0.047 0.031a0.117 0.117 0 0 1 -0.031 -0.055c0 -0.023 -0.234 -0.141 -0.273 -0.117 -0.031 0.031 0 0.375 0 0.406 0 0.055 0.07 0.055 0.063 0.141z"/><path fill="#a7a7a7" fill-rule="evenodd" d="M7.836 8.586h0.391v0.398h-0.391z"/><path width="30.6" height=".4" x="138.6" y="-25.7" fill="gray" fill-rule="evenodd" rx=".5" ry=".2" transform="matrix(.55442 .83223 -.88237 .47055 0 0)" d="M10.867 -2.008H13.18A0.039 0.016 0 0 1 13.219 -1.992V-1.992A0.039 0.016 0 0 1 13.18 -1.977H10.867A0.039 0.016 0 0 1 10.828 -1.992V-1.992A0.039 0.016 0 0 1 10.867 -2.008z"/><path fill="#d0d0d0" fill-rule="evenodd" stroke="#707070" stroke-width="0.078125" d="M14.117 3.32a0.547 0.547 0 1 1 -1.109 0 0.547 0.547 0 0 1 1.109 0z" transform="matrix(.11563 0 0 .10345 80.7 101.5)"/><path fill="gray" fill-rule="evenodd" d="M9.055 8.789c0 0.023 -0.156 0.055 -0.32 0.055 -0.172 0 -0.32 -0.031 -0.32 -0.055 0 -0.023 0.148 0.039 0.313 0.039 0.18 0 0.328 -0.063 0.328 -0.039z"/><path fill="#a7a7a7" fill-rule="evenodd" d="M7.867 8.984h0.32v0.117h-0.313z"/><path fill="gray" fill-rule="evenodd" d="M8.906 8.703c-0.031 0.063 -0.055 0.102 -0.063 0.094 0 0 0.016 -0.063 0.047 -0.117l0.063 -0.094c0.008 0.008 -0.016 0.063 -0.047 0.117zm0.078 0.156 -0.063 0.039a0.25 0.25 0 0 1 0.063 -0.07c0.039 -0.031 0.07 -0.047 0.07 -0.039l-0.063 0.063z"/><path fill="gray" fill-rule="evenodd" d="m8.953 8.781 0.039 0.094 -0.063 -0.078 -0.039 -0.094 0.063 0.078zm-0.031 0.25s-0.094 0.016 -0.219 0.016 -0.227 -0.008 -0.227 -0.016l0.227 -0.016c0.125 0 0.219 0 0.219 0.016zm-0.734 -0.031c0 0.008 -0.07 0.016 -0.156 0.016 -0.094 0 -0.156 0 -0.156 -0.016 0 0 0.063 -0.016 0.156 -0.016 0.086 0 0.156 0.008 0.156 0.016z"/><path fill="#d0d0d0" fill-rule="evenodd" stroke="gray" stroke-width="0.0078125" d="M7.484 10s0.055 0.125 0.281 0.125c0.219 0 0.297 -0.039 0.211 -0.102s-0.266 -0.047 -0.234 0.008c0.016 0.063 -0.07 0.078 -0.086 0.039 -0.023 -0.039 -0.102 -0.164 0.039 -0.172 0.148 -0.008 0.453 -0.055 0.531 0.031s-0.086 0.156 0.039 0.18c0.117 0.016 0.141 -0.023 0.352 -0.031 0.211 -0.016 0.297 0.039 0.367 0.031 0.078 0 0.063 -0.133 0 -0.156 -0.055 -0.039 -0.164 -0.047 -0.195 -0.078 -0.023 -0.039 -0.102 0 -0.094 -0.047 0 -0.039 0.109 0.023 0.109 0.008l0.016 -0.016h-0.023l0.008 -0.016 -0.016 0.008 0.008 -0.016s-0.023 0.016 -0.023 0h-0.016c0.016 -0.016 0.008 -0.016 0 -0.023h-0.023v-0.023c-0.016 0 -0.016 0 -0.023 0.016v-0.039c0 -0.008 0.016 -0.016 0.039 -0.016 0.055 0 0.078 0.063 0.102 0.063 0.016 0 0.039 -0.063 0.109 -0.039l0.117 0.047c0.039 0.023 -0.023 0.047 0 0.078s0.164 0.133 0.125 0.25c-0.039 0.109 -0.156 0.125 -0.156 0.172 -0.016 0.047 0.336 0.031 0.422 0.047a0.234 0.234 0 0 1 0.148 0.094l-0.156 0.008s-0.078 -0.039 -0.273 -0.047c-0.195 0 -0.266 -0.078 -0.344 -0.094l-0.313 0.016 -0.234 -0.023c-0.047 -0.008 -0.328 0.125 -0.328 0.156h-0.188s0.023 -0.07 0.133 -0.078c0.102 -0.016 0.211 -0.063 0.203 -0.094l0.031 -0.203c0 -0.047 0.047 -0.078 0.039 -0.094 -0.008 -0.031 -0.133 -0.055 -0.25 -0.055 -0.117 0 -0.242 0.008 -0.266 0.031 -0.016 0.031 0 0.117 0.023 0.102 0.023 0 -0.008 -0.063 0.016 -0.07a0.531 0.531 0 0 1 0.156 -0.023c0.063 0 0.164 0.055 0.164 0.078 0 0.008 0.031 0.063 -0.016 0.086a0.641 0.641 0 0 1 -0.242 0.031 0.586 0.586 0 0 1 -0.234 -0.063c-0.031 -0.023 -0.055 -0.078 -0.055 -0.086z"/><path fill-rule="evenodd" d="M8.906 9.805a0.023 0.023 0 1 1 -0.047 0 0.023 0.023 0 0 1 0.047 0z"/><path fill="#d0d0d0" d="m10.117 9.438 0.125 0.023 0.211 -0.141 -0.016 0.078 -0.109 0.07 -0.063 0.031 0.039 0.063 0.07 0.109 -0.016 0.078 -0.133 -0.227 -0.125 -0.023 0.016 -0.063zm-0.211 -0.922 0.234 -0.109 -0.063 -0.141 0.031 -0.016 0.156 0.344 -0.023 0.016 -0.07 -0.148 -0.234 0.117 -0.031 -0.063zm-0.375 -0.453 0.219 -0.203 0.047 0.047v0.344l0.172 -0.156 0.039 0.047 -0.219 0.203 -0.047 -0.047v-0.344l-0.172 0.156 -0.039 -0.047zm-0.969 -0.391 0.039 -0.297h0.063l-0.039 0.273 0.234 0.023v0.039l-0.297 -0.039zm-0.477 0.047 -0.055 -0.297 0.063 -0.016 0.047 0.266 0.234 -0.047v0.039l-0.289 0.055zm-0.883 0.43 -0.023 -0.023 0.156 -0.125 0.078 0.078a0.445 0.445 0 0 1 -0.063 0.094 0.445 0.445 0 0 1 -0.07 0.078 0.406 0.406 0 0 1 -0.109 0.063c-0.039 0.008 -0.078 0.016 -0.102 0a0.125 0.125 0 0 1 -0.078 -0.039 0.133 0.133 0 0 1 -0.023 -0.078c0 -0.031 0.008 -0.07 0.031 -0.102 0.016 -0.031 0.047 -0.063 0.078 -0.086a0.375 0.375 0 0 1 0.086 -0.055l0.07 -0.016c0.016 0 0.039 0 0.055 0.016l-0.031 0.039a0.102 0.102 0 0 0 -0.047 -0.008l-0.047 0.008a0.25 0.25 0 0 0 -0.055 0.039c-0.023 0.016 -0.047 0.031 -0.055 0.055a0.156 0.156 0 0 0 -0.031 0.047v0.039c0 0.023 0.008 0.047 0.023 0.063l0.055 0.039 0.078 -0.008a0.32 0.32 0 0 0 0.164 -0.156l-0.031 -0.047 -0.109 0.086zm-0.008 2.164 -0.25 0.18 -0.188 -0.266 0.031 -0.023 0.156 0.211 0.07 -0.055 -0.125 -0.18 0.023 -0.016 0.133 0.18 0.109 -0.078 0.039 0.047zm-0.367 -0.391c0.039 -0.008 0.063 -0.031 0.078 -0.07v-0.117a0.203 0.203 0 0 0 -0.07 -0.102c-0.023 -0.023 -0.063 -0.031 -0.094 -0.023a0.109 0.109 0 0 0 -0.063 0.039c-0.008 0.016 -0.023 0.039 -0.023 0.063l0.008 0.086c0.016 0.047 0.031 0.078 0.063 0.109 0.023 0.023 0.063 0.031 0.102 0.016zm0.023 0.063a0.133 0.133 0 0 1 -0.133 -0.031 0.289 0.289 0 0 1 -0.086 -0.141c-0.016 -0.047 -0.016 -0.078 -0.016 -0.125s0.016 -0.063 0.031 -0.086a0.125 0.125 0 0 1 0.078 -0.055 0.125 0.125 0 0 1 0.078 0.008c0.031 0.016 0.055 0.031 0.078 0.063a0.352 0.352 0 0 1 0.063 0.234 0.18 0.18 0 0 1 -0.031 0.086c-0.016 0.023 -0.039 0.039 -0.063 0.047zm0.023 -0.609h-0.313v-0.219l0.016 -0.094 0.031 -0.055a0.063 0.063 0 0 1 0.047 -0.016c0.023 0 0.039 0.008 0.055 0.031 0.008 0.023 0.023 0.055 0.023 0.102a0.195 0.195 0 0 1 0.055 -0.086l0.086 -0.078v0.078l-0.063 0.055 -0.047 0.047a0.133 0.133 0 0 0 -0.023 0.031 0.125 0.125 0 0 0 0 0.031v0.031l-0.008 0.078H6.875v0.063zm-0.172 -0.07v-0.133a0.313 0.313 0 0 0 0 -0.07 0.078 0.078 0 0 0 -0.016 -0.031 0.039 0.039 0 0 0 -0.023 -0.016c-0.016 0 -0.031 0.008 -0.039 0.023l-0.016 0.078v0.156h0.102zm0.836 -1.32v-0.352l0.063 -0.039 0.32 0.156 -0.063 0.039 -0.094 -0.047 -0.164 0.102v0.109l-0.063 0.031zm0.055 -0.18 0.141 -0.078 -0.078 -0.047a0.648 0.648 0 0 1 -0.07 -0.039l0.008 0.063v0.102zm1.453 -0.094L9.375 7.578l0.055 0.039 -0.023 0.359 -0.055 -0.047 0.008 -0.102 -0.156 -0.117 -0.102 0.039 -0.055 -0.039zm0.188 -0.016 0.133 0.094v-0.094a0.656 0.656 0 0 1 0.016 -0.078 0.289 0.289 0 0 1 -0.055 0.039l-0.094 0.039zm0.805 1.117 0.297 -0.07 0.047 0.211 0.016 0.094 -0.016 0.055a0.063 0.063 0 0 1 -0.039 0.031c-0.023 0 -0.047 0 -0.063 -0.016a0.219 0.219 0 0 1 -0.055 -0.094 0.195 0.195 0 0 1 0 0.039l-0.031 0.063 -0.063 0.094 -0.016 -0.078 0.047 -0.078 0.031 -0.047a0.125 0.125 0 0 0 0.016 -0.063 0.289 0.289 0 0 0 -0.008 -0.039l-0.016 -0.07 -0.133 0.031 -0.016 -0.063zm0.18 0.023 0.031 0.133c0 0.023 0.016 0.047 0.023 0.063 0 0.016 0.016 0.023 0.023 0.031l0.031 0.008c0.008 0 0.023 -0.016 0.023 -0.031a0.164 0.164 0 0 0 0 -0.078l-0.039 -0.148 -0.094 0.023z"/></g></svg>