<svg xmlns="http://www.w3.org/2000/svg" xmlns:xlink="http://www.w3.org/1999/xlink" id="flag-icons-pt" viewBox="0 0 50 37.5" width="50" height="37.5">
  <path fill="red" d="M20 0h30v37.5H20z"/>
  <path fill="#060" d="M0 0h20v37.5H0z"/>
  <g fill="#ff0" fill-rule="evenodd" stroke="#000" stroke-linecap="round" stroke-linejoin="round" stroke-width=".6">
    <path d="M26.523 23.922c-2.523 -0.078 -14.063 -7.281 -14.141 -8.438l0.633 -1.055c1.148 1.664 12.945 8.672 14.109 8.422l-0.602 1.07"/>
    <path d="M12.883 14.281c-0.227 0.609 3.016 2.609 6.906 4.984 3.898 2.367 7.258 3.828 7.5 3.625l0.117 -0.219c-0.047 0.078 -0.156 0.102 -0.336 0.047 -1.055 -0.305 -3.797 -1.563 -7.195 -3.625 -3.406 -2.063 -6.359 -3.961 -6.82 -4.766a0.492 0.492 0 0 1 -0.047 -0.242h-0.016l-0.094 0.172 -0.016 0.023zm13.695 9.672c-0.039 0.078 -0.125 0.078 -0.273 0.063 -0.938 -0.102 -3.797 -1.492 -7.18 -3.516 -3.938 -2.359 -7.188 -4.5 -6.828 -5.063l0.094 -0.172 0.016 0.008c-0.313 0.953 6.414 4.797 6.813 5.047 3.891 2.406 7.172 3.82 7.461 3.453l-0.102 0.18z"/>
    <path d="M20.016 16.188c2.516 -0.023 5.625 -0.344 7.422 -1.063l-0.391 -0.625c-1.055 0.586 -4.18 0.977 -7.055 1.031 -3.391 -0.031 -5.789 -0.352 -6.992 -1.156l-0.359 0.672c2.203 0.938 4.469 1.133 7.375 1.141"/>
    <path d="M27.539 15.141c-0.063 0.102 -1.234 0.5 -2.953 0.797a29.781 29.781 0 0 1 -4.578 0.336 32.508 32.508 0 0 1 -4.391 -0.281c-1.805 -0.281 -2.734 -0.672 -3.086 -0.813l0.086 -0.172c0.992 0.391 1.93 0.625 3.023 0.797A32.148 32.148 0 0 0 20 16.094a30.609 30.609 0 0 0 4.555 -0.336c1.758 -0.289 2.719 -0.656 2.859 -0.82l0.125 0.211zm-0.344 -0.633c-0.188 0.156 -1.141 0.492 -2.813 0.758a30.328 30.328 0 0 1 -4.359 0.313c-1.719 0 -3.133 -0.125 -4.203 -0.281 -1.703 -0.219 -2.609 -0.625 -2.938 -0.734l0.102 -0.172c0.258 0.133 1.125 0.484 2.852 0.727a30.078 30.078 0 0 0 4.188 0.266 30 30 0 0 0 4.328 -0.313c1.68 -0.234 2.586 -0.656 2.727 -0.766l0.117 0.203zM11.742 19.219c1.547 0.836 4.992 1.25 8.25 1.281 2.969 0.008 6.828 -0.453 8.273 -1.219l-0.039 -0.836c-0.453 0.703 -4.594 1.383 -8.266 1.359 -3.672 -0.031 -7.086 -0.594 -8.227 -1.328v0.742"/>
    <path d="M28.344 19.102v0.195c-0.219 0.266 -1.578 0.656 -3.281 0.938a33.906 33.906 0 0 1 -5.109 0.344 31.25 31.25 0 0 1 -4.844 -0.336 12.109 12.109 0 0 1 -3.469 -0.938v-0.227c0.758 0.5 2.805 0.875 3.492 0.984 1.234 0.188 2.82 0.328 4.82 0.328 2.102 0 3.781 -0.148 5.078 -0.344 1.227 -0.18 2.969 -0.641 3.313 -0.945zm0 -0.703v0.195c-0.219 0.258 -1.578 0.648 -3.281 0.93a33.906 33.906 0 0 1 -5.109 0.352 32.344 32.344 0 0 1 -4.844 -0.336 12.109 12.109 0 0 1 -3.469 -0.938v-0.234c0.758 0.508 2.813 0.875 3.492 0.984a31.875 31.875 0 0 0 4.82 0.336c2.102 0 3.789 -0.156 5.078 -0.352 1.227 -0.172 2.969 -0.633 3.313 -0.938zm-8.359 5.375c-3.563 -0.016 -6.617 -0.969 -7.266 -1.125l0.469 0.734a19.516 19.516 0 0 0 6.828 1.117c2.711 -0.078 5.078 -0.289 6.742 -1.102l0.484 -0.766c-1.133 0.539 -5 1.141 -7.266 1.141"/>
    <path d="M26.945 23.227a11.172 11.172 0 0 1 -0.219 0.313c-0.781 0.281 -2.031 0.578 -2.547 0.656a23.086 23.086 0 0 1 -4.195 0.391c-3.156 -0.047 -5.742 -0.664 -6.953 -1.195l-0.102 -0.164 0.016 -0.031 0.164 0.07a22.383 22.383 0 0 0 6.891 1.133c1.469 0 2.93 -0.164 4.109 -0.375 1.813 -0.367 2.547 -0.641 2.773 -0.766l0.055 -0.031zm0.414 -0.688a22.438 22.438 0 0 1 -0.156 0.273c-0.422 0.156 -1.563 0.484 -3.227 0.719 -1.094 0.148 -1.773 0.297 -3.953 0.336a27.141 27.141 0 0 1 -7.359 -1.094L12.578 22.578a30.469 30.469 0 0 0 7.453 1.094c1.992 -0.039 2.844 -0.188 3.93 -0.336 1.938 -0.297 2.914 -0.625 3.203 -0.711a0.227 0.227 0 0 0 0 -0.016l0.203 -0.078z"/>
    <path d="M27.406 18.563c0.008 2.344 -1.195 4.453 -2.156 5.375a7.758 7.758 0 0 1 -5.297 2.203c-2.367 0.039 -4.594 -1.5 -5.195 -2.18a7.891 7.891 0 0 1 -2.148 -5.266c0.141 -2.563 1.148 -4.344 2.602 -5.57a7.781 7.781 0 0 1 5.016 -1.773 7.672 7.672 0 0 1 5.547 2.781c0.977 1.188 1.406 2.477 1.633 4.43zM19.969 10.547a8.281 8.281 0 0 1 8.281 8.219 8.25 8.25 0 1 1 -16.516 0c-0.008 -4.531 3.695 -8.219 8.234 -8.219"/>
    <path d="M19.992 10.508c4.547 0 8.25 3.703 8.25 8.25S24.539 27.008 20 27.008s-8.25 -3.703 -8.25 -8.25c0 -4.547 3.703 -8.25 8.25 -8.25zM11.922 18.75c0 4.438 3.648 8.07 8.07 8.07 4.422 0 8.07 -3.633 8.07 -8.07s-3.648 -8.07 -8.07 -8.07S11.922 14.313 11.922 18.75z"/>
    <path d="M20 11.195a7.578 7.578 0 0 1 7.555 7.555 7.586 7.586 0 0 1 -7.555 7.563c-4.141 0 -7.555 -3.406 -7.555 -7.563a7.586 7.586 0 0 1 7.555 -7.555zM12.625 18.75c0 4.063 3.328 7.375 7.375 7.375s7.375 -3.32 7.375 -7.375c0 -4.063 -3.328 -7.375 -7.375 -7.375a7.406 7.406 0 0 0 -7.375 7.375z"/>
    <path d="M20.336 10.469h-0.711v16.586h0.703z"/>
    <path d="M20.258 10.375h0.18v16.773h-0.172V10.375zm-0.703 0h0.188v16.773h-0.18V10.375z"/>
    <path d="M28.25 19.078v-0.609l-0.5 -0.469 -2.836 -0.75 -4.078 -0.414 -4.922 0.25 -3.5 0.828 -0.703 0.523v0.617l1.789 -0.805 4.25 -0.664h4.086l3 0.328 2.078 0.5z"/>
    <path d="M20 17.484c1.945 0 3.828 0.18 5.336 0.469 1.547 0.313 2.633 0.703 3.008 1.133v0.219c-0.453 -0.547 -1.914 -0.938 -3.047 -1.172 -1.484 -0.281 -3.359 -0.469 -5.305 -0.469 -2.039 0 -3.945 0.203 -5.414 0.484 -1.172 0.234 -2.742 0.703 -2.938 1.156v-0.227c0.102 -0.313 1.273 -0.781 2.914 -1.117 1.477 -0.289 3.383 -0.477 5.438 -0.477zm0 -0.711a29.922 29.922 0 0 1 5.336 0.469c1.547 0.313 2.633 0.703 3.008 1.141v0.211c-0.453 -0.539 -1.914 -0.938 -3.047 -1.164 -1.484 -0.289 -3.359 -0.469 -5.305 -0.469a29.375 29.375 0 0 0 -5.406 0.484c-1.133 0.211 -2.766 0.695 -2.945 1.148v-0.219c0.109 -0.313 1.297 -0.805 2.914 -1.117 1.484 -0.289 3.383 -0.484 5.445 -0.484zm-0.047 -3.609c3.07 -0.016 5.75 0.43 6.977 1.055l0.445 0.781c-1.063 -0.578 -3.953 -1.172 -7.414 -1.094 -2.82 0.023 -5.836 0.313 -7.344 1.125l0.531 -0.891c1.242 -0.648 4.164 -0.977 6.805 -0.977"/>
    <path d="M20 13.805a27.656 27.656 0 0 1 4.789 0.336c1.25 0.234 2.445 0.578 2.617 0.766l0.133 0.234c-0.414 -0.266 -1.453 -0.57 -2.781 -0.82s-3.023 -0.336 -4.766 -0.328c-1.977 -0.008 -3.516 0.094 -4.828 0.328a8.508 8.508 0 0 0 -2.602 0.805l0.133 -0.242c0.469 -0.234 1.195 -0.523 2.43 -0.75 1.367 -0.25 2.922 -0.32 4.875 -0.328zm0 -0.703c1.672 -0.016 3.328 0.078 4.617 0.313a7.5 7.5 0 0 1 2.391 0.781l0.195 0.313c-0.328 -0.367 -1.563 -0.719 -2.664 -0.906 -1.281 -0.227 -2.867 -0.313 -4.539 -0.328a28.203 28.203 0 0 0 -4.648 0.344 7.602 7.602 0 0 0 -2.313 0.711l0.172 -0.258c0.453 -0.234 1.188 -0.453 2.109 -0.633a27.891 27.891 0 0 1 4.68 -0.344zM24.094 22.188a21.594 21.594 0 0 0 -4.102 -0.313c-5.117 0.063 -6.766 1.055 -6.969 1.352l-0.391 -0.625c1.313 -0.938 4.094 -1.469 7.391 -1.422 1.711 0.031 3.188 0.148 4.422 0.391l-0.352 0.625"/>
    <path d="M19.969 21.789c1.422 0.023 2.813 0.078 4.164 0.328l-0.094 0.172c-1.25 -0.234 -2.594 -0.313 -4.063 -0.313 -1.898 -0.016 -3.805 0.164 -5.469 0.641 -0.523 0.148 -1.391 0.484 -1.484 0.766l-0.094 -0.156c0.031 -0.172 0.547 -0.516 1.531 -0.781 1.906 -0.547 3.688 -0.648 5.508 -0.656zm0.063 -0.719a25.547 25.547 0 0 1 4.477 0.391l-0.102 0.18a23.359 23.359 0 0 0 -4.375 -0.383c-1.891 0 -3.898 0.141 -5.727 0.672 -0.586 0.172 -1.609 0.547 -1.641 0.836l-0.094 -0.172c0.016 -0.266 0.898 -0.617 1.695 -0.844 1.836 -0.539 3.852 -0.672 5.766 -0.68z"/>
    <path d="m27.297 22.695 -0.609 0.961 -1.773 -1.57 -4.578 -3.086 -5.172 -2.836 -2.68 -0.914 0.57 -1.063 0.195 -0.102 1.664 0.414 5.5 2.836 3.172 2L26.25 21.25l1.086 1.25z"/>
    <path d="M12.391 15.273c0.469 -0.313 3.922 1.219 7.547 3.406 3.602 2.188 7.055 4.656 6.742 5.117l-0.102 0.164 -0.047 0.039c0.008 -0.008 0.063 -0.078 0 -0.242 -0.156 -0.508 -2.609 -2.461 -6.664 -4.914 -3.961 -2.352 -7.258 -3.773 -7.578 -3.367l0.102 -0.203zM27.422 22.688c0.297 -0.594 -2.906 -3.008 -6.883 -5.359 -4.063 -2.305 -7 -3.664 -7.539 -3.258L12.891 14.297c0 0.008 0 -0.016 0.031 -0.039 0.094 -0.078 0.258 -0.078 0.328 -0.078 0.922 0.016 3.555 1.227 7.25 3.344 1.625 0.938 6.844 4.297 6.82 5.234 0 0.078 0.008 0.094 -0.023 0.141l0.133 -0.203z"/>
  </g>
  <g transform="translate(0 26.7) scale(1.06667)">
    <path fill="#fff" stroke="#000" stroke-width="0.0546875" d="M14.109 16.484a4.586 4.586 0 0 0 1.367 3.258 4.609 4.609 0 0 0 3.266 1.375 4.641 4.641 0 0 0 3.281 -1.359 4.609 4.609 0 0 0 1.359 -3.266v-6.188l-9.273 -0.016V16.484z"/>
    <path fill="red" stroke="#000" stroke-width="0.0390625" d="M14.281 16.492a4.406 4.406 0 0 0 1.313 3.125 4.453 4.453 0 0 0 3.141 1.313 4.445 4.445 0 0 0 3.141 -1.297 4.406 4.406 0 0 0 1.305 -3.125v-6.016H14.297v6m7.109 -4.195v3.82l-0.008 0.398a2.594 2.594 0 0 1 -0.781 1.875 2.656 2.656 0 0 1 -1.875 0.781c-0.734 0 -1.383 -0.313 -1.867 -0.797a2.656 2.656 0 0 1 -0.781 -1.875v-4.219l5.313 0.016z"/>
    <g id="pt-e">
      <g id="pt-d" fill="#ff0" stroke="#000" stroke-width=".5">
        <path stroke="none" d="M14.859 12.063c0.008 -0.43 0.313 -0.531 0.313 -0.531 0.008 0 0.336 0.109 0.336 0.539h-0.648" stroke-width="0.078125"/>
        <path d="m14.594 11.539 -0.055 0.492h0.328c0 -0.406 0.313 -0.469 0.313 -0.469 0.008 0 0.313 0.086 0.32 0.469h0.328l-0.063 -0.5h-1.172zm-0.078 0.5h1.328c0.023 0 0.047 0.023 0.047 0.055 0 0.039 -0.023 0.063 -0.047 0.063h-1.328c-0.023 0 -0.047 -0.023 -0.047 -0.063 0 -0.031 0.023 -0.055 0.055 -0.055z"/>
        <path d="M15 12.031c0 -0.258 0.18 -0.328 0.18 -0.328s0.18 0.078 0.18 0.328H15m-0.453 -0.703h1.273c0.023 0 0.047 0.031 0.047 0.063 0 0.023 -0.023 0.047 -0.047 0.047h-1.273c-0.023 0 -0.047 -0.023 -0.047 -0.055 0 -0.023 0.023 -0.047 0.047 -0.047zm0.031 0.117H15.781c0.023 0 0.047 0.023 0.047 0.055 0 0.031 -0.023 0.055 -0.047 0.055h-1.211c-0.031 0 -0.047 -0.023 -0.047 -0.055 0 -0.031 0.016 -0.055 0.047 -0.055zm0.391 -0.828h0.094v0.063h0.07v-0.063h0.102v0.07h0.07v-0.078h0.094v0.156c0 0.031 -0.016 0.047 -0.039 0.047h-0.344c-0.023 0 -0.047 -0.016 -0.047 -0.039v-0.156zm0.359 0.211 0.023 0.5h-0.336l0.023 -0.508h0.289"/>
        <path id="pt-a" d="M14.922 11.063v0.266h-0.313v-0.266h0.313z"/>
        <use xlink:href="#pt-a" width="100%" height="100%" x="10.6"/>
        <path id="pt-b" d="M14.555 10.859h0.094v0.078h0.07v-0.078h0.094v0.078h0.07v-0.078h0.094v0.156c0 0.031 -0.016 0.047 -0.039 0.047h-0.336a0.047 0.047 0 0 1 -0.047 -0.047v-0.156z"/>
        <use xlink:href="#pt-b" width="100%" height="100%" x="10.6"/>
        <path fill="#000" stroke="none" d="M15.148 10.984c0 -0.047 0.07 -0.047 0.07 0v0.125h-0.07v-0.125" stroke-width="0.078125"/>
        <path id="pt-c" fill="#000" stroke="none" d="M14.734 11.156c0 -0.047 0.063 -0.047 0.063 0v0.094h-0.063v-0.094" stroke-width="0.078125"/>
        <use xlink:href="#pt-c" width="100%" height="100%" x="10.6"/>
      </g>
      <use xlink:href="#pt-d" width="100%" height="100%" y="46.3"/>
      <use xlink:href="#pt-d" width="100%" height="100%" transform="rotate(-45.2 312.8 180)"/>
    </g>
    <use xlink:href="#pt-d" width="100%" height="100%" x="45.7"/>
    <use xlink:href="#pt-e" width="100%" height="100%" transform="matrix(-1 0 0 1 479.8 0)"/>
    <g id="pt-f" fill="#fff">
      <path fill="#039" d="M18.172 15.813a0.648 0.648 0 0 0 0.172 0.445 0.563 0.563 0 0 0 0.414 0.188c0.164 0 0.313 -0.078 0.414 -0.188a0.648 0.648 0 0 0 0.172 -0.445v-0.844h-1.172v0.844"/>
      <path cx="236.1" cy="195.7" r="1.5" d="M18.563 15.289A0.117 0.117 0 0 1 18.445 15.406A0.117 0.117 0 0 1 18.328 15.289A0.117 0.117 0 0 1 18.563 15.289z"/>
      <path cx="244.4" cy="195.7" r="1.5" d="M19.211 15.289A0.117 0.117 0 0 1 19.094 15.406A0.117 0.117 0 0 1 18.977 15.289A0.117 0.117 0 0 1 19.211 15.289z"/>
      <path cx="240.2" cy="199.7" r="1.5" d="M18.883 15.602A0.117 0.117 0 0 1 18.766 15.719A0.117 0.117 0 0 1 18.648 15.602A0.117 0.117 0 0 1 18.883 15.602z"/>
      <path cx="236.1" cy="203.9" r="1.5" d="M18.563 15.93A0.117 0.117 0 0 1 18.445 16.047A0.117 0.117 0 0 1 18.328 15.93A0.117 0.117 0 0 1 18.563 15.93z"/>
      <path cx="244.4" cy="203.9" r="1.5" d="M19.211 15.93A0.117 0.117 0 0 1 19.094 16.047A0.117 0.117 0 0 1 18.977 15.93A0.117 0.117 0 0 1 19.211 15.93z"/>
    </g>
    <use xlink:href="#pt-f" width="100%" height="100%" y="-26"/>
    <use xlink:href="#pt-f" width="100%" height="100%" x="-20.8"/>
    <use xlink:href="#pt-f" width="100%" height="100%" x="20.8"/>
    <use xlink:href="#pt-f" width="100%" height="100%" y="25.8"/>
  </g>
</svg>
