<svg xmlns="http://www.w3.org/2000/svg" viewBox="0 0 50 37.5" width="50" height="37.5"><path fill="#ee1c25" d="M0 0h50v37.5H0z"/><path fill="#0b4ea2" d="M0 0h50v25H0z"/><path fill="#fff" d="M0 0h50v12.5H0z"/><path fill="#fff" d="M18.203 28.969c-3.359 -1.617 -8.172 -4.836 -8.172 -11.188 0 -6.359 0.313 -9.25 0.313 -9.25h15.727s0.305 2.891 0.305 9.25S21.563 27.344 18.203 28.969z"/><path fill="#ee1c25" d="M18.203 28.125c-3.086 -1.484 -7.5 -4.438 -7.5 -10.266s0.281 -8.484 0.281 -8.484h14.438s0.273 2.656 0.273 8.484C25.703 23.695 21.289 26.641 18.203 28.125z"/><path fill="#fff" d="M18.859 16.328c0.836 0.016 2.469 0.047 3.914 -0.438 0 0 -0.031 0.523 -0.031 1.125s0.039 1.125 0.039 1.125c-1.328 -0.445 -2.977 -0.453 -3.922 -0.445v3.219h-1.313v-3.219c-0.938 -0.008 -2.586 0 -3.914 0.445 0 0 0.039 -0.523 0.039 -1.125 0 -0.609 -0.039 -1.125 -0.039 -1.125 1.445 0.484 3.078 0.453 3.906 0.438v-2.023c-0.758 0 -1.852 0.031 -3.094 0.445 0 0 0.039 -0.516 0.039 -1.125 0 -0.602 -0.039 -1.125 -0.039 -1.125 1.242 0.414 2.336 0.453 3.094 0.445 -0.039 -1.281 -0.414 -2.891 -0.414 -2.891s0.773 0.055 1.078 0.055c0.313 0 1.078 -0.055 1.078 -0.055s-0.375 1.609 -0.414 2.891c0.758 0.008 1.852 -0.031 3.094 -0.445 0 0 -0.039 0.523 -0.039 1.125 0 0.609 0.039 1.125 0.039 1.125a9.297 9.297 0 0 0 -3.102 -0.445v2.031z"/><path fill="#0b4ea2" d="M18.203 20.57c-1.555 0 -2.383 2.148 -2.383 2.148s-0.469 -1.016 -1.734 -1.016c-0.859 0 -1.484 0.758 -1.891 1.469 1.563 2.477 4.055 4.008 6.008 4.953 1.953 -0.938 4.453 -2.477 6.008 -4.953 -0.406 -0.703 -1.031 -1.469 -1.891 -1.469 -1.266 0 -1.734 1.016 -1.734 1.016S19.766 20.57 18.203 20.57z"/></svg>