<svg xmlns="http://www.w3.org/2000/svg" viewBox="0 0 50 37.5" width="50" height="37.5"><defs><clipPath id="a"><path fill-opacity=".7" d="M-1.172 0h53.328v40H-1.18z"/></clipPath></defs><g fill-rule="evenodd" stroke-width="1pt" clip-path="url(#a)" transform="translate(14.1) scale(.9375)"><path fill="#fff" d="M-4.844 0H75.156v40H-4.844z"/><path fill="#d50000" d="M-4.844 26.664H75.156V40H-4.844z"/><path fill="#0000bf" d="M-4.844 13.336H75.156v13.328H-4.844z"/><path fill="#d50000" d="M17.844 7.266c-0.313 4.813 -0.5 7.453 -1.227 8.672 -0.797 1.313 -1.563 2.273 -4.664 3.438 -3.094 -1.164 -3.859 -2.125 -4.656 -3.438 -0.734 -1.219 -0.914 -3.859 -1.227 -8.672l0.453 -0.156c0.922 -0.281 1.609 -0.508 2.117 -0.609 0.727 -0.156 1.352 -0.328 3.305 -0.367 1.953 0.031 2.578 0.219 3.305 0.375 0.5 0.109 1.219 0.313 2.133 0.602l0.461 0.156z"/><path fill="#0000bf" d="M17.391 7.109c-0.297 4.805 -0.547 7.008 -0.938 8.063 -0.75 1.813 -1.938 2.805 -4.5 3.75 -2.563 -0.945 -3.75 -1.938 -4.508 -3.75 -0.391 -1.063 -0.625 -3.258 -0.922 -8.07 0.906 -0.281 1.609 -0.5 2.117 -0.602 0.727 -0.156 1.352 -0.336 3.305 -0.367 1.953 0.031 2.578 0.211 3.305 0.367a22.188 22.188 0 0 1 2.141 0.602z"/><path fill="#ffdf00" d="m11.953 8.578 0.117 0.289 0.547 0.078 -0.352 0.211 0.336 0.227 -0.492 0.078 -0.156 0.266 -0.156 -0.273 -0.469 -0.063 0.313 -0.234 -0.328 -0.211 0.523 -0.078 0.117 -0.289z"/><path fill="#fff" d="m16.273 14.031 -0.305 -0.234 -0.211 -0.359 -0.422 -0.367 -0.227 -0.367 -0.422 -0.383 -0.203 -0.367 -0.234 -0.18 -0.141 -0.148 -0.391 0.336 -0.203 0.367 -0.258 0.234 -0.289 -0.227 -0.211 -0.375 -0.805 -1.43 -0.805 1.43 -0.211 0.375 -0.289 0.227 -0.258 -0.234 -0.211 -0.367 -0.383 -0.336 -0.148 0.141 -0.227 0.188 -0.203 0.367 -0.422 0.383 -0.227 0.367 -0.422 0.367 -0.211 0.359 -0.305 0.234a5.141 5.141 0 0 0 1.453 2.836 8.359 8.359 0 0 0 2.859 1.602 8.133 8.133 0 0 0 2.875 -1.602c0.453 -0.469 1.297 -1.508 1.453 -2.836z"/><path fill="#ffdf00" d="m13.234 6.555 0.125 0.289 0.547 0.078 -0.359 0.211 0.344 0.227 -0.492 0.078 -0.156 0.266 -0.156 -0.273 -0.469 -0.063 0.313 -0.234 -0.328 -0.211 0.516 -0.078 0.125 -0.289zm-2.578 0 0.125 0.289 0.547 0.07 -0.352 0.211 0.336 0.227 -0.492 0.078 -0.156 0.266 -0.156 -0.266 -0.469 -0.07 0.313 -0.234 -0.328 -0.211 0.523 -0.078 0.117 -0.289z"/><path fill="#0000bf" d="M15.602 15.859h-0.578l-0.547 -0.039 -0.648 -0.313h-0.734l-0.633 0.313 -0.508 0.047 -0.5 -0.047 -0.633 -0.313H10.078l-0.656 0.313 -0.539 0.047 -0.594 -0.008 -0.281 -0.484 0.008 -0.016 0.875 0.148 0.539 -0.039 0.648 -0.32h0.734l0.641 0.313 0.5 0.047 0.508 -0.047 0.633 -0.313h0.734l0.656 0.313 0.539 0.047 0.844 -0.156 0.016 0.031 -0.289 0.477zm-6.75 0.742 0.578 -0.039 0.648 -0.313h0.734l0.641 0.313 0.5 0.039 0.5 -0.039 0.641 -0.313h0.734l0.648 0.313 0.586 0.039 0.375 -0.469h-0.008l-0.406 0.109 -0.539 -0.039 -0.648 -0.313h-0.734l-0.641 0.313 -0.5 0.047 -0.508 -0.047 -0.633 -0.313H10.078l-0.656 0.313 -0.539 0.047 -0.391 -0.102v0.016l0.352 0.438z"/></g></svg>