<svg xmlns="http://www.w3.org/2000/svg" viewBox="0 0 50 37.5" width="50" height="37.5"><g fill-rule="evenodd"><path fill="#e30a17" d="M0 0h50v37.5H0z"/><path fill="#fff" d="M31.797 19.337c0 5.172 -4.265 9.367 -9.532 9.367S12.733 24.508 12.733 19.328s4.265 -9.36 9.532 -9.36 9.532 4.195 9.532 9.367z"/><path fill="#e30a17" d="M32.265 19.337c0 4.14 -3.407 7.492 -7.617 7.492s-7.625 -3.36 -7.625 -7.5 3.413 -7.485 7.625 -7.485 7.625 3.352 7.625 7.492z"/><path fill="#fff" d="m33.648 14.962 -0.078 3.462 -3.227 0.875 3.187 1.133 -0.078 3.18 2.07 -2.485 3.14 1.093 -1.812 -2.663 2.212 -2.648 -3.398 0.938 -2.015 -2.89z"/></g></svg>