<svg xmlns="http://www.w3.org/2000/svg" id="flag-icons-um" viewBox="0 0 50 37.5" width="50" height="37.5"><path fill="#bd3d44" d="M0 0h50v37.5H0"/><path stroke="#fff" stroke-width="2.890625" d="M0 4.32h50M0 10.078h50M0 15.859h50M0 21.641h50M0 27.422h50M0 33.203h50"/><path fill="#192f5d" d="M0 0h28.5v20.195H0"/><marker id="um-a" markerHeight="30" markerWidth="30"><path fill="#fff" d="m1.094 0 0.703 2.109L0 0.781h2.188L0.391 2.109z"/></marker><path fill="none" marker-mid="url(#um-a)" d="m0 0 1.25 0.859h4.766L3.672 2.891h4.766L1.25 4.922h4.766L3.672 6.953h4.766L1.25 8.984h4.766L3.672 11.016h4.766L1.25 12.969h4.766L3.672 15h4.766L1.25 17.031h4.766L0 0"/></svg>