<svg width="48" height="47" viewBox="0 0 48 47" fill="none" xmlns="http://www.w3.org/2000/svg">
<rect x="15.9395" y="26.8252" width="20.7116" height="20.7116" rx="10.3558" transform="rotate(-13.0703 15.9395 26.8252)" fill="#F4DDA0"/>
<path fill-rule="evenodd" clip-rule="evenodd" d="M24.9146 30.1791C25.1377 30.3476 25.2164 30.6865 25.0904 30.9361L24.1221 32.8532C23.996 33.1027 23.713 33.1684 23.4899 32.9999L22.633 32.3527C22.4099 32.1842 22.3312 31.8453 22.4572 31.5958C22.5833 31.3462 22.8663 31.2805 23.0894 31.449L23.5424 31.7911L24.2824 30.3259C24.4085 30.0763 24.6915 30.0106 24.9146 30.1791Z" fill="black"/>
<path fill-rule="evenodd" clip-rule="evenodd" d="M25.7844 33.9256C26.0075 34.0942 26.0862 34.4331 25.9602 34.6826L24.9919 36.5997C24.8659 36.8493 24.5828 36.915 24.3597 36.7465L23.5028 36.0993C23.2797 35.9308 23.201 35.5919 23.327 35.3423C23.4531 35.0928 23.7361 35.027 23.9592 35.1955L24.4122 35.5377L25.1522 34.0724C25.2783 33.8229 25.5613 33.7571 25.7844 33.9256Z" fill="black"/>
<path fill-rule="evenodd" clip-rule="evenodd" d="M26.6543 37.6725C26.8774 37.841 26.9561 38.18 26.83 38.4295L25.8618 40.3466C25.7357 40.5962 25.4527 40.6619 25.2296 40.4934L24.3727 39.8462C24.1496 39.6777 24.0709 39.3388 24.1969 39.0892C24.323 38.8397 24.606 38.7739 24.8291 38.9424L25.2821 39.2846L26.0221 37.8193C26.1482 37.5698 26.4312 37.504 26.6543 37.6725Z" fill="black"/>
<path fill-rule="evenodd" clip-rule="evenodd" d="M27.2203 35.1196C27.1517 34.824 27.3129 34.5341 27.5803 34.472L32.9074 33.2352C33.1748 33.1731 33.4473 33.3624 33.5159 33.6581C33.5845 33.9537 33.4233 34.2437 33.1559 34.3057L27.8289 35.5425C27.5614 35.6046 27.289 35.4153 27.2203 35.1196Z" fill="black"/>
<path fill-rule="evenodd" clip-rule="evenodd" d="M28.0901 38.8662C28.0215 38.5706 28.1827 38.2806 28.4502 38.2185L33.7772 36.9818C34.0446 36.9197 34.3171 37.109 34.3857 37.4046C34.4543 37.7002 34.2931 37.9902 34.0257 38.0523L28.6987 39.289C28.4312 39.3511 28.1588 39.1618 28.0901 38.8662Z" fill="black"/>
<path fill-rule="evenodd" clip-rule="evenodd" d="M26.3505 31.3727C26.2818 31.0771 26.443 30.7872 26.7105 30.7251L32.0375 29.4883C32.3049 29.4262 32.5774 29.6156 32.646 29.9112C32.7146 30.2068 32.5535 30.4968 32.286 30.5589L26.959 31.7956C26.6915 31.8577 26.4191 31.6684 26.3505 31.3727Z" fill="black"/>
<rect x="22.3408" y="4.68408" width="20.7116" height="20.7116" rx="10.3558" transform="rotate(-13.0703 22.3408 4.68408)" fill="#A0F4CC" fill-opacity="0.45"/>
<path d="M34.3522 14.6196L34.3597 14.6185L34.367 14.6162C34.501 14.5741 34.6133 14.4816 34.6804 14.3583L38.6946 7.91655L38.7037 7.90199L38.7074 7.88524C38.7318 7.7747 38.7214 7.6593 38.6775 7.55495C38.6336 7.45059 38.5585 7.3624 38.4624 7.30253C38.3663 7.24266 38.254 7.21404 38.141 7.22063C38.028 7.22721 37.9198 7.26867 37.8313 7.3393L37.8181 7.34989L37.8091 7.36427L34.0478 13.3529L32.3637 12.3034L32.3492 12.2943L32.3324 12.2906C32.2219 12.2662 32.1065 12.2767 32.0021 12.3205C31.8978 12.3644 31.8096 12.4396 31.7497 12.5357C31.6898 12.6317 31.6612 12.744 31.6678 12.857C31.6744 12.97 31.7158 13.0782 31.7865 13.1667L31.7972 13.1801L31.8117 13.1892L33.9572 14.5262C34.0717 14.6073 34.2133 14.6409 34.3522 14.6196ZM32.4866 18.4215L39.4601 16.8025C39.9098 16.6981 40.2996 16.4194 40.5437 16.0276C40.7879 15.6358 40.8664 15.1631 40.762 14.7134L39.7218 10.2329C39.689 10.0915 39.6013 9.96888 39.4781 9.89209C39.3549 9.8153 39.2062 9.79061 39.0648 9.82345C38.9233 9.85628 38.8007 9.94395 38.724 10.0672C38.6472 10.1904 38.6225 10.3391 38.6553 10.4805L39.6955 14.961C39.7342 15.1278 39.7051 15.3032 39.6145 15.4485C39.524 15.5939 39.3794 15.6973 39.2125 15.736L32.239 17.355C32.0722 17.3937 31.8968 17.3646 31.7515 17.274C31.6061 17.1835 31.5027 17.0388 31.464 16.872L29.845 9.8985C29.8063 9.73168 29.8354 9.55631 29.926 9.41096C30.0165 9.26562 30.1611 9.1622 30.328 9.12347L35.4768 7.92813C35.6182 7.89529 35.7408 7.80762 35.8176 7.6844C35.8944 7.56118 35.919 7.4125 35.8862 7.27107C35.8534 7.12965 35.7657 7.00705 35.6425 6.93027C35.5193 6.85348 35.3706 6.82878 35.2292 6.86162L30.0804 8.05697C29.6307 8.16136 29.2409 8.44012 28.9968 8.83191C28.7526 9.2237 28.6741 9.69643 28.7785 10.1461L30.3975 17.1196C30.5019 17.5693 30.7806 17.9591 31.1724 18.2032C31.5642 18.4474 32.0369 18.5259 32.4866 18.4215Z" fill="black" stroke="black" stroke-width="0.2"/>
<rect y="10.4819" width="20.7116" height="20.7116" rx="10.3558" transform="rotate(-13.0703 0 10.4819)" fill="#F4A0A0" fill-opacity="0.45"/>
<path d="M12.7589 16.6966L11.198 19.2032C11.1613 19.2616 11.1366 19.3266 11.1251 19.3946C11.1137 19.4626 11.1159 19.5321 11.1315 19.5993C11.147 19.6664 11.1758 19.7298 11.216 19.7858C11.2562 19.8418 11.307 19.8893 11.3657 19.9255C11.424 19.9622 11.489 19.987 11.5569 19.9984C11.6249 20.0099 11.6944 20.0077 11.7615 19.9922C11.8286 19.9766 11.892 19.9479 11.9479 19.9077C12.0039 19.8674 12.0513 19.8166 12.0875 19.7579L13.6484 17.2513C13.7219 17.1333 13.7455 16.9909 13.7141 16.8555C13.6826 16.72 13.5987 16.6026 13.4807 16.529C13.3628 16.4555 13.2205 16.4318 13.0851 16.4632C12.9497 16.4947 12.8324 16.5786 12.7589 16.6966Z" fill="black"/>
<path d="M13.2032 20.9409L12.7025 21.7379C12.4247 22.1993 11.9868 22.5422 11.4724 22.7012C10.9579 22.8602 10.403 22.8241 9.9133 22.5999C9.65183 22.4699 9.42051 22.2864 9.23428 22.0614C9.04805 21.8364 8.91104 21.5749 8.83212 21.2936C8.75319 21.0124 8.7341 20.7177 8.77607 20.4287C8.81805 20.1396 8.92016 19.8626 9.07581 19.6155L9.62876 18.7206C9.66543 18.6622 9.69018 18.5972 9.7016 18.5292C9.71302 18.4612 9.71087 18.3917 9.69528 18.3245C9.67969 18.2574 9.65097 18.194 9.61077 18.138C9.57058 18.082 9.5197 18.0345 9.46108 17.9983C9.40276 17.9616 9.33775 17.9368 9.26981 17.9254C9.20187 17.9139 9.13235 17.9161 9.06524 17.9316C8.99814 17.9472 8.93478 17.9759 8.87883 18.0161C8.82288 18.0563 8.77545 18.1072 8.73926 18.1659L8.24484 18.9668C7.82335 19.62 7.65312 20.4041 7.76574 21.1736C7.87836 21.943 8.26619 22.6455 8.85722 23.1506C9.20443 23.435 9.60814 23.6422 10.0415 23.7586C10.4749 23.8749 10.928 23.8976 11.3708 23.8252C11.8136 23.7528 12.2358 23.587 12.6096 23.3388C12.9834 23.0905 13.3 22.7655 13.5386 22.3854L14.0927 21.4956C14.1662 21.3776 14.1898 21.2352 14.1583 21.0997C14.1269 20.9643 14.043 20.8468 13.925 20.7733C13.8071 20.6997 13.6647 20.6761 13.5294 20.7075C13.394 20.7389 13.2767 20.8229 13.2032 20.9409ZM15.2802 12.8574C14.5613 12.5453 13.7536 12.5057 13.0079 12.7459C12.2622 12.9861 11.6294 13.4898 11.2278 14.1628L10.8087 14.8497C10.7565 14.9099 10.7176 14.9804 10.6944 15.0567C10.6712 15.1329 10.6643 15.2131 10.6741 15.2922C10.6839 15.3713 10.7101 15.4475 10.7512 15.5158C10.7922 15.5841 10.8472 15.643 10.9124 15.6887C10.9707 15.7254 11.0357 15.7502 11.1037 15.7616C11.1716 15.7731 11.2411 15.7709 11.3082 15.7554C11.3753 15.7398 11.4387 15.7111 11.4946 15.6709C11.5506 15.6306 11.598 15.5798 11.6342 15.5211L12.1403 14.7014C12.4158 14.2388 12.8528 13.8948 13.367 13.7358C13.8812 13.5768 14.4361 13.6142 14.9245 13.8406C15.1876 13.9702 15.4204 14.1539 15.6079 14.3796C15.7954 14.6053 15.9332 14.8679 16.0124 15.1505C16.0917 15.433 16.1105 15.729 16.0678 16.0193C16.025 16.3096 15.9216 16.5875 15.7643 16.8351L15.2114 17.7301C15.1747 17.7884 15.1499 17.8534 15.1385 17.9214C15.1271 17.9894 15.1293 18.059 15.1448 18.1261C15.1604 18.1932 15.1892 18.2566 15.2294 18.3126C15.2696 18.3686 15.3204 18.4161 15.3791 18.4523C15.4374 18.489 15.5024 18.5138 15.5703 18.5253C15.6383 18.5367 15.7078 18.5346 15.7749 18.519C15.842 18.5034 15.9053 18.4747 15.9613 18.4345C16.0172 18.3943 16.0647 18.3434 16.1009 18.2847L16.655 17.3949C16.8901 17.0134 17.0415 16.5862 17.0991 16.1417C17.1567 15.6972 17.1193 15.2455 16.9893 14.8165C16.8593 14.3875 16.6398 13.991 16.3451 13.6533C16.0504 13.3155 15.6874 13.0443 15.2802 12.8574Z" fill="black"/>
</svg>
