<svg xmlns="http://www.w3.org/2000/svg" width="24" height="24" viewBox="0 0 24 24">
  <g id="Group_26248" data-name="Group 26248" transform="translate(23598 17847)">
    <path id="Subtraction_28" data-name="Subtraction 28" d="M11,22A11,11,0,1,1,22,11,11.012,11.012,0,0,1,11,22Zm.025-17.9A6.84,6.84,0,0,0,5.1,14.356l-.967,3.533,3.621-.943a6.821,6.821,0,0,0,3.268.83h.005a6.838,6.838,0,1,0,0-13.676Zm0,12.52H11.02a5.71,5.71,0,0,1-2.893-.789l-.209-.123-2.151.563.574-2.092-.13-.22A5.684,5.684,0,0,1,11.025,5.25a5.689,5.689,0,0,1,5.684,5.69A5.689,5.689,0,0,1,11.025,16.619ZM8.606,7.781a.615.615,0,0,0-.455.212l-.031.033a1.867,1.867,0,0,0-.569,1.389,3.264,3.264,0,0,0,.7,1.768l.033.048a6.58,6.58,0,0,0,2.885,2.53,4.764,4.764,0,0,0,1.7.455,2.223,2.223,0,0,0,.267-.018l.082-.009a1.712,1.712,0,0,0,1.156-.813,1.452,1.452,0,0,0,.1-.812.6.6,0,0,0-.245-.155l-.087-.041c-.179-.093-1.01-.5-1.168-.556a.511.511,0,0,0-.18-.045.247.247,0,0,0-.2.127c-.118.178-.461.58-.539.67a.238.238,0,0,1-.186.1.411.411,0,0,1-.182-.054c-.03-.015-.07-.033-.122-.055a4.379,4.379,0,0,1-1.253-.792,5.225,5.225,0,0,1-.955-1.186.255.255,0,0,1,.076-.349,3.451,3.451,0,0,0,.253-.3l0,0a.815.815,0,0,0,.143-.22l.029-.058a.324.324,0,0,0-.012-.3c-.024-.043-.129-.3-.239-.572-.1-.25-.217-.534-.288-.7-.132-.286-.262-.292-.387-.3Z" transform="translate(-23597 -17846)" fill="#40c451"/>
    <rect id="Rectangle_6628" data-name="Rectangle 6628" width="24" height="24" transform="translate(-23598 -17847)" fill="none"/>
    <g id="WhatsApp" transform="translate(-23605.834 -17854.701)">
      <path id="Path_31766" data-name="Path 31766" d="M31.693,25.227a5.685,5.685,0,0,0-4.818,8.706l.135.215-.574,2.1,2.151-.564.208.123a5.677,5.677,0,0,0,2.893.792h0a5.685,5.685,0,0,0,0-11.37Z" transform="translate(-11.828 -11.27)" fill="rgba(0,0,0,0)"/>
    </g>
  </g>
</svg>
