<svg xmlns="http://www.w3.org/2000/svg" width="24" height="24" viewBox="0 0 24 24">
  <g id="Group_26247" data-name="Group 26247" transform="translate(23559 17847)">
    <path id="Subtraction_26" data-name="Subtraction 26" d="M11,22A11,11,0,1,1,22,11,11.012,11.012,0,0,1,11,22ZM8.4,16.7h0v0a7.85,7.85,0,0,0,6.082-2.669A8.474,8.474,0,0,0,16.59,8.51c0-.123,0-.249-.009-.373a5.846,5.846,0,0,0,1.437-1.491,5.708,5.708,0,0,1-1.653.453A2.886,2.886,0,0,0,17.63,5.506a5.755,5.755,0,0,1-1.829.7,2.882,2.882,0,0,0-4.073-.125A2.891,2.891,0,0,0,10.9,8.832,8.183,8.183,0,0,1,4.962,5.823a2.889,2.889,0,0,0,.891,3.845,2.87,2.87,0,0,1-1.307-.361v.037a2.889,2.889,0,0,0,2.309,2.822,2.882,2.882,0,0,1-1.3.05,2.882,2.882,0,0,0,2.689,2,5.8,5.8,0,0,1-3.568,1.235H4.669a5.843,5.843,0,0,1-.685-.041,8.13,8.13,0,0,0,4.4,1.291Z" transform="translate(-23558 -17846)" fill="#1d9bf0"/>
    <rect id="Rectangle_6628" data-name="Rectangle 6628" width="24" height="24" transform="translate(-23559 -17847)" fill="none"/>
  </g>
</svg>
