<svg width="20" height="22" viewBox="0 0 20 22" fill="none" xmlns="http://www.w3.org/2000/svg">
<path d="M17 11V4.749C17.0001 4.67006 16.9845 4.59189 16.9543 4.51896C16.9241 4.44603 16.8798 4.37978 16.824 4.324L13.676 1.176C13.5636 1.06345 13.4111 1.00014 13.252 1H1.6C1.44087 1 1.28826 1.06321 1.17574 1.17574C1.06321 1.28826 1 1.44087 1 1.6V20.4C1 20.5591 1.06321 20.7117 1.17574 20.8243C1.28826 20.9368 1.44087 21 1.6 21H8M5 9H13M5 5H9M5 13H8M17.5 19.5L19 21" stroke="black" stroke-width="1.5" stroke-linecap="round" stroke-linejoin="round"/>
<path d="M13 1V4.4C13 4.55913 13.0632 4.71174 13.1757 4.82426C13.2883 4.93679 13.4409 5 13.6 5H17M12 17C12 17.7956 12.3161 18.5587 12.8787 19.1213C13.4413 19.6839 14.2044 20 15 20C15.7956 20 16.5587 19.6839 17.1213 19.1213C17.6839 18.5587 18 17.7956 18 17C18 16.2044 17.6839 15.4413 17.1213 14.8787C16.5587 14.3161 15.7956 14 15 14C14.2044 14 13.4413 14.3161 12.8787 14.8787C12.3161 15.4413 12 16.2044 12 17Z" stroke="black" stroke-width="1.5" stroke-linecap="round" stroke-linejoin="round"/>
</svg>
