<svg width="156" height="81" viewBox="0 0 156 81" fill="none" xmlns="http://www.w3.org/2000/svg">
<path d="M58.891 81C56.4161 81 53.9413 80.058 52.052 78.1628L25.8339 51.8631C22.0554 48.0727 22.0554 41.9328 25.8339 38.1535C29.6125 34.3632 35.7223 34.3521 39.5009 38.1425L58.891 57.5929L104.499 11.8428C108.278 8.05241 114.387 8.05241 118.166 11.8428C121.945 15.6331 121.945 21.773 118.166 25.5634L65.73 78.1628C63.8407 80.058 61.3658 81 58.891 81Z" fill="#75D76D"/>
<path d="M140.156 51C139.525 51 138.893 50.7645 138.411 50.2907L131.723 43.7158C130.759 42.7682 130.759 41.2332 131.723 40.2884C132.687 39.3408 134.245 39.338 135.209 40.2856L140.156 45.1482L151.791 33.7107C152.755 32.7631 154.313 32.7631 155.277 33.7107C156.241 34.6583 156.241 36.1933 155.277 37.1408L141.901 50.2907C141.419 50.7645 140.787 51 140.156 51Z" fill="#75D76D"/>
<path d="M101.761 81C101.433 81 101.104 80.8692 100.854 80.6059L97.3759 76.9532C96.8747 76.4268 96.8747 75.574 97.3759 75.0491C97.8772 74.5227 98.6877 74.5211 99.1889 75.0476L101.761 77.749L107.811 71.3948C108.312 70.8684 109.123 70.8684 109.624 71.3948C110.125 71.9213 110.125 72.774 109.624 73.3005L102.668 80.6059C102.418 80.8692 102.089 81 101.761 81Z" fill="#75D76D"/>
<path d="M13.1844 26C12.2753 26 11.3662 25.6598 10.6722 24.9754L1.04104 15.4783C-0.347012 14.1096 -0.347012 11.8924 1.04104 10.5277C2.42909 9.15893 4.67351 9.15493 6.06156 10.5237L13.1844 17.5474L29.9384 1.02655C31.3265 -0.342184 33.5709 -0.342184 34.959 1.02655C36.347 2.39529 36.347 4.61248 34.959 5.98122L15.6967 24.9754C15.0027 25.6598 14.0936 26 13.1844 26Z" fill="#75D76D"/>
</svg>
