<svg width="126" height="126" viewBox="0 0 126 126" fill="none" xmlns="http://www.w3.org/2000/svg">
<circle cx="63" cy="63" r="63" fill="#FBD2AD"/>
<path d="M62.5992 83.6982C59.3126 83.6982 56.6318 86.3657 56.6318 89.6696C56.6318 92.9736 59.2975 95.641 62.5992 95.641C65.9009 95.641 68.5666 92.9736 68.5666 89.6696C68.5666 86.3657 65.9009 83.6982 62.5992 83.6982Z" fill="#FF7800"/>
<path d="M62.6142 76.7416C64.7952 76.7416 66.749 74.0591 66.9459 70.7854L69.2329 31.9562C69.4297 28.6826 66.9004 26 63.6138 26H61.6298C58.3432 26 55.8139 28.6826 56.0108 31.9562L58.2977 70.7854C58.4946 74.0591 60.4333 76.7416 62.6294 76.7416H62.6142Z" fill="#FF7800"/>
</svg>
