<svg xmlns="http://www.w3.org/2000/svg" xmlns:xlink="http://www.w3.org/1999/xlink" width="56" height="56" viewBox="0 0 56 56">
  <defs>
    <clipPath id="clip-path">
      <rect id="Rectangle_8446" data-name="Rectangle 8446" width="31" height="49" transform="translate(144 370)" fill="#fff"/>
    </clipPath>
  </defs>
  <g id="Group_21109" data-name="Group 21109" transform="translate(-635 -317)">
    <g id="Group_21026" data-name="Group 21026" transform="translate(504 -49)" clip-path="url(#clip-path)">
      <g id="Group_21025" data-name="Group 21025" transform="translate(154.222 412.025)">
        <ellipse id="Ellipse_392" data-name="Ellipse 392" cx="5" cy="3" rx="5" ry="3" transform="translate(-0.222 -0.024)" fill="rgba(0,0,0,0.12)"/>
      </g>
      <path id="Path_4747" data-name="Path 4747" d="M173.395,385.2a14.132,14.132,0,0,1-2.86,8.547,34.305,34.305,0,0,1-2.456,2.878c-3.317,3.632-7.746,8.484-7.746,16.4a1.136,1.136,0,0,1-2.272,0c0-7.918-4.43-12.77-7.746-16.4a34.3,34.3,0,0,1-2.456-2.878,14.2,14.2,0,1,1,25.535-8.547Z" transform="translate(0.136 0.136)" fill="#232323" fill-rule="evenodd"/>
      <path id="Path_4748" data-name="Path 4748" d="M170.671,393.88l-.906-.685-.008.011-.008.01Zm-2.456,2.878.839.766Zm-17.764,0,.838-.766h0ZM148,393.88l.922-.663-.008-.01-.008-.011Zm23.581.685a15.273,15.273,0,0,0,3.089-9.232h-2.272a13,13,0,0,1-2.63,7.862Zm-2.523,2.959a35.333,35.333,0,0,0,2.539-2.98l-1.845-1.327a33.1,33.1,0,0,1-2.372,2.776ZM161.6,413.16c0-7.438,4.128-12,7.45-15.637l-1.678-1.531c-3.312,3.627-8.044,8.769-8.044,17.168Zm-2.272,2.272a2.271,2.271,0,0,0,2.272-2.272h-2.272Zm-2.272-2.272a2.271,2.271,0,0,0,2.272,2.272V413.16Zm-7.45-15.637c3.322,3.638,7.45,8.2,7.45,15.637h2.272c0-8.4-4.732-13.541-8.044-17.168Zm-2.539-2.98a35.336,35.336,0,0,0,2.539,2.98l1.678-1.531a33.093,33.093,0,0,1-2.372-2.776ZM144,385.333a15.273,15.273,0,0,0,3.089,9.232l1.813-1.37a13,13,0,0,1-2.631-7.862ZM159.333,370A15.333,15.333,0,0,0,144,385.333h2.272a13.062,13.062,0,0,1,13.062-13.062Zm15.333,15.333A15.333,15.333,0,0,0,159.333,370v2.272a13.062,13.062,0,0,1,13.062,13.062Z" fill="#fff"/>
      <circle id="Ellipse_393" data-name="Ellipse 393" cx="5" cy="5" r="5" transform="translate(154 380)" fill="#fff"/>
    </g>
    <rect id="Rectangle_6646" data-name="Rectangle 6646" width="56" height="56" transform="translate(635 317)" fill="none"/>
  </g>
</svg>
