<svg width="200" height="120" viewBox="0 0 200 120" fill="none" xmlns="http://www.w3.org/2000/svg">
<path d="M1.11655 59.9025L1.69068 4.17139C1.73231 0.130887 1.7311 0.248775 5.78201 0.558473C19.4977 1.48022 32.4426 7.24594 42.3152 16.8306C51.1745 25.2049 57.2215 36.1282 59.6216 48.0929C62.1398 60.5568 60.6343 73.5004 55.323 85.0501C50.0117 96.5999 41.1701 106.156 30.0783 112.336C22.3096 116.683 13.6609 119.214 4.77886 119.74C0.604884 119.954 0.498038 119.942 0.540104 115.859L1.11655 59.9025Z" fill="#F6CA45"/>
<path d="M69.0384 59.9025L69.6126 4.17139C69.6542 0.130887 69.653 0.248775 73.7039 0.558473C87.4196 1.48022 100.364 7.24594 110.237 16.8306C119.096 25.2049 125.143 36.1282 127.543 48.0929C130.062 60.5568 128.556 73.5004 123.245 85.0501C117.934 96.5999 109.092 106.156 98.0001 112.336C90.2315 116.683 81.5828 119.214 72.7007 119.74C68.5268 119.954 68.4199 119.942 68.462 115.859L69.0384 59.9025Z" fill="#ED6E2D"/>
<path d="M136.959 59.9025L137.533 4.17139C137.575 0.130887 137.574 0.248775 141.625 0.558473C155.34 1.48022 168.285 7.24594 178.158 16.8306C187.017 25.2049 193.064 36.1282 195.464 48.0929C197.983 60.5568 196.477 73.5004 191.166 85.0501C185.854 96.5999 177.013 106.156 165.921 112.336C158.152 116.683 149.504 119.214 140.622 119.74C136.448 119.954 136.341 119.942 136.383 115.859L136.959 59.9025Z" fill="#440872"/>
<path d="M25.452 76.5977C24.5933 76.5977 23.7347 76.2706 23.0793 75.6125L13.9832 66.4807C12.6723 65.1646 12.6723 63.0327 13.9832 61.7204C15.2941 60.4043 17.4139 60.4005 18.7248 61.7166L25.452 68.4702L41.2752 52.5847C42.5861 51.2686 44.7059 51.2686 46.0168 52.5847C47.3277 53.9008 47.3277 56.0327 46.0168 57.3488L27.8247 75.6125C27.1692 76.2706 26.3106 76.5977 25.452 76.5977Z" fill="white"/>
</svg>
