<svg width="200" height="120" viewBox="0 0 200 120" fill="none" xmlns="http://www.w3.org/2000/svg">
<path d="M1.11655 59.8048L1.69068 4.07373C1.73231 0.0332305 1.7311 0.151119 5.78201 0.460817C19.4977 1.38257 32.4426 7.14829 42.3152 16.7329C51.1745 25.1072 57.2215 36.0305 59.6216 47.9953C62.1398 60.4591 60.6343 73.4027 55.323 84.9525C50.0117 96.5022 41.1701 106.059 30.0783 112.239C22.3096 116.585 13.6609 119.116 4.77886 119.642C0.604884 119.856 0.498038 119.844 0.540104 115.761L1.11655 59.8048Z" fill="#F6CA45"/>
<path d="M69.0384 59.8048L69.6126 4.07373C69.6542 0.0332305 69.653 0.151119 73.7039 0.460817C87.4196 1.38257 100.364 7.14829 110.237 16.7329C119.096 25.1072 125.143 36.0305 127.543 47.9953C130.062 60.4591 128.556 73.4027 123.245 84.9525C117.934 96.5022 109.092 106.059 98.0001 112.239C90.2315 116.585 81.5828 119.116 72.7007 119.642C68.5268 119.856 68.4199 119.844 68.462 115.761L69.0384 59.8048Z" fill="#ED6E2D"/>
<path d="M136.959 59.8048L137.533 4.07373C137.575 0.0332305 137.574 0.151119 141.625 0.460817C155.34 1.38257 168.285 7.14829 178.158 16.7329C187.017 25.1072 193.064 36.0305 195.464 47.9953C197.983 60.4591 196.477 73.4027 191.166 84.9525C185.854 96.5022 177.013 106.059 165.921 112.239C158.152 116.585 149.504 119.116 140.622 119.642C136.448 119.856 136.341 119.844 136.383 115.761L136.959 59.8048Z" fill="#440872"/>
<path d="M25.452 77.5C24.5933 77.5 23.7347 77.1729 23.0793 76.5149L13.9832 67.383C12.6723 66.0669 12.6723 63.935 13.9832 62.6228C15.2941 61.3067 17.4139 61.3028 18.7248 62.6189L25.452 69.3725L41.2752 53.4871C42.5861 52.171 44.7059 52.171 46.0168 53.4871C47.3277 54.8032 47.3277 56.9351 46.0168 58.2512L27.8247 76.5149C27.1692 77.1729 26.3106 77.5 25.452 77.5Z" fill="white"/>
<path d="M94.452 77.5C93.5933 77.5 92.7347 77.1729 92.0793 76.5149L82.9832 67.383C81.6723 66.0669 81.6723 63.935 82.9832 62.6228C84.2941 61.3067 86.4139 61.3028 87.7248 62.6189L94.452 69.3725L110.275 53.4871C111.586 52.171 113.706 52.171 115.017 53.4871C116.328 54.8032 116.328 56.9351 115.017 58.2512L96.8247 76.5149C96.1692 77.1729 95.3106 77.5 94.452 77.5Z" fill="white"/>
</svg>
