<svg width="58" height="29" viewBox="0 0 58 29" fill="none" xmlns="http://www.w3.org/2000/svg">
<path d="M0.146485 14.3803L0.282779 1.15014C0.292661 0.190954 0.292373 0.21894 1.25403 0.29246C4.51003 0.511276 7.58305 1.88001 9.92674 4.15533C12.0299 6.14333 13.4654 8.73643 14.0351 11.5768C14.6329 14.5356 14.2756 17.6083 13.0147 20.3501C11.7538 23.092 9.6549 25.3606 7.02178 26.8277C5.17755 27.8595 3.12443 28.4603 1.01589 28.5851C0.0250189 28.636 -0.000345665 28.6332 0.00964052 27.6638L0.146485 14.3803Z" fill="#F6CA45"/>
<path d="M21.6084 14.3803L21.7447 1.15014C21.7546 0.190954 21.7543 0.21894 22.7159 0.29246C25.9719 0.511276 29.045 1.88001 31.3887 4.15533C33.4918 6.14333 34.9273 8.73643 35.497 11.5768C36.0949 14.5356 35.7375 17.6083 34.4766 20.3501C33.2157 23.092 31.1168 25.3606 28.4837 26.8277C26.6395 27.8595 24.5863 28.4603 22.4778 28.5851C21.4869 28.636 21.4616 28.6332 21.4716 27.6638L21.6084 14.3803Z" fill="#ED6E2D"/>
<path d="M43.0713 14.3803L43.2076 1.15014C43.2175 0.190954 43.2172 0.21894 44.1788 0.29246C47.4348 0.511276 50.5079 1.88001 52.8515 4.15533C54.9547 6.14333 56.3902 8.73643 56.9599 11.5768C57.5577 14.5356 57.2004 17.6083 55.9395 20.3501C54.6786 23.092 52.5797 25.3606 49.9466 26.8277C48.1024 27.8595 46.0492 28.4603 43.9407 28.5851C42.9498 28.636 42.9245 28.6332 42.9344 27.6638L43.0713 14.3803Z" fill="#440872"/>
</svg>
