<svg xmlns="http://www.w3.org/2000/svg" width="186" height="55" viewBox="0 0 186 55">
  <g id="Group_25188" data-name="Group 25188" transform="translate(-474 -1293)">
    <rect id="Rectangle_5791" data-name="Rectangle 5791" width="186" height="55" rx="6" transform="translate(474 1293)"/>
    <path id="Başlık" d="M4.912,8.16H9.088v4.992a4.208,4.208,0,0,1-1.608.816,6.983,6.983,0,0,1-1.848.256,5.764,5.764,0,0,1-1.992-.336A4.089,4.089,0,0,1,2.048,12.84,4.993,4.993,0,0,1,.992,11.024,8.008,8.008,0,0,1,.608,8.4a7.106,7.106,0,0,1,.456-2.7A5.059,5.059,0,0,1,2.264,3.9,4.549,4.549,0,0,1,3.936,2.888a5.888,5.888,0,0,1,1.888-.312,8.777,8.777,0,0,1,1.688.144,7.845,7.845,0,0,1,1.16.3l-.448,1.84a4.554,4.554,0,0,0-.9-.248,7.456,7.456,0,0,0-1.264-.088A3.7,3.7,0,0,0,4.8,4.736a2.445,2.445,0,0,0-1,.68,3.235,3.235,0,0,0-.656,1.208,6.017,6.017,0,0,0-.232,1.792,5.94,5.94,0,0,0,.224,1.736,3.36,3.36,0,0,0,.624,1.2,2.462,2.462,0,0,0,.936.7,2.937,2.937,0,0,0,1.144.224,3.23,3.23,0,0,0,.816-.1,1.866,1.866,0,0,0,.672-.312V9.744L4.912,9.488Zm5.44.24a6.667,6.667,0,0,1,1.232-4.312A4.28,4.28,0,0,1,15.1,2.576a4.933,4.933,0,0,1,2.1.416,3.948,3.948,0,0,1,1.488,1.184,5.175,5.175,0,0,1,.88,1.84A9.185,9.185,0,0,1,19.856,8.4a6.636,6.636,0,0,1-1.24,4.312A4.285,4.285,0,0,1,15.1,14.224a4.974,4.974,0,0,1-2.112-.416,3.882,3.882,0,0,1-1.48-1.184,5.256,5.256,0,0,1-.872-1.84A9.185,9.185,0,0,1,10.352,8.4Zm2.3,0A7.88,7.88,0,0,0,12.8,9.96a4.03,4.03,0,0,0,.44,1.224,2.239,2.239,0,0,0,.76.8,2.051,2.051,0,0,0,1.1.288,2.08,2.08,0,0,0,1.808-.912,5.274,5.274,0,0,0,.64-2.96,8.016,8.016,0,0,0-.136-1.52,4.24,4.24,0,0,0-.424-1.232,2.207,2.207,0,0,0-.752-.824,2.252,2.252,0,0,0-2.944.64A5.291,5.291,0,0,0,12.656,8.4Zm8.416,0A6.667,6.667,0,0,1,22.3,4.088a4.28,4.28,0,0,1,3.52-1.512,4.933,4.933,0,0,1,2.1.416,3.948,3.948,0,0,1,1.488,1.184,5.175,5.175,0,0,1,.88,1.84A9.185,9.185,0,0,1,30.576,8.4a6.636,6.636,0,0,1-1.24,4.312,4.285,4.285,0,0,1-3.512,1.512,4.974,4.974,0,0,1-2.112-.416,3.882,3.882,0,0,1-1.48-1.184,5.256,5.256,0,0,1-.872-1.84A9.185,9.185,0,0,1,21.072,8.4Zm2.3,0a7.88,7.88,0,0,0,.144,1.56,4.03,4.03,0,0,0,.44,1.224,2.239,2.239,0,0,0,.76.8,2.051,2.051,0,0,0,1.1.288,2.08,2.08,0,0,0,1.808-.912,5.274,5.274,0,0,0,.64-2.96,8.016,8.016,0,0,0-.136-1.52,4.24,4.24,0,0,0-.424-1.232,2.207,2.207,0,0,0-.752-.824,2.252,2.252,0,0,0-2.944.64A5.291,5.291,0,0,0,23.376,8.4ZM36.1,8.16h4.176v4.992a4.209,4.209,0,0,1-1.608.816,6.983,6.983,0,0,1-1.848.256,5.764,5.764,0,0,1-1.992-.336,4.089,4.089,0,0,1-1.592-1.048,4.993,4.993,0,0,1-1.056-1.816A8.008,8.008,0,0,1,31.792,8.4a7.106,7.106,0,0,1,.456-2.7,5.059,5.059,0,0,1,1.2-1.808A4.549,4.549,0,0,1,35.12,2.888a5.888,5.888,0,0,1,1.888-.312A8.777,8.777,0,0,1,38.7,2.72a7.845,7.845,0,0,1,1.16.3l-.448,1.84a4.554,4.554,0,0,0-.9-.248,7.456,7.456,0,0,0-1.264-.088,3.7,3.7,0,0,0-1.264.208,2.445,2.445,0,0,0-1,.68,3.235,3.235,0,0,0-.656,1.208A6.017,6.017,0,0,0,34.1,8.416a5.94,5.94,0,0,0,.224,1.736,3.36,3.36,0,0,0,.624,1.2,2.462,2.462,0,0,0,.936.7,2.937,2.937,0,0,0,1.144.224,3.23,3.23,0,0,0,.816-.1,1.866,1.866,0,0,0,.672-.312V9.744L36.1,9.488ZM48.976,14H41.888V2.8H44.08v9.248h4.9ZM50.112,2.8h6.64V4.752H52.3V7.36h4.048V9.312H52.3v2.736h4.528V14h-6.72Zm12.4.112q.672-.128,1.48-.2T65.6,2.64a10.446,10.446,0,0,1,1.672.136,4.165,4.165,0,0,1,1.512.544,3.158,3.158,0,0,1,1.1,1.136,3.739,3.739,0,0,1,.424,1.9,3.924,3.924,0,0,1-.368,1.784,3.405,3.405,0,0,1-.976,1.192A3.935,3.935,0,0,1,67.576,10a6.184,6.184,0,0,1-1.608.208h-.256q-.176,0-.368-.008t-.376-.024q-.184-.016-.264-.032V14H62.512Zm3.264,1.616q-.32,0-.608.024t-.464.056V8.24a1.754,1.754,0,0,0,.192.032q.128.016.272.024t.28.008h.2a4.607,4.607,0,0,0,.856-.08,2.115,2.115,0,0,0,.76-.3,1.543,1.543,0,0,0,.536-.6A2.185,2.185,0,0,0,68,6.32a1.774,1.774,0,0,0-.192-.872,1.572,1.572,0,0,0-.5-.552,1.963,1.963,0,0,0-.712-.288A4.15,4.15,0,0,0,65.776,4.528ZM78.752,14H71.664V2.8h2.192v9.248h4.9Zm4.7-2.48h-3.44L79.168,14H76.976L81.008,2.72h1.616L86.656,14h-2.3Zm-2.88-1.76h2.4l-.832-2.5L81.808,5.5h-.08L81.392,7.28Zm8.32.08L85.216,2.8h2.608l2.048,4.208L90.1,8.192h.08l.24-1.216L92.4,2.8h2.352L91.088,9.824V14H88.9ZM95.9,3.7a.976.976,0,0,1,.312-.752,1.122,1.122,0,0,1,.792-.288,1.15,1.15,0,0,1,.912.384,1.475,1.475,0,0,1,.336,1.008,2.661,2.661,0,0,1-.2,1.088,2.633,2.633,0,0,1-.48.744,2.36,2.36,0,0,1-.592.464,4.73,4.73,0,0,1-.52.248l-.528-.88a1.976,1.976,0,0,0,.568-.384.928.928,0,0,0,.28-.608.8.8,0,0,1-.6-.248A1.016,1.016,0,0,1,95.9,3.7Zm10.672,7.488q0,.672.016,1.344a11.431,11.431,0,0,0,.144,1.488h-1.488l-.288-1.04H104.9a2.417,2.417,0,0,1-.92.9,2.8,2.8,0,0,1-1.416.344,2.881,2.881,0,0,1-2.336-.992,4.777,4.777,0,0,1-.832-3.1,4.9,4.9,0,0,1,.928-3.184,3.308,3.308,0,0,1,2.72-1.136,4.879,4.879,0,0,1,.816.056,3.212,3.212,0,0,1,.64.184V2.8h2.08Zm-3.536,1.28a1.445,1.445,0,0,0,.96-.3,1.6,1.6,0,0,0,.5-.856V7.92a1.588,1.588,0,0,0-.5-.264,2.337,2.337,0,0,0-.7-.088,1.539,1.539,0,0,0-1.32.592,3.516,3.516,0,0,0-.44,2.032,3.283,3.283,0,0,0,.36,1.648A1.224,1.224,0,0,0,103.04,12.464Zm11.76.848a4.071,4.071,0,0,1-1.3.648,5.709,5.709,0,0,1-1.752.264,3.4,3.4,0,0,1-2.832-1.128,4.85,4.85,0,0,1-.9-3.1,4.43,4.43,0,0,1,1.008-3.168,3.729,3.729,0,0,1,2.832-1.056,4.4,4.4,0,0,1,1.184.16,2.756,2.756,0,0,1,1.024.528,2.6,2.6,0,0,1,.72.992,3.89,3.89,0,0,1,.272,1.552,6.972,6.972,0,0,1-.04.72q-.04.384-.12.8h-4.8a2.344,2.344,0,0,0,.52,1.52,1.993,1.993,0,0,0,1.528.512,3.405,3.405,0,0,0,1.968-.608ZM111.824,7.44a1.457,1.457,0,0,0-1.208.488,2.413,2.413,0,0,0-.472,1.3h2.976a2.014,2.014,0,0,0-.264-1.328A1.176,1.176,0,0,0,111.824,7.44Zm9.6,6.56V9.456a2.681,2.681,0,0,0-.28-1.408,1.047,1.047,0,0,0-.952-.432,1.5,1.5,0,0,0-1,.344,1.911,1.911,0,0,0-.584.856V14h-2.08V6h1.648l.24,1.056h.064a3.449,3.449,0,0,1,.976-.9,2.894,2.894,0,0,1,1.568-.384,3.231,3.231,0,0,1,1.056.16,1.8,1.8,0,0,1,.784.528,2.4,2.4,0,0,1,.48,1,6.466,6.466,0,0,1,.16,1.56V14ZM1.664,20.8H2.992V32H1.664Zm-.32-1.552a.776.776,0,0,1,.264-.584,1.021,1.021,0,0,1,.728-.248,1.081,1.081,0,0,1,.744.248.758.758,0,0,1,.28.584.766.766,0,0,1-.28.608,1.1,1.1,0,0,1-.744.24,1.042,1.042,0,0,1-.728-.24A.786.786,0,0,1,1.344,19.248Zm6.688,5.424-.864-1.616H7.1l.16,1.616V32H6.016V20.624h.7L12.08,28.1l.832,1.536h.08L12.816,28.1V20.8h1.248V32.176h-.7ZM16.784,20.8q.3-.048.68-.072t.784-.032l.8-.016q.392-.008.728-.008a5.952,5.952,0,0,1,2.328.416,4.322,4.322,0,0,1,1.624,1.16,4.819,4.819,0,0,1,.952,1.784A8.376,8.376,0,0,1,24.7,28.5a5.254,5.254,0,0,1-.936,1.856,4.612,4.612,0,0,1-1.664,1.3,5.728,5.728,0,0,1-2.48.488q-.256,0-.664-.008t-.84-.032q-.432-.024-.8-.04a3.9,3.9,0,0,1-.528-.048Zm3.024,1.056h-.456q-.248,0-.488.016l-.44.032q-.2.016-.312.032V30.9a2.278,2.278,0,0,0,.3.024l.464.016.464.016q.224.008.3.008a4.142,4.142,0,0,0,1.88-.384,3.244,3.244,0,0,0,1.216-1.032,4.17,4.17,0,0,0,.648-1.488,7.767,7.767,0,0,0,.192-1.736,7.247,7.247,0,0,0-.176-1.576,4.138,4.138,0,0,0-.608-1.432,3.342,3.342,0,0,0-1.16-1.048A3.71,3.71,0,0,0,19.808,21.856ZM27.552,20.8H28.88V32H27.552Zm-.32-1.552a.776.776,0,0,1,.264-.584,1.021,1.021,0,0,1,.728-.248,1.081,1.081,0,0,1,.744.248.758.758,0,0,1,.28.584.766.766,0,0,1-.28.608,1.1,1.1,0,0,1-.744.24,1.042,1.042,0,0,1-.728-.24A.786.786,0,0,1,27.232,19.248ZM31.9,20.912a14.058,14.058,0,0,1,1.4-.176q.792-.064,1.448-.064a5.959,5.959,0,0,1,1.4.16,3.246,3.246,0,0,1,1.168.528,2.685,2.685,0,0,1,.808.96,3.527,3.527,0,0,1-.416,3.568,3.48,3.48,0,0,1-1.824,1.088l.768.592L39.44,32H37.888L34.8,27.168l-1.568-.24V32H31.9Zm2.88.912h-.432q-.224,0-.432.016l-.392.032a1.628,1.628,0,0,0-.3.048v4.128H34.48A2.941,2.941,0,0,0,36.3,25.5a1.988,1.988,0,0,0,.72-1.7,1.875,1.875,0,0,0-.592-1.424A2.3,2.3,0,0,0,34.784,21.824Zm6.64-1.024h6.1v1.184H42.752v3.664H47.12v1.184H42.752v3.984H47.6V32H41.424Zm15.328,2.56a2.766,2.766,0,0,1-.128.816,2.7,2.7,0,0,1-.384.776,2.56,2.56,0,0,1-.656.632A3.054,3.054,0,0,1,54.64,26v.064a3.89,3.89,0,0,1,.92.272,2.5,2.5,0,0,1,.776.528,2.6,2.6,0,0,1,.544.816,2.842,2.842,0,0,1,.208,1.136,2.973,2.973,0,0,1-.36,1.5,3.079,3.079,0,0,1-.944,1.032,4.165,4.165,0,0,1-1.336.592,6.185,6.185,0,0,1-1.536.192h-.64q-.368,0-.768-.024t-.8-.064a4.579,4.579,0,0,1-.7-.12V20.9q.592-.1,1.376-.16t1.712-.064a8.019,8.019,0,0,1,1.272.1,3.526,3.526,0,0,1,1.176.4,2.476,2.476,0,0,1,.872.824A2.449,2.449,0,0,1,56.752,23.36ZM53.04,30.976a4.075,4.075,0,0,0,.992-.12,2.464,2.464,0,0,0,.848-.384,1.993,1.993,0,0,0,.584-.648,1.831,1.831,0,0,0,.216-.912,1.889,1.889,0,0,0-.264-1.056,1.843,1.843,0,0,0-.688-.624,2.977,2.977,0,0,0-.952-.3,7.04,7.04,0,0,0-1.056-.08H51.328v4.016a1.71,1.71,0,0,0,.32.048l.448.032q.24.016.5.024T53.04,30.976Zm-.88-5.248q.272,0,.656-.016t.64-.048a4.377,4.377,0,0,0,.72-.312,2.918,2.918,0,0,0,.6-.432,1.851,1.851,0,0,0,.416-.576,1.673,1.673,0,0,0,.152-.712,1.715,1.715,0,0,0-.2-.872,1.563,1.563,0,0,0-.536-.552,2.329,2.329,0,0,0-.768-.3,4.4,4.4,0,0,0-.88-.088q-.528,0-.968.024a4.618,4.618,0,0,0-.664.072v3.808ZM59.648,20.8h1.328V32H59.648Zm-.32-1.552a.776.776,0,0,1,.264-.584,1.021,1.021,0,0,1,.728-.248,1.081,1.081,0,0,1,.744.248.758.758,0,0,1,.28.584.766.766,0,0,1-.28.608,1.1,1.1,0,0,1-.744.24,1.042,1.042,0,0,1-.728-.24A.786.786,0,0,1,59.328,19.248ZM70.624,32H64V20.8h1.328V30.816h5.3Zm1.952-11.2H73.9V32H72.576Zm-.32-1.552a.776.776,0,0,1,.264-.584,1.021,1.021,0,0,1,.728-.248,1.081,1.081,0,0,1,.744.248.758.758,0,0,1,.28.584.766.766,0,0,1-.28.608,1.1,1.1,0,0,1-.744.24,1.042,1.042,0,0,1-.728-.24A.786.786,0,0,1,72.256,19.248Zm4.672,1.664a14.059,14.059,0,0,1,1.4-.176q.792-.064,1.448-.064a5.959,5.959,0,0,1,1.4.16,3.246,3.246,0,0,1,1.168.528,2.685,2.685,0,0,1,.808.96,3.527,3.527,0,0,1-.416,3.568,3.48,3.48,0,0,1-1.824,1.088l.768.592L84.464,32H82.912l-3.088-4.832-1.568-.24V32H76.928Zm2.88.912h-.432q-.224,0-.432.016l-.392.032a1.628,1.628,0,0,0-.3.048v4.128H79.5a2.941,2.941,0,0,0,1.824-.544,1.988,1.988,0,0,0,.72-1.7,1.875,1.875,0,0,0-.592-1.424A2.3,2.3,0,0,0,79.808,21.824Zm11.7,7.328a1.532,1.532,0,0,0-.4-1.1,3.993,3.993,0,0,0-1-.752,12.9,12.9,0,0,0-1.3-.616,7.074,7.074,0,0,1-1.3-.7,3.671,3.671,0,0,1-1-1.008,2.7,2.7,0,0,1-.4-1.528,2.578,2.578,0,0,1,.912-2.08,3.914,3.914,0,0,1,2.592-.768,10.062,10.062,0,0,1,1.776.144,4.754,4.754,0,0,1,1.248.368l-.4,1.168a5.349,5.349,0,0,0-1.08-.336,7.361,7.361,0,0,0-1.608-.16,2.313,2.313,0,0,0-1.584.472,1.488,1.488,0,0,0-.128,2.152,4.1,4.1,0,0,0,1,.744q.6.328,1.3.648a7.96,7.96,0,0,1,1.3.744,3.935,3.935,0,0,1,1,1.016,2.571,2.571,0,0,1,.4,1.472,3.158,3.158,0,0,1-.256,1.3,2.727,2.727,0,0,1-.752.992,3.489,3.489,0,0,1-1.2.64,5.271,5.271,0,0,1-1.6.224,8.9,8.9,0,0,1-1.984-.184,5.421,5.421,0,0,1-1.216-.408l.448-1.2a5.065,5.065,0,0,0,1.088.408,6.038,6.038,0,0,0,1.616.2,4.528,4.528,0,0,0,.992-.1,2.264,2.264,0,0,0,.8-.336,1.755,1.755,0,0,0,.536-.584A1.656,1.656,0,0,0,91.5,29.152ZM95.248,20.8h1.328V32H95.248Zm-.32-1.552a.776.776,0,0,1,.264-.584,1.021,1.021,0,0,1,.728-.248,1.081,1.081,0,0,1,.744.248.758.758,0,0,1,.28.584.766.766,0,0,1-.28.608,1.1,1.1,0,0,1-.744.24,1.042,1.042,0,0,1-.728-.24A.786.786,0,0,1,94.928,19.248Zm6.688,5.424-.864-1.616h-.064l.16,1.616V32H99.6V20.624h.7l5.36,7.472.832,1.536h.08L106.4,28.1V20.8h1.248V32.176h-.7Zm9.056-3.872H112V32h-1.328Zm-.32-1.552a.776.776,0,0,1,.264-.584,1.021,1.021,0,0,1,.728-.248,1.081,1.081,0,0,1,.744.248.758.758,0,0,1,.28.584.766.766,0,0,1-.28.608,1.1,1.1,0,0,1-.744.24,1.042,1.042,0,0,1-.728-.24A.786.786,0,0,1,110.352,19.248Zm3.92,11.552,5.648-8.176.672-.64h-6.32V20.8h7.52V22l-5.68,8.224-.672.592h6.352V32h-7.52Z" transform="translate(519.529 1302.5)" fill="#fff"/>
    <path id="Exclusion_118" data-name="Exclusion 118" d="M18.6,34.274a2.228,2.228,0,0,1-.851-.167,2.183,2.183,0,0,1-.695-.455,2.112,2.112,0,0,1-.468-.674,2.056,2.056,0,0,1-.172-.826V27.417H13.379v4.736a2.056,2.056,0,0,1-.172.826,2.112,2.112,0,0,1-.468.674,2.183,2.183,0,0,1-.695.455,2.253,2.253,0,0,1-1.7,0,2.183,2.183,0,0,1-.695-.455,2.112,2.112,0,0,1-.468-.674,2.055,2.055,0,0,1-.172-.826V27.417H5.117V12.512H24.786V27.417h-4v4.736a2.056,2.056,0,0,1-.172.826,2.112,2.112,0,0,1-.468.674,2.183,2.183,0,0,1-.695.455A2.228,2.228,0,0,1,18.6,34.274Zm9.115-9.989a2.228,2.228,0,0,1-.851-.167,2.183,2.183,0,0,1-.695-.455,2.113,2.113,0,0,1-.468-.674,2.056,2.056,0,0,1-.172-.826V13.21a2.056,2.056,0,0,1,.172-.826,2.112,2.112,0,0,1,.468-.674,2.183,2.183,0,0,1,.695-.455,2.253,2.253,0,0,1,1.7,0,2.183,2.183,0,0,1,.695.455,2.112,2.112,0,0,1,.468.674,2.056,2.056,0,0,1,.172.826v8.954a2.056,2.056,0,0,1-.172.826,2.113,2.113,0,0,1-.468.674,2.183,2.183,0,0,1-.695.455A2.228,2.228,0,0,1,27.718,24.286Zm-25.533,0a2.228,2.228,0,0,1-.851-.167,2.183,2.183,0,0,1-.695-.455,2.113,2.113,0,0,1-.468-.674A2.056,2.056,0,0,1,0,22.164V13.21a2.056,2.056,0,0,1,.172-.826A2.112,2.112,0,0,1,.64,11.71a2.183,2.183,0,0,1,.695-.455,2.253,2.253,0,0,1,1.7,0,2.183,2.183,0,0,1,.695.455,2.113,2.113,0,0,1,.468.674,2.056,2.056,0,0,1,.172.826v8.954a2.056,2.056,0,0,1-.172.826,2.113,2.113,0,0,1-.468.674,2.183,2.183,0,0,1-.695.455A2.228,2.228,0,0,1,2.185,24.286Zm22.646-13.2H5.178A9.292,9.292,0,0,1,6.5,6.662a9.623,9.623,0,0,1,1.4-1.8A9.836,9.836,0,0,1,9.684,3.42L8.057.8,9.427,0,11.1,2.687a10.005,10.005,0,0,1,1.883-.582,10.2,10.2,0,0,1,4.053,0,10.007,10.007,0,0,1,1.883.582L20.584,0l1.369.8L20.327,3.42a9.836,9.836,0,0,1,1.791,1.437,9.622,9.622,0,0,1,1.4,1.8,9.292,9.292,0,0,1,1.318,4.427ZM19.349,5.525a1.008,1.008,0,0,0-.707.284.95.95,0,0,0,0,1.372,1.008,1.008,0,0,0,.707.284.986.986,0,0,0,1-.97.95.95,0,0,0-.293-.686A1.008,1.008,0,0,0,19.349,5.525Zm-8.8,0a1.008,1.008,0,0,0-.707.284.95.95,0,0,0,0,1.372,1.008,1.008,0,0,0,.707.284.986.986,0,0,0,1-.97.95.95,0,0,0-.293-.686A1.008,1.008,0,0,0,10.554,5.525Z" transform="translate(482.636 1303.116)" fill="#fff" opacity="0.9"/>
  </g>
</svg>
