<svg xmlns="http://www.w3.org/2000/svg" width="132.854" height="39.073" viewBox="0 0 132.854 39.073">
  <g id="Group_21725" data-name="Group 21725" transform="translate(-86 -20.464)">
    <path id="Path_2945" data-name="Path 2945" d="M844.755,602.288v-3.36l.028,0c-.018-.431-.028-.863-.038-1.295h0c-.022-.98-.044-1.959-.16-2.928a5.052,5.052,0,0,0-2.995-4.138,9.75,9.75,0,0,0-8.132-.215,6.32,6.32,0,0,0-4.025,4.371c-.2.77-.061.992.754,1.13.25.042.5.081.75.122h0c.654.1,1.309.206,1.951.358.708.166.933-.09,1.05-.716a2.454,2.454,0,0,1,2.061-2.2,4.9,4.9,0,0,1,1.327-.041,2.553,2.553,0,0,1,2.443,2.734c0,.233-.061.386-.315.438l-.854.177h0c-.86.176-1.719.353-2.572.56-.229.056-.459.111-.69.166a25.861,25.861,0,0,0-2.975.83,5.048,5.048,0,0,0-3.637,5.579,4.177,4.177,0,0,0,2.564,3.639,6.606,6.606,0,0,0,4.657.222,4.712,4.712,0,0,0,3.1-2.338,1.494,1.494,0,0,1,.4-.458.49.49,0,0,1,.734.08.492.492,0,0,1,.088.259,2.633,2.633,0,0,0,1.536,2.176,5.023,5.023,0,0,0,4.486-.046.534.534,0,0,0,.158-.186.54.54,0,0,0,.063-.235c.014-.669.012-1.338.01-2.007h0c0-.234,0-.469,0-.7,0-.847,0-.847-.811-.624a.638.638,0,0,1-.855-.517A4.665,4.665,0,0,1,844.755,602.288Zm-4.976-2.047v.713a2.594,2.594,0,0,1-1.391,2.467,4.094,4.094,0,0,1-3.456.763,1.63,1.63,0,0,1-1.374-1.437,1.828,1.828,0,0,1,.976-1.985,8.73,8.73,0,0,1,1.881-.684c.511-.138,1.032-.238,1.553-.338.314-.06.627-.119.939-.188C839.5,599.422,839.778,599.621,839.778,600.241Zm-40.956-9.193v7.789q0,3.909,0,7.824c0,.628.175.794.786.794h3.28c.774,0,.907-.136.907-.916v-2.622h0q0-3.67.011-7.341a1.6,1.6,0,0,1,.214-.786,3.612,3.612,0,0,1,3.206-1.8,2.353,2.353,0,0,1,2.557,1.934,8.268,8.268,0,0,1,.185,1.737c.012,2.228.011,4.458.009,6.686h0q0,1.18,0,2.36c0,.582.173.753.75.753h3.435c.611,0,.764-.153.764-.756q0-1.12,0-2.239,0-3.92.01-7.84a1.686,1.686,0,0,1,.25-.851,3.65,3.65,0,0,1,3.708-1.739,2.088,2.088,0,0,1,1.917,1.457,7.291,7.291,0,0,1,.343,2.087c.027,2.233.023,4.464.018,6.7q0,1.232,0,2.466c0,.554.16.719.7.719q1.8.008,3.589,0c.469,0,.665-.205.665-.679q0-1.356,0-2.711h0c0-2.621.009-5.241-.012-7.862a8.377,8.377,0,0,0-1.013-4.138c-1.418-2.515-4.742-2.973-7.024-1.985a5.409,5.409,0,0,0-2.851,3.079c-.105.256-.255.458-.55.446a.584.584,0,0,1-.533-.471c-.023-.066-.044-.132-.066-.2h0c-.066-.2-.131-.4-.216-.586-1.133-2.54-3.786-3.11-6.131-2.555a5.275,5.275,0,0,0-3.425,2.872c-.065.122-.124.245-.183.369a5.666,5.666,0,0,1-.285.547c-.155.253-.372.483-.714.352s-.311-.423-.273-.707.074-.546.112-.818h0c.076-.546.152-1.091.213-1.638s.041-.556-.5-.556h-3.015C798.909,590.213,798.822,590.3,798.822,591.048Zm83.547,8.033v3.207a4.022,4.022,0,0,0,.1.866.635.635,0,0,0,.873.485c.379-.109.57-.163.666-.091s.1.275.1.681v2.749a.459.459,0,0,1-.345.508,5.274,5.274,0,0,1-4.012.128,2.726,2.726,0,0,1-1.867-2.3.506.506,0,0,0-.867-.353,1.318,1.318,0,0,0-.349.4,4.667,4.667,0,0,1-3.079,2.359,6.6,6.6,0,0,1-4.581-.165,4.388,4.388,0,0,1-2.71-4.365,5.073,5.073,0,0,1,3.711-4.91,27.183,27.183,0,0,1,2.962-.822h0c.236-.055.47-.111.7-.168.6-.144,1.2-.271,1.8-.4h0c.542-.115,1.082-.229,1.618-.356a.493.493,0,0,0,.255-.377,2.471,2.471,0,0,0-2.381-2.76,5.1,5.1,0,0,0-1.8.153,2.321,2.321,0,0,0-1.578,1.853c-.021.079-.039.16-.058.24s-.042.187-.067.279a.564.564,0,0,1-.7.468l-.055-.01h0c-1.019-.179-2.041-.357-3.057-.549-.669-.126-.815-.382-.631-1.06a6.236,6.236,0,0,1,3.116-3.956,9.616,9.616,0,0,1,5.8-1.14,8.09,8.09,0,0,1,4.276,1.544,5.024,5.024,0,0,1,1.994,3.558c.11,1.017.141,2.044.172,3.069h0c.013.41.025.82.042,1.231Zm-5,1.764v-.6c0-.624-.263-.807-.874-.672-.322.072-.649.133-.976.2-.51.1-1.02.194-1.516.327a8.24,8.24,0,0,0-1.88.688,1.829,1.829,0,0,0-.953,1.993,1.637,1.637,0,0,0,1.349,1.421,4.017,4.017,0,0,0,2.459-.2A3.314,3.314,0,0,0,877.371,600.845Zm-25.84,6.362a11.941,11.941,0,0,0,4.734.837,12.73,12.73,0,0,0,4.878-.855c2.9-1.254,3.651-3.849,3.127-6.393a4.161,4.161,0,0,0-2.67-2.971,17.069,17.069,0,0,0-3.869-1.019c-.42-.077-.84-.153-1.258-.239a12.593,12.593,0,0,1-2.08-.6,1.141,1.141,0,0,1-.847-1.328,1.318,1.318,0,0,1,1.106-1.159,7.986,7.986,0,0,1,1.775-.153,4.178,4.178,0,0,1,3.9,2.064.611.611,0,0,0,.753.306c.943-.3,1.884-.612,2.818-.942a.584.584,0,0,0,.207-.116.575.575,0,0,0,.15-.657,5.317,5.317,0,0,0-.349-.84,6.807,6.807,0,0,0-4.942-3.283,13.376,13.376,0,0,0-5.192-.028A7.787,7.787,0,0,0,850.5,591.2a4.81,4.81,0,0,0,.051,7.68,10.33,10.33,0,0,0,3.739,1.447c.617.137,1.233.253,1.849.369s1.21.227,1.816.36a1.766,1.766,0,0,1,1.339.916,1.472,1.472,0,0,1-.893,2.012,5.692,5.692,0,0,1-4.065-.08,3.492,3.492,0,0,1-2.034-2.047c-.175-.422-.429-.589-.786-.47q-1.517.511-3.015,1.069a.6.6,0,0,0-.348.312.612.612,0,0,0-.056.232.58.58,0,0,0,.039.234A5.88,5.88,0,0,0,851.531,607.207Z" transform="translate(-665.26 -558.72)" fill="#232323" fill-rule="evenodd"/>
    <path id="Path_2946" data-name="Path 2946" d="M766.644,588.538H782.32a1.381,1.381,0,0,0,.458-.012c.105-.037.258-.18.258-.271a8.314,8.314,0,0,0-2.491-5.765,8.443,8.443,0,0,0-9.787-1.585,8.235,8.235,0,0,0-4.705,7C766,588.538,766.02,588.538,766.644,588.538Zm18.367,11.007a10.393,10.393,0,1,1-.771-4.038A10.413,10.413,0,0,1,785.01,599.544Zm-10.453,11H782.5c.548,0,.548,0,.52.541v.009a8.2,8.2,0,0,1-2.5,5.526,8.493,8.493,0,0,1-11.976-.026,8.248,8.248,0,0,1-2.5-5.635c-.015-.346.1-.423.432-.421,2.058.01,4.118.009,6.18.008h1.9Zm-11.014-8.3q0-1.343,0-2.685l0-4.049q0-.682,0-1.362c0-.907-.005-1.815,0-2.722,0-.289-.061-.418-.38-.4a8.521,8.521,0,0,0-.074,17.023c.34.013.458-.065.458-.435Q763.537,604.925,763.543,602.241Zm21.993-2.727v-7.942c0-.284,0-.424.07-.488s.2-.053.461-.036l.049,0a8.3,8.3,0,0,1,5.239,2.265,8.4,8.4,0,0,1,2.517,4.428,8.538,8.538,0,0,1-4.123,9.2,8.43,8.43,0,0,1-3.6,1.092c-.6.037-.611.036-.611-.546Z" transform="translate(-669 -559.536)" fill="#232323" fill-rule="evenodd"/>
  </g>
</svg>
