<svg id="Group_26555" data-name="Group 26555" xmlns="http://www.w3.org/2000/svg" width="130.194" height="22.267" viewBox="0 0 130.194 22.267">
  <path id="Path_2182" data-name="Path 2182" d="M21.921-108.62v6.877H24.83V-117.3H21.921v6.223h-7.26V-117.3H11.73v15.557h2.931v-6.877Zm7.621,2.345h8.027s.045-.9.045-1.466c0-2.909-2.029-5.118-5.389-5.118a5.6,5.6,0,0,0-5.659,5.84c0,3.517,2.435,5.524,5.727,5.524a6.906,6.906,0,0,0,4.915-1.759l-1.127-1.556a5.512,5.512,0,0,1-3.292,1.1A3,3,0,0,1,29.542-106.275Zm2.66-4.442a2.328,2.328,0,0,1,2.525,2.57H29.5A2.588,2.588,0,0,1,32.2-110.716Zm11.138,4.983,2.728,3.991h3.314l-4.261-5.7,3.788-5.208H45.618l-2.277,3.562-2.277-3.562H37.771l3.788,5.186L37.3-101.743h3.314Zm13.145,2.728.045,1.263H59.3v-6.245a4.528,4.528,0,0,0-1.195-3.607,5.174,5.174,0,0,0-3.855-1.263,8.551,8.551,0,0,0-4.261,1.15l.879,1.849a5.589,5.589,0,0,1,3.111-.9c1.511,0,2.435.654,2.435,2.052v.293l-2.615.18c-2.255.158-4.487,1.037-4.487,3.314s1.714,3.427,3.833,3.427A3.869,3.869,0,0,0,56.485-103.005Zm-2.007-3.54,1.962-.113v2.007a2.934,2.934,0,0,1-2.345,1.195c-1.195,0-1.894-.631-1.894-1.556S52.945-106.455,54.478-106.545Zm9.289,4.8h.857l3.337-9,3.427,9h.9l3.45-10.394H74.725l-2.886,8.928-3.4-8.951h-.9l-3.269,8.928-2.931-8.906h-1.06Zm18.015-9.7a4.212,4.212,0,0,1,4.261,4.509,4.267,4.267,0,0,1-4.261,4.532,4.267,4.267,0,0,1-4.261-4.532A4.212,4.212,0,0,1,81.782-111.438Zm0,9.92a5.1,5.1,0,0,0,5.276-5.434,5.089,5.089,0,0,0-5.276-5.366,5.089,5.089,0,0,0-5.276,5.366A5.1,5.1,0,0,0,81.782-101.517Zm7.508-.225h.924v-5.93a4.16,4.16,0,0,1,.767-2.773,2.337,2.337,0,0,1,1.759-.9,4.368,4.368,0,0,1,1.24.158l.135-.992a6.215,6.215,0,0,0-1.24-.135,2.813,2.813,0,0,0-2.66,2.029v-1.849H89.29Zm7.215,0v-4.464l1.533-1.42,4.329,5.885h1.24l-4.87-6.539,4.171-3.855h-1.24l-5.163,4.915V-117.3h-.924v15.557Zm7.846-2.435-.7.631a4.3,4.3,0,0,0,3.72,2.029c1.962,0,3.517-1.06,3.517-3,0-1.781-1.42-2.435-3.134-3.089-1.4-.541-2.48-1.06-2.48-2.074,0-1.127.924-1.759,2.119-1.759a3.119,3.119,0,0,1,2.525,1.217l.609-.676a3.636,3.636,0,0,0-3.089-1.42,2.861,2.861,0,0,0-3.111,2.728c0,1.646,1.4,2.3,2.886,2.818,1.285.451,2.751,1.127,2.751,2.367,0,1.33-1.037,2.007-2.548,2.007A3.773,3.773,0,0,1,104.351-104.178Z" transform="translate(19.304 121.172)" fill="#303131"/>
  <g id="Group_25237" data-name="Group 25237">
    <path id="Path_29479" data-name="Path 29479" d="M80.223,22.091l6.224-10.783a.35.35,0,0,0,0-.35L80.223.178a.35.35,0,0,0-.3-.177H76.447a.35.35,0,0,0-.3.177L69.92,10.958a.35.35,0,0,0,0,.35l6.225,10.783a.35.35,0,0,0,.3.177h3.474a.35.35,0,0,0,.3-.177" transform="translate(-64.629 -0.001)" fill="#0076ff"/>
    <path id="Path_29480" data-name="Path 29480" d="M209.294,22.091l6.225-10.783a.35.35,0,0,0,0-.35L209.294.178a.35.35,0,0,0-.3-.177h-5.243a.35.35,0,0,1,.3.177l6.224,10.781a.35.35,0,0,1,0,.35l-6.224,10.783a.349.349,0,0,1-.3.175H209a.349.349,0,0,0,.3-.175" transform="translate(-188.456 -0.001)" fill="#00aefc"/>
    <path id="Path_29481" data-name="Path 29481" d="M6.272,22.091.047,11.308a.35.35,0,0,1,0-.35L6.272.178A.35.35,0,0,1,6.575,0h5.243a.35.35,0,0,0-.3.177L5.291,10.958a.35.35,0,0,0,0,.35l6.224,10.783a.349.349,0,0,0,.3.175H6.568a.349.349,0,0,1-.3-.175" transform="translate(0 -0.001)" fill="#4319f4"/>
    <rect id="Rectangle_5729" data-name="Rectangle 5729" width="27.11" height="22.267" transform="translate(0)" fill="none"/>
  </g>
</svg>
