<svg width="48" height="48" viewBox="0 0 48 48" fill="none" xmlns="http://www.w3.org/2000/svg">
<rect x="15.9391" y="27.3252" width="20.7116" height="20.7116" rx="10.3558" transform="rotate(-13.0703 15.9391 27.3252)" fill="#F4DDA0"/>
<path fill-rule="evenodd" clip-rule="evenodd" d="M24.9143 30.6791C25.1374 30.8476 25.216 31.1865 25.09 31.4361L24.1217 33.3532C23.9957 33.6027 23.7126 33.6684 23.4895 33.4999L22.6326 32.8527C22.4095 32.6842 22.3308 32.3453 22.4569 32.0958C22.5829 31.8462 22.866 31.7805 23.0891 31.949L23.542 32.2911L24.2821 30.8259C24.4081 30.5763 24.6912 30.5106 24.9143 30.6791Z" fill="black"/>
<path fill-rule="evenodd" clip-rule="evenodd" d="M25.7841 34.4256C26.0072 34.5942 26.0858 34.9331 25.9598 35.1826L24.9915 37.0997C24.8655 37.3493 24.5824 37.415 24.3593 37.2465L23.5024 36.5993C23.2793 36.4308 23.2006 36.0919 23.3267 35.8423C23.4527 35.5928 23.7358 35.527 23.9589 35.6955L24.4118 36.0377L25.1519 34.5724C25.2779 34.3229 25.561 34.2571 25.7841 34.4256Z" fill="black"/>
<path fill-rule="evenodd" clip-rule="evenodd" d="M26.6539 38.1725C26.877 38.341 26.9557 38.68 26.8297 38.9295L25.8614 40.8466C25.7354 41.0962 25.4523 41.1619 25.2292 40.9934L24.3723 40.3462C24.1492 40.1777 24.0705 39.8388 24.1966 39.5892C24.3226 39.3397 24.6056 39.2739 24.8287 39.4424L25.2817 39.7846L26.0218 38.3193C26.1478 38.0698 26.4308 38.004 26.6539 38.1725Z" fill="black"/>
<path fill-rule="evenodd" clip-rule="evenodd" d="M27.22 35.6196C27.1513 35.324 27.3125 35.0341 27.58 34.972L32.907 33.7352C33.1744 33.6731 33.4469 33.8624 33.5155 34.1581C33.5842 34.4537 33.423 34.7437 33.1555 34.8057L27.8285 36.0425C27.5611 36.1046 27.2886 35.9153 27.22 35.6196Z" fill="black"/>
<path fill-rule="evenodd" clip-rule="evenodd" d="M28.0898 39.3662C28.0211 39.0706 28.1823 38.7806 28.4498 38.7185L33.7768 37.4818C34.0443 37.4197 34.3167 37.609 34.3853 37.9046C34.454 38.2002 34.2928 38.4902 34.0253 38.5523L28.6983 39.789C28.4309 39.8511 28.1584 39.6618 28.0898 39.3662Z" fill="black"/>
<path fill-rule="evenodd" clip-rule="evenodd" d="M26.3501 31.8727C26.2815 31.5771 26.4426 31.2872 26.7101 31.2251L32.0371 29.9883C32.3046 29.9262 32.577 30.1156 32.6456 30.4112C32.7143 30.7068 32.5531 30.9968 32.2856 31.0589L26.9586 32.2956C26.6912 32.3577 26.4187 32.1684 26.3501 31.8727Z" fill="black"/>
<rect x="22.3413" y="5.18408" width="20.7116" height="20.7116" rx="10.3558" transform="rotate(-13.0703 22.3413 5.18408)" fill="#A0F4CC" fill-opacity="0.45"/>
<path d="M34.3526 15.1196L34.3602 15.1185L34.3675 15.1162C34.5015 15.0741 34.6138 14.9816 34.6809 14.8583L38.6951 8.41655L38.7042 8.40199L38.7079 8.38524C38.7323 8.2747 38.7219 8.1593 38.678 8.05495C38.6341 7.95059 38.559 7.8624 38.4629 7.80253C38.3668 7.74266 38.2545 7.71404 38.1415 7.72063C38.0285 7.72721 37.9203 7.76867 37.8318 7.8393L37.8186 7.84989L37.8095 7.86427L34.0483 13.8529L32.3642 12.8034L32.3496 12.7943L32.3329 12.7906C32.2223 12.7662 32.107 12.7767 32.0026 12.8205C31.8982 12.8644 31.8101 12.9396 31.7502 13.0357C31.6903 13.1317 31.6617 13.244 31.6683 13.357C31.6749 13.47 31.7163 13.5782 31.7869 13.6667L31.7977 13.6801L31.8122 13.6892L33.9577 15.0262C34.0722 15.1073 34.2138 15.1409 34.3526 15.1196ZM32.4871 18.9215L39.4606 17.3025C39.9103 17.1981 40.3001 16.9194 40.5442 16.5276C40.7884 16.1358 40.8669 15.6631 40.7625 15.2134L39.7223 10.7329C39.6895 10.5915 39.6018 10.4689 39.4786 10.3921C39.3554 10.3153 39.2067 10.2906 39.0652 10.3234C38.9238 10.3563 38.8012 10.444 38.7244 10.5672C38.6477 10.6904 38.623 10.8391 38.6558 10.9805L39.696 15.461C39.7347 15.6278 39.7056 15.8032 39.615 15.9485C39.5244 16.0939 39.3798 16.1973 39.213 16.236L32.2395 17.855C32.0727 17.8937 31.8973 17.8646 31.752 17.774C31.6066 17.6835 31.5032 17.5388 31.4645 17.372L29.8455 10.3985C29.8068 10.2317 29.8359 10.0563 29.9265 9.91096C30.017 9.76562 30.1616 9.6622 30.3285 9.62347L35.4772 8.42813C35.6187 8.39529 35.7413 8.30762 35.8181 8.1844C35.8948 8.06118 35.9195 7.9125 35.8867 7.77107C35.8539 7.62965 35.7662 7.50705 35.643 7.43027C35.5197 7.35348 35.3711 7.32878 35.2296 7.36162L30.0809 8.55697C29.6312 8.66136 29.2414 8.94012 28.9972 9.33191C28.7531 9.7237 28.6746 10.1964 28.779 10.6461L30.398 17.6196C30.5024 18.0693 30.7811 18.4591 31.1729 18.7032C31.5647 18.9474 32.0374 19.0259 32.4871 18.9215Z" fill="black" stroke="black" stroke-width="0.2"/>
<rect y="10.9819" width="20.7116" height="20.7116" rx="10.3558" transform="rotate(-13.0703 0 10.9819)" fill="#F4A0A0" fill-opacity="0.45"/>
<path d="M12.7589 17.1966L11.198 19.7032C11.1613 19.7616 11.1366 19.8266 11.1251 19.8946C11.1137 19.9626 11.1159 20.0321 11.1315 20.0993C11.147 20.1664 11.1758 20.2298 11.216 20.2858C11.2562 20.3418 11.307 20.3893 11.3657 20.4255C11.424 20.4622 11.489 20.487 11.5569 20.4984C11.6249 20.5099 11.6944 20.5077 11.7615 20.4922C11.8286 20.4766 11.892 20.4479 11.9479 20.4077C12.0039 20.3674 12.0513 20.3166 12.0875 20.2579L13.6484 17.7513C13.7219 17.6333 13.7455 17.4909 13.7141 17.3555C13.6826 17.22 13.5987 17.1026 13.4807 17.029C13.3628 16.9555 13.2205 16.9318 13.0851 16.9632C12.9497 16.9947 12.8324 17.0786 12.7589 17.1966Z" fill="black"/>
<path d="M13.2032 21.4409L12.7025 22.2379C12.4247 22.6993 11.9868 23.0422 11.4724 23.2012C10.9579 23.3602 10.403 23.3241 9.9133 23.0999C9.65183 22.9699 9.42051 22.7864 9.23428 22.5614C9.04805 22.3364 8.91104 22.0749 8.83212 21.7936C8.75319 21.5124 8.7341 21.2177 8.77607 20.9287C8.81805 20.6396 8.92016 20.3626 9.07581 20.1155L9.62876 19.2206C9.66543 19.1622 9.69018 19.0972 9.7016 19.0292C9.71302 18.9612 9.71087 18.8917 9.69528 18.8245C9.67969 18.7574 9.65097 18.694 9.61077 18.638C9.57058 18.582 9.5197 18.5345 9.46108 18.4983C9.40276 18.4616 9.33775 18.4368 9.26981 18.4254C9.20187 18.4139 9.13235 18.4161 9.06524 18.4316C8.99814 18.4472 8.93478 18.4759 8.87883 18.5161C8.82288 18.5563 8.77545 18.6072 8.73926 18.6659L8.24484 19.4668C7.82335 20.12 7.65312 20.9041 7.76574 21.6736C7.87836 22.443 8.26619 23.1455 8.85722 23.6506C9.20443 23.935 9.60814 24.1422 10.0415 24.2586C10.4749 24.3749 10.928 24.3976 11.3708 24.3252C11.8136 24.2528 12.2358 24.087 12.6096 23.8388C12.9834 23.5905 13.3 23.2655 13.5386 22.8854L14.0927 21.9956C14.1662 21.8776 14.1898 21.7352 14.1583 21.5997C14.1269 21.4643 14.043 21.3468 13.925 21.2733C13.8071 21.1997 13.6647 21.1761 13.5294 21.2075C13.394 21.2389 13.2767 21.3229 13.2032 21.4409ZM15.2802 13.3574C14.5613 13.0453 13.7536 13.0057 13.0079 13.2459C12.2622 13.4861 11.6294 13.9898 11.2278 14.6628L10.8087 15.3497C10.7565 15.4099 10.7176 15.4804 10.6944 15.5567C10.6712 15.6329 10.6643 15.7131 10.6741 15.7922C10.6839 15.8713 10.7101 15.9475 10.7512 16.0158C10.7922 16.0841 10.8472 16.143 10.9124 16.1887C10.9707 16.2254 11.0357 16.2502 11.1037 16.2616C11.1716 16.2731 11.2411 16.2709 11.3082 16.2554C11.3753 16.2398 11.4387 16.2111 11.4946 16.1709C11.5506 16.1306 11.598 16.0798 11.6342 16.0211L12.1403 15.2014C12.4158 14.7388 12.8528 14.3948 13.367 14.2358C13.8812 14.0768 14.4361 14.1142 14.9245 14.3406C15.1876 14.4702 15.4204 14.6539 15.6079 14.8796C15.7954 15.1053 15.9332 15.3679 16.0124 15.6505C16.0917 15.933 16.1105 16.229 16.0678 16.5193C16.025 16.8096 15.9216 17.0875 15.7643 17.3351L15.2114 18.2301C15.1747 18.2884 15.1499 18.3534 15.1385 18.4214C15.1271 18.4894 15.1293 18.559 15.1448 18.6261C15.1604 18.6932 15.1892 18.7566 15.2294 18.8126C15.2696 18.8686 15.3204 18.9161 15.3791 18.9523C15.4374 18.989 15.5024 19.0138 15.5703 19.0253C15.6383 19.0367 15.7078 19.0346 15.7749 19.019C15.842 19.0034 15.9053 18.9747 15.9613 18.9345C16.0172 18.8943 16.0647 18.8434 16.1009 18.7847L16.655 17.8949C16.8901 17.5134 17.0415 17.0862 17.0991 16.6417C17.1567 16.1972 17.1193 15.7455 16.9893 15.3165C16.8593 14.8875 16.6398 14.491 16.3451 14.1533C16.0504 13.8155 15.6874 13.5443 15.2802 13.3574Z" fill="black"/>
</svg>
