<svg width="43" height="40" viewBox="0 0 43 40" fill="none" xmlns="http://www.w3.org/2000/svg">
<rect y="0.0117188" width="42.079" height="39.9761" rx="9" fill="#A0D6F4" fill-opacity="0.45"/>
<path d="M16.2479 7.5C15.5296 7.5 14.8407 7.80572 14.3328 8.34991C13.8249 8.8941 13.5396 9.63218 13.5396 10.4018V29.5982C13.5396 30.3678 13.8249 31.1059 14.3328 31.6501C14.8407 32.1943 15.5296 32.5 16.2479 32.5H25.8312C26.5495 32.5 27.2384 32.1943 27.7463 31.6501C28.2542 31.1059 28.5396 30.3678 28.5396 29.5982V10.4018C28.5396 9.63218 28.2542 8.8941 27.7463 8.34991C27.2384 7.80572 26.5495 7.5 25.8312 7.5H16.2479ZM15.2062 10.4018C15.2062 9.78571 15.6729 9.28571 16.2479 9.28571H25.8312C26.4062 9.28571 26.8729 9.78571 26.8729 10.4018V29.5982C26.8729 30.2143 26.4062 30.7143 25.8312 30.7143H16.2479C15.6729 30.7143 15.2062 30.2143 15.2062 29.5982V10.4018ZM19.3729 27.1429C19.1519 27.1429 18.9399 27.2369 18.7836 27.4044C18.6273 27.5718 18.5396 27.7989 18.5396 28.0357C18.5396 28.2725 18.6273 28.4996 18.7836 28.6671C18.9399 28.8345 19.1519 28.9286 19.3729 28.9286H22.7062C22.9272 28.9286 23.1392 28.8345 23.2955 28.6671C23.4518 28.4996 23.5396 28.2725 23.5396 28.0357C23.5396 27.7989 23.4518 27.5718 23.2955 27.4044C23.1392 27.2369 22.9272 27.1429 22.7062 27.1429H19.3729Z" fill="black"/>
</svg>
