<svg width="43" height="40" viewBox="0 0 43 40" fill="none" xmlns="http://www.w3.org/2000/svg">
<rect y="0.0117188" width="42.079" height="39.9761" rx="9" fill="#EDA0F4" fill-opacity="0.45"/>
<path fill-rule="evenodd" clip-rule="evenodd" d="M20.0386 12.1648C20.0386 11.5878 20.4973 11.1201 21.0631 11.1201H30.2844C30.8503 11.1201 31.309 11.5878 31.309 12.1648C31.309 12.7418 30.8503 13.2095 30.2844 13.2095H21.0631C20.4973 13.2095 20.0386 12.7418 20.0386 12.1648ZM20.0386 17.3882C20.0386 16.8112 20.4973 16.3435 21.0631 16.3435H30.2844C30.8503 16.3435 31.309 16.8112 31.309 17.3882C31.309 17.9651 30.8503 18.4329 30.2844 18.4329H21.0631C20.4973 18.4329 20.0386 17.9651 20.0386 17.3882ZM10.8173 22.6116C10.8173 22.0346 11.276 21.5669 11.8418 21.5669H30.2844C30.8503 21.5669 31.309 22.0346 31.309 22.6116C31.309 23.1885 30.8503 23.6563 30.2844 23.6563H11.8418C11.276 23.6563 10.8173 23.1885 10.8173 22.6116ZM10.8173 27.835C10.8173 27.258 11.276 26.7903 11.8418 26.7903H30.2844C30.8503 26.7903 31.309 27.258 31.309 27.835C31.309 28.4119 30.8503 28.8797 30.2844 28.8797H11.8418C11.276 28.8797 10.8173 28.4119 10.8173 27.835Z" fill="black"/>
<path fill-rule="evenodd" clip-rule="evenodd" d="M14.1854 13.0717C13.3771 13.0717 12.7217 13.727 12.7217 14.5354C12.7217 15.3438 13.3771 15.9991 14.1854 15.9991C14.9938 15.9991 15.6491 15.3438 15.6491 14.5354C15.6491 13.727 14.9938 13.0717 14.1854 13.0717ZM10.7701 14.5354C10.7701 12.6492 12.2992 11.1201 14.1854 11.1201C16.0717 11.1201 17.6007 12.6492 17.6007 14.5354C17.6007 16.4216 16.0717 17.9507 14.1854 17.9507C12.2992 17.9507 10.7701 16.4216 10.7701 14.5354Z" fill="black"/>
</svg>
