<svg width="43" height="40" viewBox="0 0 43 40" fill="none" xmlns="http://www.w3.org/2000/svg">
<rect y="0.0117188" width="42.079" height="39.9761" rx="9" fill="#F4E2A0" fill-opacity="0.69"/>
<path fill-rule="evenodd" clip-rule="evenodd" d="M16.0241 10.3197C16.4031 10.7303 16.4031 11.396 16.0241 11.8065L13.1125 14.9607C12.7335 15.3713 12.119 15.3713 11.74 14.9607L10.2843 13.3836C9.90525 12.973 9.90525 12.3073 10.2843 11.8967C10.6633 11.4861 11.2778 11.4861 11.6568 11.8967L12.4263 12.7304L14.6515 10.3197C15.0306 9.90907 15.645 9.90907 16.0241 10.3197Z" fill="black"/>
<path fill-rule="evenodd" clip-rule="evenodd" d="M16.0241 17.679C16.4031 18.0896 16.4031 18.7553 16.0241 19.1659L13.1125 22.3201C12.7335 22.7307 12.119 22.7307 11.74 22.3201L10.2843 20.743C9.90525 20.3324 9.90525 19.6667 10.2843 19.2561C10.6633 18.8455 11.2778 18.8455 11.6568 19.2561L12.4263 20.0898L14.6515 17.679C15.0306 17.2684 15.645 17.2684 16.0241 17.679Z" fill="black"/>
<path fill-rule="evenodd" clip-rule="evenodd" d="M16.0241 25.0389C16.4031 25.4495 16.4031 26.1152 16.0241 26.5258L13.1125 29.6799C12.7335 30.0905 12.119 30.0905 11.74 29.6799L10.2843 28.1029C9.90525 27.6923 9.90525 27.0266 10.2843 26.616C10.6633 26.2054 11.2778 26.2054 11.6568 26.616L12.4263 27.4496L14.6515 25.0389C15.0306 24.6283 15.645 24.6283 16.0241 25.0389Z" fill="black"/>
<path fill-rule="evenodd" clip-rule="evenodd" d="M18.411 20.5255C18.411 19.9448 18.8817 19.4741 19.4624 19.4741H31.0276C31.6083 19.4741 32.079 19.9448 32.079 20.5255C32.079 21.1062 31.6083 21.5769 31.0276 21.5769H19.4624C18.8817 21.5769 18.411 21.1062 18.411 20.5255Z" fill="black"/>
<path fill-rule="evenodd" clip-rule="evenodd" d="M18.411 27.8849C18.411 27.3042 18.8817 26.8335 19.4624 26.8335H31.0276C31.6083 26.8335 32.079 27.3042 32.079 27.8849C32.079 28.4655 31.6083 28.9363 31.0276 28.9363H19.4624C18.8817 28.9363 18.411 28.4655 18.411 27.8849Z" fill="black"/>
<path fill-rule="evenodd" clip-rule="evenodd" d="M18.411 13.1656C18.411 12.585 18.8817 12.1143 19.4624 12.1143H31.0276C31.6083 12.1143 32.079 12.585 32.079 13.1656C32.079 13.7463 31.6083 14.217 31.0276 14.217H19.4624C18.8817 14.217 18.411 13.7463 18.411 13.1656Z" fill="black"/>
</svg>
