<svg width="43" height="40" viewBox="0 0 43 40" fill="none" xmlns="http://www.w3.org/2000/svg">
<rect y="0.0117188" width="42.079" height="39.9761" rx="9" fill="#A0F4CC" fill-opacity="0.45"/>
<path d="M14.5396 29.5793H27.5396C28.3562 29.5793 29.1394 29.2549 29.7169 28.6775C30.2943 28.1 30.6188 27.3168 30.6188 26.5002V18.1477C30.6188 17.9057 30.5226 17.6736 30.3515 17.5024C30.1804 17.3313 29.9483 17.2352 29.7063 17.2352C29.4642 17.2352 29.2321 17.3313 29.061 17.5024C28.8899 17.6736 28.7938 17.9057 28.7938 18.1477V26.5002C28.7938 26.8328 28.6616 27.1518 28.4264 27.387C28.1912 27.6222 27.8722 27.7543 27.5396 27.7543H14.5396C14.207 27.7543 13.888 27.6222 13.6528 27.387C13.4176 27.1518 13.2854 26.8328 13.2854 26.5002V13.5002C13.2854 13.1675 13.4176 12.8485 13.6528 12.6133C13.888 12.3781 14.207 12.246 14.5396 12.246H24.1379C24.3799 12.246 24.612 12.1499 24.7832 11.9787C24.9543 11.8076 25.0504 11.5755 25.0504 11.3335C25.0504 11.0915 24.9543 10.8594 24.7832 10.6883C24.612 10.5171 24.3799 10.421 24.1379 10.421H14.5396C13.7229 10.421 12.9397 10.7454 12.3623 11.3229C11.7848 11.9003 11.4604 12.6835 11.4604 13.5002V26.5002C11.4604 27.3168 11.7848 28.1 12.3623 28.6775C12.9397 29.2549 13.7229 29.5793 14.5396 29.5793Z" fill="black" stroke="black" stroke-width="0.2"/>
<path d="M19.4069 23.6206L19.4146 23.6212L19.4222 23.6206C19.6562 23.6027 19.8739 23.4943 20.0292 23.3185L29.7769 13.5708L29.7891 13.5586L29.7965 13.5432C29.8778 13.3729 29.9043 13.1816 29.8724 12.9956C29.8405 12.8096 29.7517 12.6381 29.6183 12.5047L29.548 12.575L29.6183 12.5047C29.4849 12.3712 29.3134 12.2825 29.1274 12.2505C28.9414 12.2186 28.7501 12.2452 28.5798 12.3265L28.5645 12.3338L28.5524 12.3458L19.3823 21.4514L16.7769 18.846L16.7648 18.8339L16.7493 18.8265C16.5791 18.7452 16.3878 18.7186 16.2018 18.7505C16.0158 18.7825 15.8443 18.8712 15.7108 19.0047C15.5774 19.1381 15.4886 19.3096 15.4567 19.4956C15.4248 19.6816 15.4513 19.8729 15.5327 20.0432L15.5401 20.0586L15.5522 20.0708L18.8 23.3185C18.9552 23.4943 19.173 23.6027 19.4069 23.6206Z" fill="black" stroke="black" stroke-width="0.2"/>
</svg>
