<svg width="43" height="40" viewBox="0 0 43 40" fill="none" xmlns="http://www.w3.org/2000/svg">
<rect y="0.0117188" width="42.079" height="39.9761" rx="9" fill="#F4A0A0" fill-opacity="0.45"/>
<path d="M22.3295 17.2902L18.3295 21.2902C18.2358 21.3831 18.1614 21.4937 18.1106 21.6156C18.0598 21.7375 18.0337 21.8682 18.0337 22.0002C18.0337 22.1322 18.0598 22.2629 18.1106 22.3848C18.1614 22.5066 18.2358 22.6172 18.3295 22.7102C18.4225 22.8039 18.5331 22.8783 18.6549 22.9291C18.7768 22.9798 18.9075 23.006 19.0395 23.006C19.1715 23.006 19.3022 22.9798 19.4241 22.9291C19.5459 22.8783 19.6565 22.8039 19.7495 22.7102L23.7495 18.7102C23.9378 18.5219 24.0436 18.2665 24.0436 18.0002C24.0436 17.7339 23.9378 17.4785 23.7495 17.2902C23.5612 17.1019 23.3058 16.9961 23.0395 16.9961C22.7732 16.9961 22.5178 17.1019 22.3295 17.2902Z" fill="black"/>
<path d="M21.3196 25.4L20.0396 26.67C19.321 27.4105 18.355 27.8605 17.3259 27.9343C16.2967 28.008 15.2764 27.7004 14.4596 27.07C14.0279 26.7143 13.6755 26.2719 13.4254 25.7715C13.1753 25.2711 13.0329 24.7239 13.0075 24.165C12.982 23.6062 13.0741 23.0482 13.2777 22.5271C13.4813 22.0061 13.792 21.5336 14.1896 21.14L15.6096 19.71C15.7033 19.6171 15.7777 19.5065 15.8285 19.3846C15.8792 19.2628 15.9054 19.132 15.9054 19C15.9054 18.868 15.8792 18.7373 15.8285 18.6155C15.7777 18.4936 15.7033 18.383 15.6096 18.29C15.5166 18.1963 15.406 18.1219 15.2842 18.0711C15.1623 18.0204 15.0316 17.9942 14.8996 17.9942C14.7676 17.9942 14.6369 18.0204 14.515 18.0711C14.3931 18.1219 14.2825 18.1963 14.1896 18.29L12.9196 19.57C11.8497 20.606 11.1922 21.9951 11.0689 23.4792C10.9457 24.9633 11.3652 26.4418 12.2496 27.64C12.7745 28.321 13.4382 28.8824 14.1968 29.2871C14.9553 29.6918 15.7913 29.9304 16.6492 29.9871C17.507 30.0439 18.3672 29.9175 19.1724 29.6162C19.9776 29.315 20.7096 28.8459 21.3196 28.24L22.7396 26.82C22.9279 26.6317 23.0337 26.3763 23.0337 26.11C23.0337 25.8437 22.9279 25.5883 22.7396 25.4C22.5513 25.2117 22.2959 25.1059 22.0296 25.1059C21.7633 25.1059 21.5079 25.2117 21.3196 25.4ZM28.6996 11.22C27.4931 10.3265 26.0026 9.90272 24.5064 10.0279C23.0103 10.153 21.6109 10.8185 20.5696 11.9L19.4896 13C19.3661 13.0898 19.2629 13.2044 19.1866 13.3366C19.1103 13.4688 19.0626 13.6155 19.0465 13.7672C19.0305 13.919 19.0465 14.0724 19.0936 14.2176C19.1406 14.3628 19.2176 14.4965 19.3196 14.61C19.4125 14.7038 19.5231 14.7782 19.645 14.8289C19.7669 14.8797 19.8976 14.9058 20.0296 14.9058C20.1616 14.9058 20.2923 14.8797 20.4142 14.8289C20.536 14.7782 20.6466 14.7038 20.7396 14.61L22.0396 13.3C22.7542 12.5564 23.719 12.1039 24.7477 12.03C25.7765 11.9561 26.7961 12.2661 27.6096 12.9C28.0445 13.2558 28.3996 13.6993 28.6517 14.2015C28.9039 14.7037 29.0473 15.2534 29.0728 15.8148C29.0983 16.3761 29.0052 16.9366 28.7996 17.4595C28.594 17.9825 28.2805 18.4563 27.8796 18.85L26.4596 20.28C26.3659 20.373 26.2915 20.4836 26.2407 20.6055C26.1899 20.7273 26.1638 20.858 26.1638 20.99C26.1638 21.122 26.1899 21.2528 26.2407 21.3746C26.2915 21.4965 26.3659 21.6071 26.4596 21.7C26.5525 21.7938 26.6631 21.8682 26.785 21.9189C26.9069 21.9697 27.0376 21.9958 27.1696 21.9958C27.3016 21.9958 27.4323 21.9697 27.5542 21.9189C27.676 21.8682 27.7866 21.7938 27.8796 21.7L29.2996 20.28C29.9037 19.6701 30.3714 18.9388 30.6716 18.1346C30.9719 17.3303 31.0978 16.4714 31.041 15.6148C30.9843 14.7582 30.7462 13.9235 30.3426 13.1658C29.9389 12.4082 29.3789 11.7449 28.6996 11.22Z" fill="black"/>
</svg>
