<svg width="43" height="40" viewBox="0 0 43 40" fill="none" xmlns="http://www.w3.org/2000/svg">
<rect y="0.00976562" width="42.08" height="39.98" rx="9" fill="#B6F4A0" fill-opacity="0.45"/>
<path fill-rule="evenodd" clip-rule="evenodd" d="M11.04 13.8C11.04 13.082 11.5997 12.5 12.29 12.5H29.79C30.4804 12.5 31.04 13.082 31.04 13.8C31.04 14.518 30.4804 15.1 29.79 15.1H12.29C11.5997 15.1 11.04 14.518 11.04 13.8ZM11.04 20C11.04 19.282 11.5997 18.7 12.29 18.7H29.79C30.4804 18.7 31.04 19.282 31.04 20C31.04 20.718 30.4804 21.3 29.79 21.3H12.29C11.5997 21.3 11.04 20.718 11.04 20ZM11.04 26.2C11.04 25.482 11.5997 24.9 12.29 24.9H21.79C22.4804 24.9 23.04 25.482 23.04 26.2C23.04 26.918 22.4804 27.5 21.79 27.5H12.29C11.5997 27.5 11.04 26.918 11.04 26.2Z" fill="black"/>
</svg>
