<svg xmlns="http://www.w3.org/2000/svg" width="75.825" height="32.397" viewBox="0 0 75.825 32.397">
  <g id="_05---Landings" data-name="05---Landings" transform="translate(0)">
    <g id="_004.0.0-Brand-Kit" data-name="004.0.0-Brand-Kit" transform="translate(0 0)">
      <g id="Group-2" transform="translate(0)">
        <g id="Group-4" transform="translate(0)">
          <g id="Brand_1--Logo_2--aPayUcompany_1--Colored" data-name="Brand/1--Logo/2--aPayUcompany/1--Colored" transform="translate(0 0)">
            <g id="Group-21" transform="translate(0)">
              <path id="Combined-Shape" d="M17.969,7.066A1.9,1.9,0,1,1,21.334,8.82h0l-8.653,16.7a1.9,1.9,0,0,1-1.605,1.019,1.844,1.844,0,0,1-.957-.212,1.9,1.9,0,0,1-.808-2.56h0l2.447-4.727L6.458,8.82A1.9,1.9,0,0,1,9.825,7.066h0L13.9,14.915ZM52.8,5.791a7.635,7.635,0,0,1,5.435,2.252,1.9,1.9,0,1,1-2.685,2.685,3.889,3.889,0,1,0,0,5.5,1.9,1.9,0,1,1,2.685,2.682A7.682,7.682,0,1,1,52.8,5.791Zm15.345,0a7.684,7.684,0,1,1-7.681,7.684A7.692,7.692,0,0,1,68.142,5.791ZM2.1,6.044a1.9,1.9,0,0,1,1.9,1.9h0v11.1a1.9,1.9,0,0,1-3.8,0h0V7.94A1.9,1.9,0,0,1,2.1,6.044Zm31.549,0h.461a1.9,1.9,0,0,1,1.52,3.116h0l-6.7,7.982h5.243a1.9,1.9,0,1,1,0,3.8H24.857A1.9,1.9,0,0,1,23.4,17.821h0l6.7-7.979H25.723a1.9,1.9,0,0,1,0-3.8h7.922Zm7.086,0a1.9,1.9,0,0,1,1.9,1.9h0v11.1a1.9,1.9,0,1,1-3.793,0h0V7.94A1.9,1.9,0,0,1,40.731,6.044ZM68.142,9.588a3.888,3.888,0,1,0,3.888,3.887A3.889,3.889,0,0,0,68.142,9.588ZM2.1,0A2.1,2.1,0,1,1,0,2.1,2.1,2.1,0,0,1,2.1,0ZM40.731,0a2.1,2.1,0,1,1-2.1,2.1A2.1,2.1,0,0,1,40.731,0Z" transform="translate(0 0)" fill="#1e64ff" fill-rule="evenodd"/>
            </g>
            <g id="Brand_1--Logo_aPayUcompany_Subtext" data-name="Brand/1--Logo/aPayUcompany_Subtext" transform="translate(20.568 26.539)">
              <path id="Combined-Shape-2" data-name="Combined-Shape" d="M17.165,1.176a.39.39,0,0,1,.4.382.475.475,0,0,1-.052.2h0l-1.691,3.8a.443.443,0,0,1-.412.3.375.375,0,0,1-.376-.382.573.573,0,0,1,.044-.2h0l.372-.848L14.236,1.757a.559.559,0,0,1-.046-.2.386.386,0,0,1,.392-.382.447.447,0,0,1,.411.3h0L15.867,3.5l.9-2.021A.433.433,0,0,1,17.165,1.176Zm35.454,0a.253.253,0,0,1,.253.248.349.349,0,0,1-.025.122h0L51.059,5.677a.273.273,0,0,1-.255.181.243.243,0,0,1-.243-.246.315.315,0,0,1,.028-.124h0l.438-1.019-1.28-2.923a.321.321,0,0,1-.027-.122.255.255,0,0,1,.255-.248.271.271,0,0,1,.255.182h0l1.064,2.492,1.067-2.492A.274.274,0,0,1,52.619,1.176ZM40.13,1.156a1.647,1.647,0,0,1,1.606,1.735A1.647,1.647,0,0,1,40.13,4.635,1.21,1.21,0,0,1,38.975,3.9h0V5.586a.278.278,0,0,1-.272.272.274.274,0,0,1-.272-.272h0V1.45a.268.268,0,0,1,.272-.273.272.272,0,0,1,.266.273h0v.393A1.25,1.25,0,0,1,40.13,1.156ZM21.563,0a.424.424,0,0,1,.424.428h0V2.951a1.677,1.677,0,0,1-1.821,1.684,1.673,1.673,0,0,1-1.819-1.684h0V.428A.428.428,0,0,1,18.776,0a.445.445,0,0,1,.45.428h0v2.51a.94.94,0,1,0,1.879,0h0V.428A.447.447,0,0,1,21.563,0Zm-9.8,1.156a1.028,1.028,0,0,1,.965.556h0V1.6a.434.434,0,0,1,.431-.421A.441.441,0,0,1,13.6,1.6h0V4.2a.437.437,0,0,1-.436.424.43.43,0,0,1-.431-.424h0V4.078a.991.991,0,0,1-.965.558,1.622,1.622,0,0,1-1.578-1.744A1.633,1.633,0,0,1,11.767,1.156Zm17.984,0a1.705,1.705,0,0,1,1.7,1.742,1.7,1.7,0,1,1-3.4,0A1.707,1.707,0,0,1,29.751,1.156Zm14.06,0a1.25,1.25,0,0,1,1.16.687h0V1.45a.275.275,0,0,1,.268-.273.268.268,0,0,1,.272.273h0v2.9a.277.277,0,0,1-.272.273.28.28,0,0,1-.268-.273h0V3.883a1.2,1.2,0,0,1-1.16.752,1.646,1.646,0,0,1-1.6-1.744A1.646,1.646,0,0,1,43.811,1.156ZM1.6,1.156a1.251,1.251,0,0,1,1.16.687h0V1.45a.273.273,0,0,1,.268-.273.27.27,0,0,1,.274.273h0v2.9a.271.271,0,1,1-.541,0h0V3.883a1.206,1.206,0,0,1-1.16.752A1.645,1.645,0,0,1,0,2.891,1.645,1.645,0,0,1,1.6,1.156ZM8.191.021A1.524,1.524,0,0,1,9.859,1.5,1.505,1.505,0,0,1,8.191,2.968h-.8V4.191a.44.44,0,1,1-.881,0h0V.5A.465.465,0,0,1,7,.021H8.191ZM26.32,1.156a1.456,1.456,0,0,1,1.168.517.389.389,0,0,1,.124.239.223.223,0,0,1-.229.224.3.3,0,0,1-.229-.126,1.017,1.017,0,0,0-.808-.377A1.179,1.179,0,0,0,25.16,2.891a1.178,1.178,0,0,0,1.186,1.253,1.016,1.016,0,0,0,.808-.377.3.3,0,0,1,.229-.125.223.223,0,0,1,.229.224.369.369,0,0,1-.124.234,1.473,1.473,0,0,1-1.168.522,1.685,1.685,0,0,1-1.7-1.731A1.686,1.686,0,0,1,26.32,1.156Zm10.035,0c.618,0,1.27.372,1.27,1.456h0V4.348a.276.276,0,0,1-.265.273.282.282,0,0,1-.275-.273h0V2.616a.854.854,0,0,0-.88-.978,1.1,1.1,0,0,0-1.065.934h0V4.348a.281.281,0,0,1-.273.273.276.276,0,0,1-.268-.273h0V2.616a.859.859,0,0,0-.887-.978,1.1,1.1,0,0,0-1.062.934h0V4.348a.271.271,0,1,1-.542,0h0V1.45a.271.271,0,1,1,.542,0h0v.529a1.258,1.258,0,0,1,1.219-.818,1.185,1.185,0,0,1,1.188.85A1.425,1.425,0,0,1,36.355,1.161Zm11.7,0c.614,0,1.272.372,1.272,1.456h0V4.348a.281.281,0,0,1-.272.273.275.275,0,0,1-.268-.273h0V2.616a.86.86,0,0,0-.888-.978,1.1,1.1,0,0,0-1.064.934h0V4.348a.271.271,0,1,1-.541,0h0V1.45a.275.275,0,0,1,.275-.273.272.272,0,0,1,.267.273h0v.529A1.257,1.257,0,0,1,48.057,1.161Zm-8,.464a1.14,1.14,0,0,0-1.109,1.267,1.149,1.149,0,0,0,1.109,1.266,1.168,1.168,0,0,0,1.14-1.266A1.175,1.175,0,0,0,40.053,1.624Zm-10.3.009A1.187,1.187,0,0,0,28.591,2.9a1.165,1.165,0,1,0,2.322,0A1.185,1.185,0,0,0,29.751,1.633ZM1.681,1.624A1.179,1.179,0,0,0,.539,2.891,1.171,1.171,0,0,0,1.681,4.157a1.15,1.15,0,0,0,1.11-1.266A1.141,1.141,0,0,0,1.681,1.624Zm42.209,0a1.177,1.177,0,0,0-1.143,1.267,1.169,1.169,0,0,0,1.143,1.266A1.15,1.15,0,0,0,45,2.891,1.141,1.141,0,0,0,43.891,1.624Zm-31.966.263a.914.914,0,0,0-.88,1,.909.909,0,0,0,.88,1,.886.886,0,0,0,.849-1A.887.887,0,0,0,11.924,1.887ZM8.151.771H7.394v1.45h.756c.491,0,.855-.178.855-.719S8.642.771,8.151.771Z" transform="translate(0 0)" fill="#212529"/>
            </g>
          </g>
        </g>
      </g>
    </g>
  </g>
</svg>
