<svg id="Mastercard-logo" xmlns="http://www.w3.org/2000/svg" width="60" height="46.597" viewBox="0 0 60 46.597">
  <path id="XMLID_1775_" d="M57.684,666.206v-3.092a1.814,1.814,0,0,0-1.958-1.958,2.028,2.028,0,0,0-1.753.877,1.809,1.809,0,0,0-1.651-.877,1.661,1.661,0,0,0-1.441.721v-.618H49.8v4.948h1.081v-2.732c0-.877.462-1.291,1.183-1.291s1.081.462,1.081,1.291v2.732h1.081v-2.732a1.142,1.142,0,0,1,1.183-1.291c.721,0,1.081.462,1.081,1.291v2.732Zm16.033-4.948H71.964v-1.5H70.883v1.5H69.9v.979h.979v2.27c0,1.135.462,1.8,1.7,1.8a2.906,2.906,0,0,0,1.339-.36l-.312-.931a1.729,1.729,0,0,1-.931.258c-.516,0-.721-.312-.721-.823v-2.216h1.753v-.979Zm9.175-.108a1.465,1.465,0,0,0-1.291.721v-.619H80.521V666.2H81.6v-2.786c0-.823.36-1.291,1.033-1.291a3.314,3.314,0,0,1,.673.1l.312-1.033a4.283,4.283,0,0,0-.727-.042Zm-13.865.516a3.546,3.546,0,0,0-2.012-.516c-1.237,0-2.06.618-2.06,1.6,0,.823.618,1.291,1.7,1.441l.516.054c.564.1.877.258.877.516,0,.36-.414.619-1.135.619a2.85,2.85,0,0,1-1.651-.516l-.516.823a3.623,3.623,0,0,0,2.114.619c1.441,0,2.27-.673,2.27-1.6,0-.877-.673-1.339-1.7-1.5l-.516-.054c-.462-.054-.823-.156-.823-.462,0-.36.36-.564.931-.564a3.719,3.719,0,0,1,1.549.414l.456-.877Zm28.757-.516a1.465,1.465,0,0,0-1.291.721v-.619H95.413V666.2h1.081v-2.786c0-.823.36-1.291,1.033-1.291a3.314,3.314,0,0,1,.673.1l.312-1.021a3.3,3.3,0,0,0-.727-.054Zm-13.811,2.582a2.476,2.476,0,0,0,2.63,2.576,2.589,2.589,0,0,0,1.753-.564l-.516-.877a2.065,2.065,0,0,1-1.291.462,1.463,1.463,0,0,1-1.5-1.6,1.516,1.516,0,0,1,1.5-1.6,2.114,2.114,0,0,1,1.291.462l.516-.877a2.559,2.559,0,0,0-1.753-.564,2.473,2.473,0,0,0-2.63,2.576Zm10,0v-2.474H92.89v.618a1.867,1.867,0,0,0-1.549-.721,2.578,2.578,0,0,0,0,5.152,1.748,1.748,0,0,0,1.549-.721v.619h1.081v-2.474Zm-3.969,0a1.5,1.5,0,1,1,2.99,0,1.5,1.5,0,1,1-2.99,0Zm-12.934-2.582a2.577,2.577,0,0,0,.054,5.152,3.142,3.142,0,0,0,2.012-.673l-.516-.775a2.455,2.455,0,0,1-1.441.516,1.393,1.393,0,0,1-1.5-1.183h3.657v-.414a2.282,2.282,0,0,0-2.27-2.624Zm0,.931a1.2,1.2,0,0,1,1.237,1.183H75.729a1.3,1.3,0,0,1,1.339-1.183Zm26.853,1.651V659.3H102.84v2.576a1.867,1.867,0,0,0-1.549-.721,2.578,2.578,0,0,0,0,5.152,1.748,1.748,0,0,0,1.549-.721v.619h1.081v-2.474Zm-3.969,0a1.5,1.5,0,1,1,2.99,0,1.5,1.5,0,1,1-2.99,0Zm-36.185,0v-2.474H62.686v.618a1.867,1.867,0,0,0-1.549-.721,2.578,2.578,0,0,0,0,5.152,1.748,1.748,0,0,0,1.549-.721v.619h1.081v-2.474Zm-4.017,0a1.5,1.5,0,1,1,2.99,0,1.5,1.5,0,1,1-2.99,0Z" transform="translate(-46.81 -619.71)"/>
  <g id="Group_26365" data-name="Group 26365">
    <rect id="rect19" width="16.237" height="29.171" transform="translate(21.857 3.969)" fill="#ff5a00"/>
    <path id="XMLID_330_" d="M22.938,18.555A18.607,18.607,0,0,1,30,3.969,18.549,18.549,0,1,0,18.555,37.11,18.455,18.455,0,0,0,30,33.141,18.517,18.517,0,0,1,22.938,18.555Z" fill="#eb001b"/>
    <path id="path22" d="M529.6,18.555a18.537,18.537,0,0,1-30,14.586,18.594,18.594,0,0,0,0-29.171,18.537,18.537,0,0,1,30,14.586Z" transform="translate(-469.6)" fill="#f79e1b"/>
  </g>
</svg>
