<svg xmlns="http://www.w3.org/2000/svg" width="67.501" height="31.084" viewBox="0 0 67.501 31.084">
  <g id="Group_26364" data-name="Group 26364" transform="translate(-250 -384.876)">
    <path id="Path_31855" data-name="Path 31855" d="M584.281,421.9a2.636,2.636,0,0,0-2.393,1.468l-4.4,10.085L575.9,423.369a1.709,1.709,0,0,0-1.841-1.468h-5.574l4.767,16.749a2.424,2.424,0,0,1,.04,1.052,3.159,3.159,0,0,1-2.983,2.532h-3.121c-.793,0-1.315.491-1.57,1.6l-.693,4.151h5.5c2.868,0,6.235-1.441,8.482-5.425L589.914,421.9Z" transform="translate(-272.413 -32.027)" fill="#252f38" fill-rule="evenodd"/>
    <path id="Path_31856" data-name="Path 31856" d="M257.762,384.876c1.646,0,2.441.657,2.152,2.307l-.474,2.688h3.782l-.833,4.722H258.6l-1.031,5.847c-.356,2.037,1.66,2.309,2.817,2.309.231,0,.422-.005.559-.013L260.025,408a9.28,9.28,0,0,1-1.2.07c-2.871,0-8.3-.769-7.234-6.828l1.169-6.651H250l.83-4.722h2.73l.879-4.995Z" fill="#252f38" fill-rule="evenodd"/>
    <path id="Path_31857" data-name="Path 31857" d="M522.587,423.478l-.972,5.506a3.693,3.693,0,0,1-1.227,6.957l-.971,5.5c.171.011.346.017.52.017a9.187,9.187,0,0,0,2.65-17.984" transform="translate(-233.046 -33.391)" fill="#009fae" fill-rule="evenodd"/>
    <path id="Path_31858" data-name="Path 31858" d="M462.737,433.067a3.69,3.69,0,0,1,1.228-6.954l.97-5.505c-.173-.011-.348-.019-.521-.019a9.188,9.188,0,0,0-2.647,17.987Z" transform="translate(-177.521 -30.892)" fill="#009fae" fill-rule="evenodd"/>
    <path id="Path_31859" data-name="Path 31859" d="M343.8,420.751h3.25c1.647,0,2.439.658,2.148,2.309l-.356,2c1.211-2.458,3.837-4.485,6.531-4.485a3.922,3.922,0,0,1,.693.07l-1.05,5.954a5.875,5.875,0,0,0-1.207-.109,5.586,5.586,0,0,0-5.215,3.153,9.3,9.3,0,0,0-.742,2.448l-1.176,6.69H340.62Z" transform="translate(-78.386 -30.877)" fill="#252f38" fill-rule="evenodd"/>
    <path id="Path_31860" data-name="Path 31860" d="M723.612,548.766a.353.353,0,0,0-.112-.269.4.4,0,0,0-.289-.107h-.4v.747h.4a.419.419,0,0,0,.289-.1.344.344,0,0,0,.112-.267m.357,1.493h-.345l-.488-.869h-.321v.869h-.294v-2.131h.723a.678.678,0,0,1,.475.184.6.6,0,0,1,.2.454.573.573,0,0,1-.459.585Zm.821-1.064a1.6,1.6,0,0,1-.482,1.172,1.618,1.618,0,0,1-2.311,0,1.683,1.683,0,0,1,0-2.342,1.615,1.615,0,0,1,2.311,0,1.6,1.6,0,0,1,.482,1.171m.305,0a1.949,1.949,0,0,1-1.944,1.945,1.944,1.944,0,1,1,0-3.888,1.943,1.943,0,0,1,1.944,1.943" transform="translate(-407.594 -140.455)" fill="#252f38" fill-rule="evenodd"/>
  </g>
</svg>
