<svg xmlns="http://www.w3.org/2000/svg" width="80.787" height="26.146" viewBox="0 0 80.787 26.146">
  <g id="g4158" transform="translate(-81.166 -105.048)">
    <path id="polygon9" d="M440.051,136.037h-6.544l4.093-25.31h6.544Z" transform="translate(-323.878 -5.22)" fill="#00579f"/>
    <path id="path11" d="M584.81,106.125a16.127,16.127,0,0,0-5.87-1.078c-6.463,0-11.014,3.446-11.042,8.373-.054,3.635,3.258,5.654,5.735,6.866,2.532,1.239,3.393,2.047,3.393,3.151-.026,1.7-2.046,2.477-3.93,2.477a13.025,13.025,0,0,1-6.14-1.346l-.862-.4-.916,5.681a19.918,19.918,0,0,0,7.3,1.347c6.867,0,11.337-3.393,11.39-8.644.026-2.881-1.723-5.089-5.493-6.893-2.289-1.158-3.691-1.939-3.691-3.124.027-1.077,1.186-2.18,3.769-2.18a11.119,11.119,0,0,1,4.875.969l.592.269.89-5.465Z" transform="translate(-444.913)" fill="#00579f"/>
    <path id="path13" d="M800.647,127.07c.539-1.454,2.613-7.081,2.613-7.081-.027.054.538-1.481.861-2.423l.457,2.181s1.239,6.058,1.508,7.324Zm8.078-16.343h-5.062a3.229,3.229,0,0,0-3.42,2.1l-9.721,23.209h6.867l1.373-3.8h8.4c.188.889.781,3.8.781,3.8H814l-5.28-25.309Z" transform="translate(-652.052 -5.22)" fill="#00579f"/>
    <path id="path15" d="M181.993,110.727l-6.409,17.259-.7-3.5a19.372,19.372,0,0,0-9.048-10.609l5.87,22.133h6.92l10.286-25.283Z" transform="translate(-77.83 -5.22)" fill="#00579f"/>
    <path id="path17" d="M91.8,110.727H81.273l-.108.511c8.213,2.1,13.653,7.163,15.888,13.248l-2.289-11.632c-.377-1.616-1.535-2.074-2.962-2.128Z" transform="translate(0 -5.22)" fill="#faa61a"/>
  </g>
</svg>
