<svg xmlns="http://www.w3.org/2000/svg" width="780" height="500" viewBox="0 0 780 500">
  <g id="Group_25912" data-name="Group 25912" transform="translate(1781 -3790)">
    <path id="Path_31028" data-name="Path 31028" d="M40,0H740a40,40,0,0,1,40,40V460a40,40,0,0,1-40,40H40A40,40,0,0,1,0,460V40A40,40,0,0,1,40,0Z" transform="translate(-1781 3790)" fill="#2e63ac"/>
    <path id="Path_31029" data-name="Path 31029" d="M780,457.141C780,480.811,760.2,500,735.785,500H76.215C51.8,500,32,480.811,32,457.141V42.858C32,19.189,51.8,0,76.215,0h659.57C760.206,0,780,19.189,780,42.858Z" transform="translate(-1781 3790)" fill="#306fc5"/>
    <path id="Path_31030" data-name="Path 31030" d="M141.586,200.082h21.662l-10.828-27.57Z" transform="translate(-1781 3790)" fill="#fff"/>
    <path id="Path_31031" data-name="Path 31031" d="M256.789,292.633v12.8h36.433v13.788H256.789V334h40.37l18.707-20.682-17.722-20.681Z" transform="translate(-1781 3790)" fill="#fff"/>
    <path id="Path_31032" data-name="Path 31032" d="M541.344,172.512l-11.817,27.57h22.65Z" transform="translate(-1781 3790)" fill="#fff"/>
    <path id="Path_31033" data-name="Path 31033" d="M362.145,341.865V285.742l-25.6,27.572Z" transform="translate(-1781 3790)" fill="#fff"/>
    <path id="Path_31034" data-name="Path 31034" d="M410.392,301.5c-.986-5.907-4.928-8.865-10.838-8.865H378.881v17.723h21.664C406.451,310.357,410.392,307.4,410.392,301.5Z" transform="translate(-1781 3790)" fill="#fff"/>
    <path id="Path_31035" data-name="Path 31035" d="M479.311,308.392c1.969-.987,2.958-3.944,2.958-6.892.985-3.935-.989-5.908-2.958-6.893s-4.923-.986-7.872-.986h-19.7v15.756h19.7C474.387,309.377,477.345,309.377,479.311,308.392Z" transform="translate(-1781 3790)" fill="#fff"/>
    <path id="Path_31036" data-name="Path 31036" d="M621.094,146.91v11.815l-5.9-11.815H568.917v11.815l-5.91-11.815H499.99c-10.829,0-19.695,1.971-27.568,5.909V146.91H428.115v5.909c-4.922-3.937-10.83-5.909-18.707-5.909H250.883l-10.836,24.616L229.219,146.91H179v11.815l-4.924-11.815H130.756l-19.7,46.276L88.416,243.4l-.416.987h51.262l.357-.987,5.91-14.766h12.8l5.908,15.753h57.1V232.573l4.926,11.814h28.552l4.92-11.814v11.815H396.6v-25.6h1.974c1.967,0,1.967,0,1.967,2.956V243.4h70.894v-5.908a58.9,58.9,0,0,0,26.58,5.908h29.543l5.908-15.751h13.781l5.907,15.751h57.106V228.636L619.13,243.4h46.276V146.91ZM287.312,229.622H271.557V175.465l-.986,2.259V177.7l-22.906,51.925H233.154l-23.63-54.157v54.157H176.049l-6.892-14.769h-33.48l-6.894,14.769H111.475L140.6,160.7h24.614l27.568,65.969V160.7h26.087l.464.987h.034l12.423,27.038,8.921,20.258.316-1.021,19.691-47.26H287.31v68.924Zm67.941-54.157h-38.4v12.8h37.416v13.784H316.851v13.789h38.4V230.6H300.114V160.7h55.139Zm70.228,25.39a.932.932,0,0,0,.09.06,11.142,11.142,0,0,1,.962,1.166c1.887,2.473,3.412,6.15,3.488,11.542.006.094.01.186.016.279,0,.054.01.1.01.156,0,.031,0,.055,0,.085.022.542.037,1.1.037,1.695v13.785H415.314v-7.88c0-3.938,0-9.847-2.958-13.785a8.965,8.965,0,0,0-2.9-1.98c-1.476-.956-4.272-.971-8.914-.971H382.816v24.616H366.081V160.7H403.5c8.856,0,14.767,0,19.692,2.953,4.824,2.9,7.738,7.7,7.849,15.311-.228,10.478-6.954,16.227-11.79,18.166A13.178,13.178,0,0,1,425.481,200.855Zm33.157,28.767H441.9V160.7h16.741Zm192,0H628.976l-31.507-52.188v43.323l-.1-.1v9.009H580.731v-.041h-16.74l-5.908-14.769H523.618L517.711,230.6H499c-7.871,0-17.724-1.967-23.629-7.875s-8.859-13.785-8.859-26.583c0-9.846,1.967-19.7,8.859-27.573,4.919-5.912,13.785-7.876,24.614-7.876h15.757v14.767H499.988c-5.908,0-8.856.982-12.8,3.941-2.948,2.953-4.919,8.859-4.919,15.751,0,7.879.985,12.8,4.919,16.739,2.961,2.958,6.9,3.944,11.818,3.944h6.892l22.644-54.154h24.618l27.573,65.969V161.687h24.614l28.548,48.245V161.687h16.746v67.938h0Z" transform="translate(-1781 3790)" fill="#fff"/>
    <path id="Path_31037" data-name="Path 31037" d="M411.441,189.4a5.291,5.291,0,0,0,.769-1.055,10.639,10.639,0,0,0,1.364-7.426,5.534,5.534,0,0,0-.149-.9c-.018-.079-.015-.148-.037-.228l-.01,0a5.522,5.522,0,0,0-2.987-3.352c-1.974-.981-4.928-.981-7.881-.981h-19.7v15.756h19.7c2.953,0,5.908,0,7.881-.987a3.69,3.69,0,0,0,.812-.585l0,.013S411.308,189.557,411.441,189.4Z" transform="translate(-1781 3790)" fill="#fff"/>
    <path id="Path_31038" data-name="Path 31038" d="M708.73,328.086a37.73,37.73,0,0,0-4.919-18.709V265.071h-.046v-2.958H656.352c-6.14,0-13.591,5.906-13.591,5.906v-5.906H597.47c-6.9,0-15.752,1.971-19.695,5.906v-5.906H497.038v5.9c-5.9-4.92-16.743-5.907-21.663-5.907H422.2v5.9c-4.923-4.919-16.744-5.906-22.654-5.906H340.482l-13.788,14.771-12.8-14.771H225.281v99.453h86.647l14.237-14.241,12.34,14.241h55.144V338.917h4.926c6.886,0,15.752,0,22.644-2.958v26.588h44.309v-25.6h1.964c2.958,0,2.958,0,2.958,2.954v22.648h133.9c8.869,0,17.725-1.974,22.647-5.912v5.912h42.342c8.856,0,17.725-.984,23.633-4.925,9.065-5.439,14.779-15.067,15.628-26.55.04-.339.089-.679.121-1.02l-.058-.056C708.7,329.359,708.73,328.729,708.73,328.086ZM398.577,322.18h-19.7v25.6H346.516L327.68,326.114l-.065.072-.921-1.059-21.661,22.65H242.018V278.855h64L323.5,298.007l3.676,4.01.5-.517,20.68-22.644h52.184c10.128,0,21.469,2.5,25.766,12.8a27.831,27.831,0,0,1,.817,6.886C427.125,318.237,413.34,322.18,398.577,322.18Zm98.461-.987c1.967,2.947,2.952,6.892,2.952,12.8v13.781H483.254v-8.859c0-3.945,0-10.832-2.958-13.79-1.964-2.947-5.908-2.947-11.811-2.947H450.763v25.6H434.026V277.869h37.413c7.872,0,14.763,0,19.7,2.951a17.428,17.428,0,0,1,8.856,15.758c0,10.828-6.889,16.736-11.814,18.708Q495.564,318.229,497.038,321.193Zm67.941-28.56H526.574v12.8h37.417v13.788H526.574v13.786h38.405v14.768H509.84V277.868h55.139Zm41.352,55.144h-31.51V333.01h31.51c2.948,0,4.922,0,6.9-1.972a7.15,7.15,0,0,0,0-9.844,8.354,8.354,0,0,0-5.914-1.97c-15.755-.985-34.462,0-34.462-21.659,0-9.847,5.908-20.68,23.632-20.68h32.491v16.736H598.453c-2.952,0-4.925,0-6.9.986s-1.964,2.958-1.964,4.925c0,2.955,1.964,3.94,3.934,4.918a12.475,12.475,0,0,0,5.907.987H608.3c8.863,0,14.77,1.969,18.708,5.909,2.955,2.955,4.925,7.879,4.925,14.769C631.93,340.88,623.068,347.777,606.331,347.777Zm84.677-6.9c-3.934,3.944-10.83,6.9-20.68,6.9h-31.5V333.01h31.5c2.955,0,4.929,0,6.9-1.972a7.134,7.134,0,0,0,0-9.844,8.324,8.324,0,0,0-5.908-1.97c-15.749-.985-34.462,0-34.462-21.658,0-9.358,5.354-17.812,18.559-20.323a36.713,36.713,0,0,1,5.074-.358h32.495v16.736H662.455c-2.955,0-4.922,0-6.889.986a7.509,7.509,0,0,0-1.977,4.925c0,2.955.986,3.94,3.944,4.918a12.454,12.454,0,0,0,5.908.987H672.3a30.768,30.768,0,0,1,10.536,1.577c2.727.987,11.756,5.026,13.775,15.568a22.058,22.058,0,0,1,.3,3.533A20.024,20.024,0,0,1,691.008,340.88Z" transform="translate(-1781 3790)" fill="#fff"/>
  </g>
</svg>
