<svg xmlns="http://www.w3.org/2000/svg" width="780" height="500" viewBox="0 0 780 500">
  <g id="Group_25913" data-name="Group 25913" transform="translate(838 -3790)">
    <path id="Path_31012" data-name="Path 31012" d="M983,0h700a40,40,0,0,1,40,40V460a40,40,0,0,1-40,40H983a40,40,0,0,1-40-40V40A40,40,0,0,1,983,0Z" transform="translate(-1781 3790)" fill="#16366f"/>
    <path id="Path_31013" data-name="Path 31013" d="M1392.01,250A179.505,179.505,0,1,1,1212.5,70.5,179.5,179.5,0,0,1,1392.01,250Z" transform="translate(-1781 3790)" fill="#d9222a"/>
    <path id="Path_31014" data-name="Path 31014" d="M1453.49,70.5a178.851,178.851,0,0,0-120.5,46.466,182.8,182.8,0,0,0-18.13,19h36.27a181.512,181.512,0,0,1,13.69,19.013h-63.64a178.3,178.3,0,0,0-10.34,19.008h84.31a180.135,180.135,0,0,1,7.6,19h-99.51a178.534,178.534,0,0,0-5.22,19.009h109.94a180.543,180.543,0,0,1-5.21,95.028h-99.51a177.619,177.619,0,0,0,7.59,19.01h84.32a178.664,178.664,0,0,1-10.35,19.013h-63.62a181.606,181.606,0,0,0,13.68,19h36.26a179.334,179.334,0,0,1-18.13,19.012,179.5,179.5,0,1,0,120.5-312.546" transform="translate(-1781 3790)" fill="#ee9f2d"/>
    <path id="Path_31015" data-name="Path 31015" d="M1609.08,350.06a5.8,5.8,0,1,1,5.8,5.8A5.8,5.8,0,0,1,1609.08,350.06Zm5.8,4.408a4.406,4.406,0,0,0,0-8.812h0a4.406,4.406,0,0,0-4.41,4.392v.013a4.407,4.407,0,0,0,4.4,4.408S1614.87,354.468,1614.88,354.468Zm-.79-1.86h-1.19v-5.094h2.15a2.341,2.341,0,0,1,1.31.254,1.538,1.538,0,0,1,.64,1.278,1.387,1.387,0,0,1-.88,1.312l.94,2.25h-1.32l-.78-2.016h-.87v2.016Zm0-2.89h.66a1.511,1.511,0,0,0,.73-.1.7.7,0,0,0,.29-.584.631.631,0,0,0-.29-.516,1.465,1.465,0,0,0-.75-.1h-.64v1.3Zm-443.5-80.063a32.478,32.478,0,0,0-4.35-.3c-11.04,0-16.63,3.789-16.63,11.268,0,4.611,2.73,7.546,6.98,7.546,7.94,0,13.66-7.56,14-18.513Zm14.17,33h-16.14l.37-7.676c-4.93,6.067-11.5,8.95-20.43,8.95-10.56,0-17.8-8.25-17.8-20.229,0-18.024,12.6-28.54,34.22-28.54a66.169,66.169,0,0,1,7.94.569,18.336,18.336,0,0,0,.76-4.8c0-4.908-3.4-6.738-12.5-6.738a64.512,64.512,0,0,0-20.62,3.334c.2-1.23,2.7-16.658,2.7-16.658,9.71-2.846,16.11-3.917,23.32-3.917,16.73,0,25.6,7.512,25.58,21.712a95.3,95.3,0,0,1-1.58,14.671c-1.69,10.731-5.32,33.718-5.82,39.322Zm-62.15,0h-19.49l11.16-70-24.92,70h-13.28l-1.64-69.6-11.74,69.6h-18.24L1059.7,211.6h28.02l1.7,50.966,17.09-50.966h31.17l-15.07,91.054m354.98-33a32.582,32.582,0,0,0-4.35-.3c-11.04,0-16.63,3.789-16.63,11.268,0,4.611,2.73,7.546,6.98,7.546C1471.53,288.168,1477.26,280.608,1477.59,269.655Zm14.18,33h-16.15l.37-7.676c-4.93,6.067-11.5,8.95-20.42,8.95-10.57,0-17.8-8.25-17.8-20.229,0-18.024,12.59-28.54,34.21-28.54a65.739,65.739,0,0,1,7.93.569,18.027,18.027,0,0,0,.77-4.8c0-4.908-3.39-6.738-12.5-6.738a64.7,64.7,0,0,0-20.63,3.334c.21-1.23,2.71-16.658,2.71-16.658,9.71-2.846,16.11-3.917,23.31-3.917,16.74,0,25.61,7.512,25.59,21.712a95.3,95.3,0,0,1-1.58,14.671C1495.9,274.06,1492.26,297.047,1491.77,302.651Zm-220.39-1.125a44.507,44.507,0,0,1-14,2.4c-9.96,0-15.4-5.725-15.4-16.267-.14-3.27,1.43-11.879,2.67-19.737,1.12-6.917,8.45-50.53,8.45-50.53h19.37l-2.26,11.209h11.7l-2.65,17.8h-11.74c-2.25,14.083-5.45,31.625-5.49,33.95,0,3.817,2.04,5.483,6.67,5.483a15.84,15.84,0,0,0,5.26-.7l-2.58,16.4m59.39-.6a66.126,66.126,0,0,1-19.88,3c-21.68-.021-32.99-11.346-32.99-33.032,0-25.313,14.38-43.947,33.9-43.947,15.97,0,26.17,10.433,26.17,26.8a79.921,79.921,0,0,1-2.38,18.212h-38.58c-1.3,10.742,5.57,15.217,16.84,15.217a45.85,45.85,0,0,0,20.14-4.663l-3.22,18.417Zm-10.89-43.9c.11-1.543,2.06-13.217-9.01-13.217-6.17,0-10.58,4.7-12.38,13.217Zm-123.42-5.017c0,9.367,4.54,15.825,14.84,20.676,7.9,3.709,9.12,4.809,9.12,8.17,0,4.617-3.48,6.7-11.2,6.7a54.762,54.762,0,0,1-17.45-2.92s-2.57,16.32-2.68,17.1c4.43.966,8.38,1.861,20.28,2.19,20.56,0,30.05-7.829,30.05-24.75,0-10.175-3.97-16.146-13.73-20.633-8.17-3.75-9.11-4.588-9.11-8.046,0-4,3.24-6.046,9.54-6.046a106.9,106.9,0,0,1,14,1.113l2.77-17.175a131.93,131.93,0,0,0-17.15-1.442C1203.94,226.947,1196.4,238.334,1196.46,252.009Zm229.09-23.116c5.42,0,10.46,1.42,17.42,4.92l3.18-19.762c-2.85-1.12-12.9-7.7-21.41-7.7-13.05,0-24.07,6.47-31.82,17.15-11.31-3.746-15.96,3.825-21.66,11.367l-5.06,1.179a37.349,37.349,0,0,0,.61-7.446h-17.9c-2.44,22.917-6.78,46.13-10.17,69.075l-.88,4.976h19.49c3.26-21.143,5.04-34.681,6.12-43.842l7.35-4.084c1.09-4.08,4.53-5.458,11.41-5.292a83.145,83.145,0,0,0-1.38,15.184c0,24.225,13.07,39.308,34.05,39.308,5.4,0,10.04-.712,17.22-2.657l3.43-20.76c-6.46,3.18-11.76,4.676-16.56,4.676-11.33,0-18.18-8.362-18.18-22.184C1400.81,242.951,1411,228.893,1425.55,228.893Z" transform="translate(-1781 3790)"/>
    <path id="Path_31016" data-name="Path 31016" d="M1128.21,297.24h-19.49l11.17-69.988-24.93,69.988h-13.28l-1.64-69.588-11.73,69.588h-18.25L1065.3,206.2h28.02l.79,56.362,18.9-56.362h30.27l-15.07,91.042" transform="translate(-1781 3790)" fill="#fff"/>
    <path id="Path_31017" data-name="Path 31017" d="M1590.52,211.6l-4.32,26.308c-5.33-7.012-11.05-12.087-18.61-12.087-9.83,0-18.78,7.454-24.64,18.425a161.67,161.67,0,0,1-16.6-4.563v.067a111.325,111.325,0,0,0,.86-11.146h-17.9c-2.44,22.917-6.77,46.13-10.16,69.075l-.89,4.976h19.49q3.945-25.645,6.13-42.551c6.66-6.017,10-11.267,16.72-10.917a63.635,63.635,0,0,0-4.72,24.017c0,18.513,9.37,30.725,23.53,30.725,7.14,0,12.62-2.462,17.97-8.17l-.91,6.884h18.43l14.84-91.043Zm-24.37,73.942c-6.63,0-9.98-4.909-9.98-14.6,0-14.553,6.27-24.875,15.11-24.875,6.69,0,10.32,5.1,10.32,14.508,0,14.681-6.37,24.964-15.45,24.964Z" transform="translate(-1781 3790)"/>
    <path id="Path_31018" data-name="Path 31018" d="M1176.19,264.26a32.722,32.722,0,0,0-4.35-.3c-11.04,0-16.63,3.788-16.63,11.267,0,4.6,2.73,7.547,6.98,7.547,7.94,0,13.67-7.559,14-18.514Zm14.18,32.984h-16.15l.37-7.663c-4.92,6.054-11.5,8.95-20.42,8.95-10.57,0-17.81-8.25-17.81-20.229,0-18.032,12.6-28.542,34.22-28.542a65.661,65.661,0,0,1,7.94.571,18.35,18.35,0,0,0,.76-4.808c0-4.908-3.39-6.73-12.5-6.73a65.036,65.036,0,0,0-20.62,3.322c.2-1.226,2.7-16.638,2.7-16.638,9.7-2.858,16.12-3.93,23.32-3.93,16.73,0,25.6,7.518,25.58,21.705a95.053,95.053,0,0,1-1.58,14.675c-1.69,10.725-5.32,33.725-5.81,39.317Zm261.38-88.592-3.19,19.767c-6.95-3.5-12-4.921-17.41-4.921-14.55,0-24.75,14.058-24.75,34.107,0,13.821,6.86,22.181,18.18,22.181,4.8,0,10.1-1.492,16.56-4.677l-3.42,20.75c-7.19,1.959-11.82,2.672-17.23,2.672-20.98,0-34.05-15.084-34.05-39.309,0-32.55,18.06-55.3,43.89-55.3,8.51,0,18.56,3.609,21.42,4.73m31.44,55.608a32.618,32.618,0,0,0-4.35-.3c-11.04,0-16.63,3.788-16.63,11.267,0,4.6,2.73,7.547,6.99,7.547C1477.13,282.773,1482.86,275.215,1483.19,264.26Zm14.18,32.984h-16.15l.37-7.663c-4.92,6.054-11.5,8.95-20.42,8.95-10.56,0-17.8-8.25-17.8-20.229,0-18.032,12.59-28.542,34.21-28.542a65.661,65.661,0,0,1,7.94.571,18.35,18.35,0,0,0,.76-4.808c0-4.908-3.39-6.73-12.49-6.73a65.056,65.056,0,0,0-20.63,3.322c.2-1.226,2.7-16.638,2.7-16.638,9.71-2.858,16.12-3.93,23.32-3.93,16.74,0,25.6,7.518,25.58,21.705a93.816,93.816,0,0,1-1.58,14.675c-1.68,10.725-5.32,33.725-5.81,39.317Zm-220.39-1.122a44.586,44.586,0,0,1-14,2.409c-9.96,0-15.4-5.726-15.4-16.266-.14-3.281,1.44-11.881,2.67-19.738,1.12-6.926,8.45-50.533,8.45-50.533h19.37l-2.26,11.212h9.94l-2.65,17.788h-9.97c-2.25,14.091-5.46,31.619-5.5,33.949,0,3.83,2.05,5.483,6.67,5.483a15.841,15.841,0,0,0,5.26-.692l-2.58,16.388m59.39-.591a66.253,66.253,0,0,1-19.88,3c-21.68-.021-32.99-11.346-32.99-33.033,0-25.321,14.38-43.95,33.9-43.95,15.97,0,26.17,10.429,26.17,26.8a79.867,79.867,0,0,1-2.38,18.212h-38.57c-1.31,10.741,5.57,15.221,16.83,15.221a45.745,45.745,0,0,0,20.14-4.676l-3.22,18.426Zm-10.89-43.912c.12-1.538,2.06-13.217-9.01-13.217-6.17,0-10.58,4.717-12.38,13.217Zm-123.42-5c0,9.365,4.54,15.816,14.84,20.675,7.89,3.708,9.11,4.812,9.11,8.17,0,4.617-3.48,6.7-11.18,6.7a54.907,54.907,0,0,1-17.47-2.92s-2.55,16.32-2.67,17.1c4.42.967,8.37,1.85,20.27,2.191,20.57,0,30.06-7.829,30.06-24.746,0-10.18-3.97-16.15-13.74-20.637-8.16-3.758-9.11-4.583-9.11-8.046,0-4,3.25-6.058,9.54-6.058a107.363,107.363,0,0,1,14.01,1.125l2.77-17.18a131.921,131.921,0,0,0-17.15-1.441c-21.8,0-29.34,11.379-29.28,25.067m398.45,50.629h-18.44l.92-6.893c-5.35,5.717-10.82,8.18-17.97,8.18-14.16,0-23.53-12.213-23.53-30.725,0-24.63,14.52-45.393,31.71-45.393,7.56,0,13.28,3.088,18.61,10.1l4.32-26.308h19.22l-14.84,91.043Zm-28.74-17.109c9.07,0,15.45-10.283,15.45-24.953,0-9.405-3.63-14.509-10.33-14.509-8.84,0-15.12,10.317-15.12,24.875C1561.77,275.234,1565.13,280.135,1571.77,280.135Zm-56.85-56.929c-2.44,22.917-6.77,46.13-10.16,69.063l-.89,4.975h19.49c6.97-45.275,8.66-54.117,19.59-53.009,1.74-9.266,4.98-17.383,7.4-21.479-8.17-1.7-12.72,2.913-18.69,11.675.47-3.787,1.33-7.466,1.16-11.225h-17.9m-160.42,0c-2.44,22.917-6.78,46.13-10.17,69.063l-.88,4.975h19.5c6.96-45.275,8.64-54.117,19.57-53.009,1.75-9.266,4.99-17.383,7.4-21.479-8.16-1.7-12.72,2.913-18.68,11.675.47-3.787,1.32-7.466,1.16-11.225h-17.9m254.57,68.242a5.8,5.8,0,0,1,11.59-.015v.015a5.8,5.8,0,1,1-11.59,0Zm5.8,4.4a4.4,4.4,0,0,0,4.4-4.4v0a4.406,4.406,0,0,0-4.4-4.408h0a4.406,4.406,0,1,0,0,8.811Zm-.79-1.87h-1.18V288.9h2.15a2.359,2.359,0,0,1,1.3.254,1.547,1.547,0,0,1,.65,1.274,1.394,1.394,0,0,1-.89,1.317l.94,2.236h-1.32l-.78-2.008h-.87v2.011Zm0-2.88h.66a1.535,1.535,0,0,0,.73-.1.7.7,0,0,0,.29-.587.658.658,0,0,0-.29-.524,1.667,1.667,0,0,0-.76-.085h-.63v1.3Z" transform="translate(-1781 3790)" fill="#fff"/>
  </g>
</svg>
