<svg xmlns="http://www.w3.org/2000/svg" width="780" height="500" viewBox="0 0 780 500">
  <g id="Group_25915" data-name="Group 25915" transform="translate(-1002 -3790)">
    <path id="Path_31022" data-name="Path 31022" d="M2823,0h700a40,40,0,0,1,40,40V460a40,40,0,0,1-40,40H2823a40,40,0,0,1-40-40V40A40,40,0,0,1,2823,0Z" transform="translate(-1781 3790)" fill="#eaeaea"/>
    <path id="Path_31023" data-name="Path 31023" d="M3453.15,171.6c-8.97,0-18.85,5-22.8,13.976l-41.89,96.035-15.09-96.035c-1.78-8.979-7.88-13.976-17.53-13.976h-53.08l45.4,159.493a23.214,23.214,0,0,1,.38,10.016c-2.37,13.31-15.09,24.107-28.4,24.107h-29.73c-7.54,0-12.51,4.675-14.94,15.26L3268.86,420h52.35c27.3,0,59.37-13.719,80.77-51.655L3506.78,171.6Z" transform="translate(-1781 3790)" fill="#323e48" fill-rule="evenodd"/>
    <path id="Path_31024" data-name="Path 31024" d="M2937.91,124c15.68,0,23.25,6.253,20.49,21.967l-4.51,25.6h36.01l-7.94,44.971h-36.03l-9.81,55.679c-3.39,19.4,15.81,21.984,26.83,21.984,2.19,0,4.01-.049,5.32-.127l-8.81,50.148a88.229,88.229,0,0,1-11.45.666c-27.34,0-79.06-7.324-68.89-65.02l11.13-63.331H2864l7.9-44.971h26L2906.27,124Z" transform="translate(-1781 3790)" fill="#323e48" fill-rule="evenodd"/>
    <path id="Path_31025" data-name="Path 31025" d="M3240.54,173.625l-9.26,52.431A35.162,35.162,0,0,1,3219.6,292.3l-9.24,52.419c1.63.1,3.29.159,4.94.159a87.485,87.485,0,0,0,25.24-171.258Z" transform="translate(-1781 3790)" fill="#00adbb" fill-rule="evenodd"/>
    <path id="Path_31026" data-name="Path 31026" d="M3199.35,288.732a35.138,35.138,0,0,1,11.7-66.216l9.24-52.425c-1.65-.1-3.32-.181-4.96-.181a87.5,87.5,0,0,0-25.21,171.284Z" transform="translate(-1781 3790)" fill="#00adbb" fill-rule="evenodd"/>
    <path id="Path_31027" data-name="Path 31027" d="M3010.75,171.6h30.94c15.68,0,23.22,6.265,20.46,21.983l-3.39,19.017c11.53-23.4,36.54-42.709,62.2-42.709a37.3,37.3,0,0,1,6.6.667l-10,56.7a55.942,55.942,0,0,0-11.5-1.043c-13.67,0-36.79,4.336-49.65,30.022a88.851,88.851,0,0,0-7.07,23.31l-11.19,63.7H2980.5Z" transform="translate(-1781 3790)" fill="#323e48" fill-rule="evenodd"/>
  </g>
</svg>
