<svg xmlns="http://www.w3.org/2000/svg" width="780" height="500" viewBox="0 0 780 500">
  <g id="Group_25914" data-name="Group 25914" transform="translate(-82 -3790)">
    <path id="Path_31019" data-name="Path 31019" d="M1903,0h700a40,40,0,0,1,40,40V460a40,40,0,0,1-40,40H1903a40,40,0,0,1-40-40V40A40,40,0,0,1,1903,0Z" transform="translate(-1781 3790)" fill="#0e4595"/>
    <path id="Path_31020" data-name="Path 31020" d="M2156.2,348.73l33.36-195.76h53.36l-33.38,195.76Zm246.11-191.54a137.817,137.817,0,0,0-47.82-8.222c-52.73,0-89.87,26.55-90.18,64.6-.3,28.13,26.51,43.822,46.75,53.186,20.77,9.6,27.75,15.714,27.65,24.283-.13,13.121-16.58,19.116-31.92,19.116-21.35,0-32.7-2.967-50.22-10.276l-6.88-3.11-7.49,43.823c12.46,5.464,35.51,10.2,59.44,10.443,56.09,0,92.5-26.246,92.91-66.882.2-22.269-14.01-39.216-44.8-53.188-18.65-9.055-30.07-15.1-29.95-24.268,0-8.137,9.67-16.839,30.56-16.839a98.49,98.49,0,0,1,39.94,7.5l4.78,2.26,7.23-42.429m137.31-4.223h-41.23c-12.77,0-22.33,3.487-27.94,16.234L2391.2,348.6h56.03s9.16-24.123,11.24-29.418c6.12,0,60.55.084,68.33.084,1.6,6.853,6.49,29.334,6.49,29.334h49.52l-43.19-195.64Zm-65.42,126.41c4.41-11.279,21.26-54.723,21.26-54.723-.31.522,4.38-11.334,7.08-18.684l3.6,16.879s10.22,46.729,12.35,56.528Zm-363.3-126.41-52.24,133.5-5.56-27.13c-9.73-31.273-40.03-65.155-73.9-82.118l47.76,171.2,56.46-.064,84-195.39H2110.9" transform="translate(-1781 3790)" fill="#fff"/>
    <path id="Path_31021" data-name="Path 31021" d="M2009.92,152.96h-86.04l-.68,4.073c66.94,16.2,111.23,55.363,129.62,102.41l-18.71-89.96c-3.23-12.4-12.6-16.094-24.19-16.527" transform="translate(-1781 3790)" fill="#f2ae14"/>
  </g>
</svg>
